<mxfile host="Electron" agent="Mozilla/5.0 (Windows NT 10.0; Win64; x64) AppleWebKit/537.36 (KHTML, like Gecko) draw.io/26.2.15 Chrome/134.0.6998.205 Electron/35.2.1 Safari/537.36" version="26.2.15">
  <diagram name="Page-1" id="2YBvvXClWsGukQMizWep">
    <mxGraphModel dx="1582" dy="992" grid="1" gridSize="10" guides="1" tooltips="1" connect="1" arrows="1" fold="1" page="1" pageScale="1" pageWidth="1169" pageHeight="827" math="0" shadow="0">
      <root>
        <mxCell id="0" />
        <mxCell id="1" parent="0" />
        <mxCell id="Z7KDKAvKKjHut_IFP0Tw-43" value="" style="group" vertex="1" connectable="0" parent="1">
          <mxGeometry x="129" y="120" width="910" height="310" as="geometry" />
        </mxCell>
        <mxCell id="Z7KDKAvKKjHut_IFP0Tw-16" value="Alt" style="shape=umlFrame;whiteSpace=wrap;html=1;pointerEvents=0;width=40;height=20;fillColor=none;fontColor=#ffffff;strokeColor=#B20000;" vertex="1" parent="Z7KDKAvKKjHut_IFP0Tw-43">
          <mxGeometry y="130" width="910" height="180" as="geometry" />
        </mxCell>
        <mxCell id="aM9ryv3xv72pqoxQDRHE-1" value="register.html" style="shape=umlLifeline;perimeter=lifelinePerimeter;whiteSpace=wrap;html=1;container=0;dropTarget=0;collapsible=0;recursiveResize=0;outlineConnect=0;portConstraint=eastwest;newEdgeStyle={&quot;edgeStyle&quot;:&quot;elbowEdgeStyle&quot;,&quot;elbow&quot;:&quot;vertical&quot;,&quot;curved&quot;:0,&quot;rounded&quot;:0};" parent="Z7KDKAvKKjHut_IFP0Tw-43" vertex="1">
          <mxGeometry x="10" width="100" height="310" as="geometry" />
        </mxCell>
        <mxCell id="aM9ryv3xv72pqoxQDRHE-2" value="" style="html=1;points=[];perimeter=orthogonalPerimeter;outlineConnect=0;targetShapes=umlLifeline;portConstraint=eastwest;newEdgeStyle={&quot;edgeStyle&quot;:&quot;elbowEdgeStyle&quot;,&quot;elbow&quot;:&quot;vertical&quot;,&quot;curved&quot;:0,&quot;rounded&quot;:0};" parent="aM9ryv3xv72pqoxQDRHE-1" vertex="1">
          <mxGeometry x="45" y="70" width="10" height="230" as="geometry" />
        </mxCell>
        <mxCell id="aM9ryv3xv72pqoxQDRHE-3" value="form(datos)" style="html=1;verticalAlign=bottom;startArrow=oval;endArrow=block;startSize=8;edgeStyle=elbowEdgeStyle;elbow=vertical;curved=0;rounded=0;" parent="aM9ryv3xv72pqoxQDRHE-1" edge="1">
          <mxGeometry x="-0.1665" y="10" relative="1" as="geometry">
            <mxPoint x="-15" y="70.03" as="sourcePoint" />
            <mxPoint x="45" y="70.03" as="targetPoint" />
            <mxPoint as="offset" />
          </mxGeometry>
        </mxCell>
        <mxCell id="aM9ryv3xv72pqoxQDRHE-5" value="RegisterServlet" style="shape=umlLifeline;perimeter=lifelinePerimeter;whiteSpace=wrap;html=1;container=0;dropTarget=0;collapsible=0;recursiveResize=0;outlineConnect=0;portConstraint=eastwest;newEdgeStyle={&quot;edgeStyle&quot;:&quot;elbowEdgeStyle&quot;,&quot;elbow&quot;:&quot;vertical&quot;,&quot;curved&quot;:0,&quot;rounded&quot;:0};" parent="Z7KDKAvKKjHut_IFP0Tw-43" vertex="1">
          <mxGeometry x="190" width="100" height="300" as="geometry" />
        </mxCell>
        <mxCell id="aM9ryv3xv72pqoxQDRHE-6" value="" style="html=1;points=[];perimeter=orthogonalPerimeter;outlineConnect=0;targetShapes=umlLifeline;portConstraint=eastwest;newEdgeStyle={&quot;edgeStyle&quot;:&quot;elbowEdgeStyle&quot;,&quot;elbow&quot;:&quot;vertical&quot;,&quot;curved&quot;:0,&quot;rounded&quot;:0};" parent="aM9ryv3xv72pqoxQDRHE-5" vertex="1">
          <mxGeometry x="45" y="80" width="10" height="90" as="geometry" />
        </mxCell>
        <mxCell id="aM9ryv3xv72pqoxQDRHE-7" value="doPost(form-reg)" style="html=1;verticalAlign=bottom;endArrow=block;edgeStyle=elbowEdgeStyle;elbow=vertical;curved=0;rounded=0;" parent="Z7KDKAvKKjHut_IFP0Tw-43" source="aM9ryv3xv72pqoxQDRHE-2" target="aM9ryv3xv72pqoxQDRHE-6" edge="1">
          <mxGeometry relative="1" as="geometry">
            <mxPoint x="165" y="90" as="sourcePoint" />
            <Array as="points">
              <mxPoint x="150" y="80" />
            </Array>
          </mxGeometry>
        </mxCell>
        <mxCell id="Z7KDKAvKKjHut_IFP0Tw-1" value="UserController" style="shape=umlLifeline;perimeter=lifelinePerimeter;whiteSpace=wrap;html=1;container=0;dropTarget=0;collapsible=0;recursiveResize=0;outlineConnect=0;portConstraint=eastwest;newEdgeStyle={&quot;edgeStyle&quot;:&quot;elbowEdgeStyle&quot;,&quot;elbow&quot;:&quot;vertical&quot;,&quot;curved&quot;:0,&quot;rounded&quot;:0};" vertex="1" parent="Z7KDKAvKKjHut_IFP0Tw-43">
          <mxGeometry x="370" width="100" height="300" as="geometry" />
        </mxCell>
        <mxCell id="Z7KDKAvKKjHut_IFP0Tw-2" value="" style="html=1;points=[];perimeter=orthogonalPerimeter;outlineConnect=0;targetShapes=umlLifeline;portConstraint=eastwest;newEdgeStyle={&quot;edgeStyle&quot;:&quot;elbowEdgeStyle&quot;,&quot;elbow&quot;:&quot;vertical&quot;,&quot;curved&quot;:0,&quot;rounded&quot;:0};" vertex="1" parent="Z7KDKAvKKjHut_IFP0Tw-1">
          <mxGeometry x="45" y="85" width="10" height="55" as="geometry" />
        </mxCell>
        <mxCell id="Z7KDKAvKKjHut_IFP0Tw-3" value="UserDAO" style="shape=umlLifeline;perimeter=lifelinePerimeter;whiteSpace=wrap;html=1;container=0;dropTarget=0;collapsible=0;recursiveResize=0;outlineConnect=0;portConstraint=eastwest;newEdgeStyle={&quot;edgeStyle&quot;:&quot;elbowEdgeStyle&quot;,&quot;elbow&quot;:&quot;vertical&quot;,&quot;curved&quot;:0,&quot;rounded&quot;:0};" vertex="1" parent="Z7KDKAvKKjHut_IFP0Tw-43">
          <mxGeometry x="550" width="100" height="300" as="geometry" />
        </mxCell>
        <mxCell id="Z7KDKAvKKjHut_IFP0Tw-13" style="edgeStyle=elbowEdgeStyle;rounded=0;orthogonalLoop=1;jettySize=auto;html=1;elbow=vertical;curved=0;fillColor=#fa6800;strokeColor=#C73500;" edge="1" parent="Z7KDKAvKKjHut_IFP0Tw-3" source="Z7KDKAvKKjHut_IFP0Tw-4">
          <mxGeometry relative="1" as="geometry">
            <mxPoint x="100" y="100" as="targetPoint" />
          </mxGeometry>
        </mxCell>
        <mxCell id="Z7KDKAvKKjHut_IFP0Tw-4" value="" style="html=1;points=[];perimeter=orthogonalPerimeter;outlineConnect=0;targetShapes=umlLifeline;portConstraint=eastwest;newEdgeStyle={&quot;edgeStyle&quot;:&quot;elbowEdgeStyle&quot;,&quot;elbow&quot;:&quot;vertical&quot;,&quot;curved&quot;:0,&quot;rounded&quot;:0};" vertex="1" parent="Z7KDKAvKKjHut_IFP0Tw-3">
          <mxGeometry x="45" y="90" width="10" height="30" as="geometry" />
        </mxCell>
        <mxCell id="Z7KDKAvKKjHut_IFP0Tw-25" value="" style="html=1;points=[];perimeter=orthogonalPerimeter;outlineConnect=0;targetShapes=umlLifeline;portConstraint=eastwest;newEdgeStyle={&quot;edgeStyle&quot;:&quot;elbowEdgeStyle&quot;,&quot;elbow&quot;:&quot;vertical&quot;,&quot;curved&quot;:0,&quot;rounded&quot;:0};" vertex="1" parent="Z7KDKAvKKjHut_IFP0Tw-3">
          <mxGeometry x="45" y="210" width="10" height="30" as="geometry" />
        </mxCell>
        <mxCell id="Z7KDKAvKKjHut_IFP0Tw-7" value="registerUser(atributes)" style="html=1;verticalAlign=bottom;endArrow=block;edgeStyle=elbowEdgeStyle;elbow=vertical;curved=0;rounded=0;" edge="1" parent="Z7KDKAvKKjHut_IFP0Tw-43">
          <mxGeometry relative="1" as="geometry">
            <mxPoint x="245" y="85" as="sourcePoint" />
            <Array as="points">
              <mxPoint x="375" y="85" />
            </Array>
            <mxPoint x="415" y="85" as="targetPoint" />
          </mxGeometry>
        </mxCell>
        <mxCell id="Z7KDKAvKKjHut_IFP0Tw-8" value="existByEmail(email)" style="html=1;verticalAlign=bottom;endArrow=block;edgeStyle=elbowEdgeStyle;elbow=vertical;curved=0;rounded=0;" edge="1" parent="Z7KDKAvKKjHut_IFP0Tw-43" source="Z7KDKAvKKjHut_IFP0Tw-2" target="Z7KDKAvKKjHut_IFP0Tw-4">
          <mxGeometry relative="1" as="geometry">
            <mxPoint x="425" y="90" as="sourcePoint" />
            <Array as="points">
              <mxPoint x="555" y="90" />
            </Array>
            <mxPoint x="595" y="90" as="targetPoint" />
          </mxGeometry>
        </mxCell>
        <mxCell id="Z7KDKAvKKjHut_IFP0Tw-12" value="return(boolean)" style="html=1;verticalAlign=bottom;endArrow=open;dashed=1;endSize=8;edgeStyle=elbowEdgeStyle;elbow=vertical;curved=0;rounded=0;" edge="1" parent="Z7KDKAvKKjHut_IFP0Tw-43">
          <mxGeometry relative="1" as="geometry">
            <mxPoint x="425" y="118.99999999999994" as="targetPoint" />
            <Array as="points">
              <mxPoint x="575" y="119" />
            </Array>
            <mxPoint x="595" y="118.99999999999994" as="sourcePoint" />
          </mxGeometry>
        </mxCell>
        <mxCell id="Z7KDKAvKKjHut_IFP0Tw-14" value="QUERY = INSERT INTO usuarios (...)" style="shape=note;whiteSpace=wrap;html=1;backgroundOutline=1;darkOpacity=0.05;size=12;" vertex="1" parent="Z7KDKAvKKjHut_IFP0Tw-43">
          <mxGeometry x="650" y="210" width="220" height="30" as="geometry" />
        </mxCell>
        <mxCell id="Z7KDKAvKKjHut_IFP0Tw-15" value="EmailExistenteException" style="html=1;verticalAlign=bottom;endArrow=open;dashed=1;endSize=8;edgeStyle=elbowEdgeStyle;elbow=vertical;curved=0;rounded=0;" edge="1" parent="Z7KDKAvKKjHut_IFP0Tw-43">
          <mxGeometry y="20" relative="1" as="geometry">
            <mxPoint x="248" y="140" as="targetPoint" />
            <Array as="points">
              <mxPoint x="340" y="140" />
            </Array>
            <mxPoint x="415" y="140" as="sourcePoint" />
            <mxPoint as="offset" />
          </mxGeometry>
        </mxCell>
        <mxCell id="Z7KDKAvKKjHut_IFP0Tw-17" value="[email existe]" style="text;html=1;align=center;verticalAlign=middle;resizable=0;points=[];autosize=1;strokeColor=none;fillColor=none;" vertex="1" parent="Z7KDKAvKKjHut_IFP0Tw-43">
          <mxGeometry x="60" y="130" width="90" height="30" as="geometry" />
        </mxCell>
        <mxCell id="Z7KDKAvKKjHut_IFP0Tw-18" value="" style="edgeStyle=none;orthogonalLoop=1;jettySize=auto;html=1;rounded=0;endArrow=none;startFill=0;dashed=1;dashPattern=8 8;strokeWidth=2;fillColor=#e51400;strokeColor=#B20000;" edge="1" parent="Z7KDKAvKKjHut_IFP0Tw-43">
          <mxGeometry width="100" relative="1" as="geometry">
            <mxPoint y="187" as="sourcePoint" />
            <mxPoint x="910" y="187" as="targetPoint" />
            <Array as="points" />
          </mxGeometry>
        </mxCell>
        <mxCell id="Z7KDKAvKKjHut_IFP0Tw-19" value="EmailExistenteException" style="html=1;verticalAlign=bottom;endArrow=open;dashed=1;endSize=8;edgeStyle=elbowEdgeStyle;elbow=vertical;curved=0;rounded=0;" edge="1" parent="Z7KDKAvKKjHut_IFP0Tw-43">
          <mxGeometry y="20" relative="1" as="geometry">
            <mxPoint x="65" y="164" as="targetPoint" />
            <Array as="points">
              <mxPoint x="160" y="164" />
            </Array>
            <mxPoint x="232" y="164" as="sourcePoint" />
            <mxPoint as="offset" />
          </mxGeometry>
        </mxCell>
        <mxCell id="Z7KDKAvKKjHut_IFP0Tw-21" value="create(User)" style="html=1;verticalAlign=bottom;endArrow=block;edgeStyle=elbowEdgeStyle;elbow=vertical;curved=0;rounded=0;" edge="1" parent="Z7KDKAvKKjHut_IFP0Tw-43" target="Z7KDKAvKKjHut_IFP0Tw-25">
          <mxGeometry relative="1" as="geometry">
            <mxPoint x="425" y="210" as="sourcePoint" />
            <Array as="points">
              <mxPoint x="505" y="210" />
            </Array>
            <mxPoint x="590" y="210" as="targetPoint" />
          </mxGeometry>
        </mxCell>
        <mxCell id="Z7KDKAvKKjHut_IFP0Tw-24" value="" style="html=1;verticalAlign=bottom;endArrow=block;edgeStyle=elbowEdgeStyle;elbow=vertical;curved=0;rounded=0;" edge="1" parent="Z7KDKAvKKjHut_IFP0Tw-43" target="Z7KDKAvKKjHut_IFP0Tw-23">
          <mxGeometry relative="1" as="geometry">
            <mxPoint x="420" y="210" as="sourcePoint" />
            <Array as="points" />
            <mxPoint x="590" y="210" as="targetPoint" />
          </mxGeometry>
        </mxCell>
        <mxCell id="Z7KDKAvKKjHut_IFP0Tw-23" value="" style="html=1;points=[];perimeter=orthogonalPerimeter;outlineConnect=0;targetShapes=umlLifeline;portConstraint=eastwest;newEdgeStyle={&quot;edgeStyle&quot;:&quot;elbowEdgeStyle&quot;,&quot;elbow&quot;:&quot;vertical&quot;,&quot;curved&quot;:0,&quot;rounded&quot;:0};" vertex="1" parent="Z7KDKAvKKjHut_IFP0Tw-43">
          <mxGeometry x="415" y="210" width="10" height="40" as="geometry" />
        </mxCell>
        <mxCell id="Z7KDKAvKKjHut_IFP0Tw-26" value="QUERY = SELECT COUNT(*) FROM usuarios WHERE email=?" style="shape=note;whiteSpace=wrap;html=1;backgroundOutline=1;darkOpacity=0.05;size=12;" vertex="1" parent="Z7KDKAvKKjHut_IFP0Tw-43">
          <mxGeometry x="650" y="75" width="200" height="50" as="geometry" />
        </mxCell>
        <mxCell id="Z7KDKAvKKjHut_IFP0Tw-32" style="edgeStyle=elbowEdgeStyle;rounded=0;orthogonalLoop=1;jettySize=auto;html=1;elbow=vertical;curved=0;fillColor=#fa6800;strokeColor=#C73500;" edge="1" parent="Z7KDKAvKKjHut_IFP0Tw-43">
          <mxGeometry relative="1" as="geometry">
            <mxPoint x="650" y="224.67000000000002" as="targetPoint" />
            <mxPoint x="605" y="224.67000000000002" as="sourcePoint" />
          </mxGeometry>
        </mxCell>
        <mxCell id="Z7KDKAvKKjHut_IFP0Tw-33" style="edgeStyle=elbowEdgeStyle;rounded=0;orthogonalLoop=1;jettySize=auto;html=1;elbow=horizontal;curved=0;dashed=1;endArrow=open;endFill=0;" edge="1" parent="Z7KDKAvKKjHut_IFP0Tw-43">
          <mxGeometry relative="1" as="geometry">
            <mxPoint x="595" y="240.0033333333334" as="sourcePoint" />
            <mxPoint x="425" y="240.0033333333334" as="targetPoint" />
          </mxGeometry>
        </mxCell>
        <mxCell id="Z7KDKAvKKjHut_IFP0Tw-34" value="User con id" style="edgeLabel;html=1;align=center;verticalAlign=middle;resizable=0;points=[];" vertex="1" connectable="0" parent="Z7KDKAvKKjHut_IFP0Tw-33">
          <mxGeometry x="0.109" relative="1" as="geometry">
            <mxPoint x="9" y="-10" as="offset" />
          </mxGeometry>
        </mxCell>
        <mxCell id="Z7KDKAvKKjHut_IFP0Tw-35" style="edgeStyle=elbowEdgeStyle;rounded=0;orthogonalLoop=1;jettySize=auto;html=1;elbow=horizontal;curved=0;dashed=1;endArrow=open;endFill=0;" edge="1" parent="Z7KDKAvKKjHut_IFP0Tw-43">
          <mxGeometry relative="1" as="geometry">
            <mxPoint x="415" y="250.0033333333334" as="sourcePoint" />
            <mxPoint x="245" y="250.0033333333334" as="targetPoint" />
          </mxGeometry>
        </mxCell>
        <mxCell id="Z7KDKAvKKjHut_IFP0Tw-36" value="User con id" style="edgeLabel;html=1;align=center;verticalAlign=middle;resizable=0;points=[];" vertex="1" connectable="0" parent="Z7KDKAvKKjHut_IFP0Tw-35">
          <mxGeometry x="0.109" relative="1" as="geometry">
            <mxPoint x="9" y="-10" as="offset" />
          </mxGeometry>
        </mxCell>
        <mxCell id="Z7KDKAvKKjHut_IFP0Tw-38" style="edgeStyle=elbowEdgeStyle;rounded=0;orthogonalLoop=1;jettySize=auto;html=1;elbow=vertical;curved=0;" edge="1" parent="Z7KDKAvKKjHut_IFP0Tw-43" source="Z7KDKAvKKjHut_IFP0Tw-37" target="Z7KDKAvKKjHut_IFP0Tw-16">
          <mxGeometry relative="1" as="geometry" />
        </mxCell>
        <mxCell id="Z7KDKAvKKjHut_IFP0Tw-39" style="rounded=0;orthogonalLoop=1;jettySize=auto;html=1;elbow=vertical;exitX=0;exitY=0.154;exitDx=0;exitDy=0;exitPerimeter=0;edgeStyle=orthogonalEdgeStyle;entryX=-0.044;entryY=0.6;entryDx=0;entryDy=0;entryPerimeter=0;" edge="1" parent="Z7KDKAvKKjHut_IFP0Tw-43" source="Z7KDKAvKKjHut_IFP0Tw-37" target="Z7KDKAvKKjHut_IFP0Tw-37">
          <mxGeometry relative="1" as="geometry">
            <mxPoint x="230" y="410" as="targetPoint" />
            <Array as="points">
              <mxPoint x="220" y="256" />
              <mxPoint x="220" y="274" />
            </Array>
          </mxGeometry>
        </mxCell>
        <mxCell id="Z7KDKAvKKjHut_IFP0Tw-40" value="Crear sesión HTTP&amp;nbsp;&lt;div&gt;(session.setAttribute(&quot;user&quot;, User))&lt;/div&gt;" style="edgeLabel;html=1;align=center;verticalAlign=middle;resizable=0;points=[];fontSize=7;" vertex="1" connectable="0" parent="Z7KDKAvKKjHut_IFP0Tw-39">
          <mxGeometry x="0.0799" y="-2" relative="1" as="geometry">
            <mxPoint x="-45" y="-24" as="offset" />
          </mxGeometry>
        </mxCell>
        <mxCell id="Z7KDKAvKKjHut_IFP0Tw-37" value="" style="html=1;points=[];perimeter=orthogonalPerimeter;outlineConnect=0;targetShapes=umlLifeline;portConstraint=eastwest;newEdgeStyle={&quot;edgeStyle&quot;:&quot;elbowEdgeStyle&quot;,&quot;elbow&quot;:&quot;vertical&quot;,&quot;curved&quot;:0,&quot;rounded&quot;:0};" vertex="1" parent="Z7KDKAvKKjHut_IFP0Tw-43">
          <mxGeometry x="235" y="250" width="10" height="40" as="geometry" />
        </mxCell>
        <mxCell id="Z7KDKAvKKjHut_IFP0Tw-41" style="edgeStyle=elbowEdgeStyle;rounded=0;orthogonalLoop=1;jettySize=auto;html=1;elbow=horizontal;curved=0;dashed=1;endArrow=open;endFill=0;" edge="1" parent="Z7KDKAvKKjHut_IFP0Tw-43">
          <mxGeometry relative="1" as="geometry">
            <mxPoint x="235" y="290.0033333333334" as="sourcePoint" />
            <mxPoint x="65" y="290.0033333333334" as="targetPoint" />
          </mxGeometry>
        </mxCell>
        <mxCell id="Z7KDKAvKKjHut_IFP0Tw-42" value="Redirect /home.jsp" style="edgeLabel;html=1;align=center;verticalAlign=middle;resizable=0;points=[];" vertex="1" connectable="0" parent="Z7KDKAvKKjHut_IFP0Tw-41">
          <mxGeometry x="0.109" relative="1" as="geometry">
            <mxPoint x="9" y="-10" as="offset" />
          </mxGeometry>
        </mxCell>
        <mxCell id="Z7KDKAvKKjHut_IFP0Tw-45" value="&lt;span style=&quot;font-size: 20px;&quot;&gt;&lt;b&gt;&lt;i&gt;C.U. 01 &quot;Registrar Usuario&quot;&lt;/i&gt;&lt;/b&gt;&lt;/span&gt;" style="text;html=1;align=center;verticalAlign=middle;resizable=0;points=[];autosize=1;strokeColor=none;fillColor=none;" vertex="1" parent="1">
          <mxGeometry x="30" y="20" width="280" height="40" as="geometry" />
        </mxCell>
        <mxCell id="Z7KDKAvKKjHut_IFP0Tw-48" value="" style="shape=image;verticalLabelPosition=bottom;labelBackgroundColor=default;verticalAlign=top;aspect=fixed;imageAspect=0;image=data:image/png,iVBORw0KGgoAAAANSUhEUgAAAyMAAAL3CAYAAACZC5pIAAAAAXNSR0IArs4c6QAAAARnQU1BAACxjwv8YQUAAAAJcEhZcwAADsMAAA7DAcdvqGQAAP+lSURBVHhe7P19kBvpfSd4fiW5FArlVrOGJNwbpG4L9BriBVodwlRMH8MgdNWeUPdsgeZIuvDI4clyNLTcrmU1/NKzFRDDhZWn79ooL4XluDU3ELlQcFUdWzkOaRwzlmmi1k3FuGsEYqJDEzVw9BBxY/jMrLDImVY1ecWugJarsuX748lMPPnkCxJAFVFFfj8RFd3MTGQ++TxPJp4nn9+T+NDJkyf/BkRERERERI/Yh9UFREREREREjwI7I0RERERENBLsjBARERER0UiwM0JERERERCPBzggREREREY0EOyNERERERDQS7IwQEREREdFIsDNCREREREQjwc4IERERERGNBDsj+5Q2XcDXDQPG1xeR/Vl1bT8OIf2lRZR+8yU8p6nr/KRRuGLAMAyUZtV1RERERES7p2dn5NCns3j5t95A9apooBqGAeN/W8by17+KV79wXN2cdsPP6lj8UgqHdkzU/skSan+ubtCHzBxyn30G8U+9iC+9/Jy6loiIiIhoZEI6I4fw4q+/ga99WcfzJ2PQPiat+vAYxg4dR/JnJqWFe+k4nj+3iK9+fXkPn9Y/imNEkYD+376AOEzUfrsIY5iOCACYd7H5EMBPHuDP/n1LXUtERERENDIBnRENzy/8Dl46FcMYAGyb+P7vfwNLhTno+hy+XPoGvv2Oia0d9XN7ZRLPPfcMjh8aU1fsokdxjCjaMBZz0HO70BEBgB8YKJ7Tof/KK3hjraOuJSIiIiIaGd/OiDbzG/iHU4cAADsbb2FpoYg3/tXbuHW3A6CDO6238Z1/WsSX/2lD/SgREREREVEkHzp58uTfuBdp0JeqyE4C2Gnj2/nX8J2ID9QP/dxL+Ee/dBrxIxrGrG7OzoM7aP7vb+Ibf3gLzm4yBVTnU9DQQbP6NfzZ33kJZ1LHoX0YQGcTt96qYOn32wCA9EIV+SmfmdfbTVTOl9Fw7esb2Pp7L+P5SQ34ixr0rxjA4TT0L30ep5M/jUMfs0Y9djq48+4f4BuXamhHOQYAQMMzf/9lvPTfpLqjJz/ZQeeeiZvf+l28+W8fuD/rQ18yRL5u1PBaYxL/6JeewaEPP8D3/+kreOM/PIMX9X+A7FQcsfHu/h+Yf4Jv/k9v4vtO5ukoGVnEAZirc/iDjxSgn04gpnW3X/ndN9G477e9juKKvRzQnnsJBf00EjHr3B+YeOubN/DT515Gaty7PQ6n8dKvfhGnfyYGzR5AevgAd/70j/Hm1e/gVsR6QkREREQE/5GRzyJxTPxfp/V25I5IYraEr/3qi0jENIxhBzsPd7DzE2Ds0HE890sFlObT6kcAfBQnfqmAL04dx0d/bMV8aTE884V/hFcz4p87/+ePsPNQigfbsfb9ox9BjRI7/jmrIwIAHxH/SX8ph+zUcRz6CNDZ3MSDhwDGNByf0lFYEGnqfQwNzy+UsfhLz4mOyE/Eenx4DFosgRd/tYzX+pnM/7HnkP/lZ3DowwDwUxgbA/CFf4iXpkWnYufBJja3xf4P/cyLyBd1+O1dSy4i/2ICsY/sYGdHzOU59DMvIv/br8Ivt2XadAHlV0V5ARDnOx7Hi/l/iIRfpNrP6ij9kzxePCk6IjsPrWN+7BCOn/oiCqV8z2MSEREREcm8nZFPfQITVmN08+7b6lp/U3nkZ+IYA/Cg9W0snc8hdy6H3PklfLv1AMAYYpnP46VPqB8cwyHcwpu/piN3Loe50lu4swMAh5CazgIAvv/PXkXuXBXNbfEJ87vWvv+HCr7v2peG2NN/heabX8acrkNfNMTiH91F81tLmMvlMPfqq3jl3ByMluhhacnnkY1wDO0LBeSmDgHYwZ21Cl75FbFe/7UK3r67A0BDYuYlvCilJtTTMUxsvIXyr+nQ9TmU6wD+egvmd619v/IqXj2fw2v/ehMAMDb5HLKevANixzQ0v/kK9HM55HJzWHrLFJ2nQym8+Is+Iz2OFF7+xRQOAcCDppP/uV95DUb7r9wvK7C2z/9qFvExAA9u4dulObF9bg5L37qFBwDGYml8/kt+XSYiIiIiIn/ezsjEx/FxdVkP6Z//NGIA0LmFPyhJ4TqdW/jOG2+jvQMAx/G3/57aWN3BrWtlvGWFFHVab+JP/1L8/5j2t1xbRrG59rsov3WnGw4GoHH5NZTlEDF0UFu3Gu0f09D7KBo+/1xCTOS/+yf4WrUBJyDrfgPf+L2m+Lf2SfydGflzIR628e3Sm2g6oVQAfq+M4jelfQNo//EtiO7IxzERl1ZYHqwv443v2p/o4NabX8fN9wBgDPFnP+veWHbqeXzyMMRn/mU3/4E2aqU/wq2Hrq2BzAv4tChg3PqXS/iO1ZkDOrj1h1/D238uxo+OP5v1HcEhIiIiIvLj7Yz8+x9iy/pfbeIZZaW/E0esUJ//dAtvqSs713H7PfG/H59QXwX8Y+xYoxG221sR48I8OrjTEvNM3A4hNfMSCr9VwlffqGL56jKM2WdE5yKST+PYYfF/mxv/DnfU1etN3N4GgDFoR9SVAd5ro+Y5TQ3Hpz+HV3+zhFL56yKdF58XnTxfHdz+06ay7A7a/1nseGzsv1DWSRIxMSqycxe3vquu3BLhV7L4BDQEbd/B9b/4ofjfj09ALWEiIiIioiDezkinjU2rgxA7+QJS6vow9ryPfSON/BtfQ2H2RaROxvHT43+FH969A/PuA898k0j+D7ubttuO43O/9bv46twX8dyn4jh++Kew9f4dmH+x6Rrl8fhrdQFwfDwsPEvx1z/uLx/63Z6IiIiIKIS3M4IGbvwHERyEw89hbuF58VQ8xB1rNGPsv/ykt/OiTePEUfG/P9raUNfurS+8iOdiY8DOHbz1j3Xkzr2CL3+liOK//oG6ZYg/xQ+tSKiJ/+q0Ny9+NoHj4wCwg849dWVEn/o8fv6kBqCDZnUOuXNzePVCEcX/5RZ+pG7r0BD7r9XUvIjJp8X/PfjhnynrJPc6VpjaJ/DJKWXdJxKIjSvL/nJLdIr8toeG6cmfFv/7oy084hImIiIiogPMpzMCNL/5B2haDfBDUy+j8k8Wof/dZ3BcgwgnSj4PfeGr+Oqvi/cnvd1oi8bq4ecw9+UXRQgQAGjP4HOv/gISHwOwY+L7f+wJcupbbDLr7RAE0cZEONZf/wib/8le9gxeev6ToWFa7mN08N13xRyTsZ/NYvGlZ7rrDqfx8n9/WoRSbd/C26vOh/rjzNP5Ebbu2GMhh/DirzwXEqYFHP+5Aj6XtFNzCC9++fN4RgOAB/izf+Oe3u/yb/4cpv2igF9+Gc/Zu9CewUuv/Lx33sfaTbS3AeAQnvvvCnjRClsTrzv+DfzCyTEAOzDXa94wNiIiIiKiAD6/M2L52SwWf0PHM07D06uzXsHcpQYADc+/WsbLz1ndkJ/sYOfHAD46Zv3eSAftf1XGa9Zvh7h+Z+Sy9TYpi/ObHxu17hux5N8+AYCHO9j5URPVX3vD/Tsjyr66x3Gn6Ud/eQc/NXkcGkzU9CLEUUKOgQT014vI/kz39z92fgyMOb9bsonGN4uo9PiFc/l3RrrnBuATOkq/bb2tyk7nR8aAuya2JuOIuc6t+7shOzs7GBsbE68Z/siYeEUwgAfr30Dh0ttWiJf/74yk5t9AIWN1deTy2jZhfjiOuPI7I9r0qyj/d89ZryMWr/aVj9n58++g/I+/Db9ZO0REREREfnxHRgAAf17D0q+9gsp3b+HOA2WmwMMONv/i+7i++qfWgg7efqOApW99X2z74TGMfWwMY9jBgx80UftnhW5HZCAdGP/rd9C20/GxMYw97LjePOWr/nV87Q9vYbMjfoNj7KM/xg+bBn63ZoWhuYQdow3jK7+Bynfbzu9/jH1sDPhJB5v/8W28+dXeHZFQPzDw1ZUG7jyw0vmxMfzoL99CpdQKnTNy50/K+M5/2MSPP2p1CnYewPxuBb/pdESCNS8X8cZbbSlvgB+Zb6HyP153XmAg66y9gcLvfBvf/8ED8fsxHxPH3HlwB80/qqDAjggRERER9Sl4ZIT2Kf+RDiIiIiKigyZ4ZISIiIiIiGgPsTNCREREREQjwc4IERERERGNBDsjREREREQ0EpzATkREREREI8GRESIiIiIiGgl2RoiIiIiIaCTYGSEiIiIiopFgZ4SIiIiIiEaCnREiIiIiIhoJdkaIiIiIiGgk2BkhIiIiIqKRYGeEiIiIiIhGgp0RIiIiIiIaCXZGiIiIiIhoJNgZISIiIiKikWBnhIiIiIiIRoKdESIiIiIiGgl2RoiIiIiIaCTYGSEiIiIiopFgZ4SIiIiIiEaCnREiIiIiIhoJdkaIiIiIiGgk2BkhIiIiIqKRYGeEiIiIiIhGgp0RIiIiIiIaCXZGiIiIiIhoJNgZGcRsCYZRgq4up/1htgTDqKKQEf/UlwwYSyytqPZ3fqVRuGLAMKw0ZgqoGgZKs+p2NKz9XQ/8iLpRXUirKx4z6nkq/454Texl+epL1jV6pYC9Lg196dEcJ1CmgKr0fUNE/dtXnZH0QlXcwFx/j/dFLt9Ifc8/8CarozTMttaXkPOl4ftXReG/jfbFRvQo6Et5pO7XoOs69EVDXb3r+rsmiSi9UEX2cBMVXYd+voyGusEBspcdNiLq2ledEQDAtnUTc/7mUK6rG4VRnxrtY7MlZCdN1OQbtuv8K2gihbzS+BENpCywKueTjtr9FPJq5y1TQNWzbQ2mtdpY7C6vrHeU48+h/L+WMbdqIj5zgEaCVooD1Bva/9I4dhjo3LvdXVQvY07XUVyRt9tlEa5Jon3jUVwTIU4c0YD7dx9ZJ8RYPPidHqIn3dCdkVwuh6tXr+Lq1avI5XLqagqhJ+PorF9H8PPdBsorTXTGEzhtdzAyBeSmNJir3i8bY1FHZR1IzXYbSulTCWgbNWVbA8V+niqvXEdzO47pg9DBI9pTPtckERERDexDJ0+e/Bt1YVS5XA4vvPCCa9mNGzewvLzsWhZVeqGKfKKNStBTjtkSjBmgdnkL0/MpaNZip2GeKaAqLQeAznoFc5ca0JcMZFFDDVlkJ7vL0wtV5Ke6n7CXy/QlA9lJ+18maqtAdgao6UWnIxFlP246SsY0ti53n+D7n7+OkjWyUVyx0oJaSIiKe3uRrk1XWoP4H99/XbT9irTE7X9uN137VssETr4BhSt5pMblZXKKlP3CdKfDrifWst555uZs30rCmLGP0kFTKitEKfPZkvR5ABtSGnzX3UbhSh6Jtrwfca4xed+ZAqrzE1hzzlnND29a1bzuplX57Ia1TR/5Bficj6us067yhHzNWuz0Ve5NS3kqlavPtW2u6iiaBVTnE2jb52uX/SqQnYk76TgxYF1T673gd43tYj2oHXOfk7NdzFWu6YUq8kfWpHLqVQ9EOSTaNbQTWaTG5XIYvh70LMPuln2nE06dcX/WXY/sz1WwjFxwGgLqSPe+1i1LtZ72on7eXRcipg8+9V2uM9J+xL6Vf2eUawLw5nlQ+ar1Ublnh1PLVTp/9Xz89ht67OB7iO/9PXRfdv4m0L68hon5bprVa9dv3+4y7qC52kZiRs1vIurHUCMjn/nMZ9RFvst2VxzZWWBZCi1yQojqZczpFTS3xU1F13V3o2Ayi2RLfM5uiJ05stYNX7rcBKbyrvkR+pLRjX/VdeiXtzAt3+TEVj334zGbRHy7jZu9bl6ZY4ihgy0T8A1T8biNrW0g9rQYxWhcWkZzO46sGr7Vp8Z7m8D4BE6oKwJ1G2yuMDI1vEUqE33VhDaVh2HkMVGXl+VcaU8vJLF1WdrvRhxZdb/DmszCSLacY1TWgdS8nIc9yjxTQHUmhqaTzm5oXPC6Bm62O9ASp7vnMptEHHAtS59KQNvewm17X1ZnxUnL6iZS8z7zfHzqv93Rcc7z3rTU8Y4mvVC1Gsr2+VTQvG+v1VEypHkeVl7FZnxCKSezyGG5u4/tOLJ2vLbPtR3cSIwja5ed3AAZoK75cl2Te1AP6jfR3taQONXNHz0ZByAvS+N0QuveC/qoB9rUNLAitpE7IsPWA6BHGWLwdIr7vAHDmHaufde93/W5vJQG6/7geeGIt444HU+pLGMz3nQF61EXLD3T5zSU7XpRQfNwdoi5C9HK13sd26G/at4FMVDUddQ2rM6T9P2rZyewZueLHeoonY/32D3uIavOVeTh3VfQeWhIzSfRkvbZ6/rvPoSz972GiRn3QxIi6t9QnZE9MZ5CPnSyaAfNlW4Do3FpDSbiSEb5wthu4npYuFL9JtpSQx6ZAqYn3cdDXcyhcOuxHx/pp2MR4mp1lOZT0DbWXE9cNt8L+1QDd52buPh3+bzdmLYmpYfcbAOZW+gghmPWZxuX5qCrT/Mk6YVpxJXwMKPmE94ib7NyHc1tv2XuhlnjUtGVH0bL7LOjFMF2ExWpTEWnTk5HjzKPT0DDJu466ZS2D1nXeKeNjnQuejKOzobpWnbiiIZO+yYaAPRsCtpGzd3pXimitgHEk0oTQqn/6YVpxLebWJY+27g0JxoTkek4M6XBXJWfCjZQXrQbeOIYcl6iXsbyutLpgkhfNy0NlOsmMJmM2BCSddCs+dRMT73yW+aua17qNbkX9cDqlB5xagGSkx2YG/KyE5gY76D9jt3Y66MeKPeT3akHlh5l2E86O+vLTjrFfd5vmc+9X9m/sVjz2U6tIzrOTMFzr1/zSVewHnXB1iN9ejYFSOfpl4/9iFa+ftexN22DMhbl7wpRv3H4mHX9+x27xz1kpRjwMMJvX8HnYa5K6ep5/dv7ls/FQPFyEx3XdkTUr6E6I9/73vfURb7L+qJOYFeHcl1f3n3ybfzr0pum3MPAiE9AizJ6AYTvpx+uzpj1NEu+CcPny81FjJ6oROeh2ynxPJXupX4Xm+qyECeOaGJ0Qe5YKmE2QcJHfoS0/JYjz0jVLvDUFdHJ6zYGEV7m1jybrOGT12Hr6nex6XxppnHscAft2nW0t+1lomEqGqGirM2Wt+FttEzpy96inJPcqRlY5hhiMNHybRgEH0PtdAHe9A0u+j0iSl3rfU3ufj1ovLfZbXxmjiG23cb1Whsde5lrZLW/eqCec1AZDSS0DPtLp5/wBzGCen7qaLGg1JHMMcSgWQ9sun/q6EFvIXXBEp4+kUdi1E5KyxD3uEjlG3gdG2htqHk3GPnNjXIoW/CxhUjptwXuy+887NHNiAL3TUTDGqozsry8jBs3buDhw4d4+PDhUPNFRkE0aOVQIhEG0q/d2g/g7Yy5niD6NohVJzAxHvyl3bg0Zw1HnxnoKVs/7HAa99+wcbXiy94VTuEZqdp7vctcjEjpeg2bVsOi2+AMWye+NONJHcicRgJt3KyLJ4nxpB49vI92T8g1uWf1YKXlPMlNn0oA7Zto1G86nVI9GY/eQKOITCn8RvpTHgYF6V0XojOVNyWKv+CR6H0tI14Pn0U3zKqyzrEEIuoaqjMCq0Ny7tw5nDt37kB1RJyY6/VKwHCvRQ0rghVi1f1XtP3sEqPWRGdyOjDUyh7SdoejKZSQq0gyxyCfdS+37/mE4eyG2STiUF6H/EjoSE7aT3X7KXMRR13xC0sKWGc/JdbtRqg9knD4GPSnY1IjVHRO/cJI9GS8x1NqwZsm/5G1QK6RHK+geuCa93Jg7WU9sJ/k6jidgDUSJjqlsad1MWJmhWjti3oQyfDpHEjmNBJSSJuvHvW4t37qgsKVvuA8GkbP8g08f3HfC3q4FYW41pUwK1ngsYWge4ivwH0Nfx6Cz77jE5FG/Iko2NCdkf0nyugBfLdLL+R8Qiw016tyYb1atyvCfnw03tuMFJbgUS9j2Qq1UidG6ksG8krcc3qh5Om46NlUH+FnFiW+XTwFVCcEdokwnBRyrvATHaWBJ2FaPB0pHaW+QhjE79CoeecxmXWFzuhLWcSdIfoIZT5bCj5G2DpYT8XHU8hO2Y1Q60t2PIXslOb6QhWdU3daxe/XqDHxXmIOj7uMPOfRM78MXF/vID4jz0VKo7AkrpnGpTWY4+7JqvY1ZNYfdYdyt+1tPTBaJrSpLFLoXquN9zbFsnF3mNHo60E0w6QzKs01aTyNwmyU+501IqlMiHfdP2dLPnMYbRHqgqVX+oyWCUxm3XmdKaCkhvlFFK18/a5j677nerilo9TnvEPPy08836F+x+5xDwm8dvz25XceA7DnELnqSL/fP0TkZ/91RtQJ7D7x1L3YX3i9Pmss1mBK8xpyWPMJsbDe/GGnZxZYVsKCeu/Hh7nlncwdUePSnPOmFzmfxDC4GgYV88ZBo+YzFydc+ukY0M+T7HoZc9bbZLrHnsbWsA0OqTMm9plEq58wrcxpJMYjxP1u1LB2pJv27KT79ZtRyly8/Uf8qa+HDVtnN4zgakBZy9SYZb98ngFqnnrgw+ezOSy7J7ZGyK/GpTnpBQkGDCOPxD179MZAUXfnlWG9KajvJ8j70J7Wg5WWmLQth2NZy7DRcofs+JTlo64HkfgcK3I6I+qs17CV6dbFFHxeI+vDWLTfbCWVyZGWk65eoXFR6gKipG+lCH3VdNUNY34CLVfIbh988txTvr7Xsc93xSBhoitFd77OAmtKmJb32D3uITMIrIveffmcx4C8dSSJFiewEw1tqN8ZoWGo74rfzw5SWnuYLYlX9gaFDFgjTOq75Z9YEfKLngBPfD1Io3AlB6wM02k6+PfR9EIVOSwf2PQT0f60/0ZGnhjidY2PYiL50GbPIDVuYu0x+AJKPx3zfZsP+WN+EVgPxItBpHC5J9WJI1LoKBHRLuHIyIg5P6q4C0PIe8L65dzNPn+J+CDjyAgR7b6DPzJCRLQXODIyYsai32+p7CP1MuZCf+2aiIiIiGgwHBkhIiIiIqKR4MgIERERERGNBDsjREREREQ0EuyMEBERERHRSLAzQkREREREI8HOCBERERERjQQ7I0RERERENBLsjBARERER0Ug8dp0RfcmAsaRb/0qjcEX+d4DZEgyjhB5bDSdTQNUwUJpVVwTTlwwYVwpIqyseA+5yerzP1ddu1rlMAVWjikJGXSGJss2IqHXhidDjfpBeqD5Z1wMRET2x9l1nJL1QhWEY0t/+bED501EyDFQXvE0IPZsC1isj+SXzQRv6+pJcDtbfAPt5EulL/vWAqKdMAbmpTdTOl9FQ1w0orMOXXqh2182WvNe89FddSPvfFzz3a3EvVNcHdb4csyUrLWkUruxSZ30oaRSuiHNy5RMREe2afdUZ0ZcM5BNtVHQduvVXWd9UN+tDA+XzOvRFQ12xJ/SlLOIbNcxdUpoQsyVkDzexrC7vwVjUoUsNkkGflhqLFTSRQm6QxvFGzSkLXRf7yQ+Qhl7Uc90rg+ZhXzIFTE+aWOuzvOkJUi9jTtd9H07o2RQ2V4t4NHctxUqxe71fbqKDDpqXu/fjuUsNca069+cOsN2U7tlzKNe7uzNXu9vqqybiM+EdEj0Zh9kygNkzSGELt9UNHrXMaSTQxs16GqcTQLM2klIhInqsDd0ZyeVyuHr1Kq5evYpcLqeu7oOO5GQHzRV3g7Rxqej6ctu/rPT7fVmtFB9JQztYA+W6CW3qzJBPGhsorzTRGZ/ACXUVOdKnEtA2WqNpTNIBl8btmn8n5cBbKaK2AcSTQXchcQ/dMkWnpNO+OcJ7ppA+lQDaN9FwOiXqFkRENKwPnTx58m/UhVHlcjm88MILrmU3btzA8vKya1k0OkpGFrH1indkQZYpoDqfgmb/e7uJitTQ15cMZFGzRkPSKFzJI9F271NfMpCdtP9lorYKZGeAmt59GuneRjzhC20gzJZgZLZcaYH1JD4/5aRW2o843/iGndbuMjsPuudyG4UreaTGnd0o523ty1nZQfOy+wmlvQ3s41v5uBlyXu68tMyWYCh5FXyONiV9GzXUkHXtWz2W/e8asshOAh2pXrjLJvhc3fmxDMyG5aGbek7y8cPpKBnT2FLStBt1LnB9poDqfALty2uYmO+etyvNzjZKPrjqn80v/5Q8jngdesuvd13wJ65lufxc+TNbgjHTTbGaHvlesHYk381Hz3Yq9bhKXqj5oOanmi57vVMecr6qxwqoA6ihcm9aqp+mqx75Ua8vWXqhivyRNe863zS6pReqYjTbk4fK/cYSvH043zT6pC/wGnG2Dyoru37U0E5kkRr35j0REe2NoUZGPvOZz6iLfJdFY6C4akKbyofG5erZCaypYUMh26v0JQPZw1JYweUtTMuNBYgvreS9ihJeED53xe9JnvPFK4U9xJwwBQPFy010Jqed/QaGeVnhZq6QCPvLPFNA1erAdNO7idS8Gg5xG1vbQOzpYQKUdJRm4uisX3d3RALP0fqMkr7KvWlXgyHQZBbJVjc8BHKjynWuUtn45IcI9QvJQw8dZ46sdY9xuQlM5UPDSxyzScS33U9Qd6POpReq7n2smu7PQ0NqPomWtF6byil1VkNqPges2NdPDeZk1n29+eSfX32KdB16ym/QuqCjZOSRui+Xe/f80wtVGDMxVzhR7X4KeZ8XBGhTeSdNul6DOR4evqgvuY/rCht1GsNSPhyW8jNTQNWVrhrUUuvyOUfrWvLMPZrMIofl7jG348iqeb9PnTiiAffvBlx3wwm9RnqVlUWbmnauD3ZEiIgejaE6I7tupdhtIBn+Ey6NRfkJYAM32x3g8LFocwAyBUyroWD1MubUhl29jKLcIVhpwYSGCaX92JXGscPA5nvyV6yOM1PwHGtNDlOol7G2oSGV1cW8kkkTNfXpZA96NgVN7cD4hkM0cPc+oB2xAqxCYtZd7LIwDBiGaOx2j9X7HNML04hvu+fLNC7Nobbh/DPYdhPX5fRZczFcebRyHc1tDYlTogb45Uf/oX4GivIx6jfRjtSRS6OQicOsS/mxS3XO04hbKXrKzpTnGSj50t1GfsotHgBgMuk02v3yz68+RboOlfIbtC7Yn6u4yt0+fx1npjTlvABjsQYTcSTVDuRGTco3A9fXO9ASpwPuH+K67tzrzlyQ65J4KcWydFwRDunkZ3wCGjZxV87vgOvb9xzrZSz7pc+Vh8oxw7iu5e6fPAK4l9ILVWSDQll3Qdg10rOsbBtrfd4riIhoWEN1Rr73ve+pi3yX9cdA0X6KOJn1ff2pLr3Npa8v0vgENOWpdaCMePWmOI4cshJR5hhi0JCad3/xq0+BjUXrPGfi7sZkJKKxZLa8nzJapqdxePteR/pXRM4EdtG4cz2BjXCOJ45onhGjyNQnqPEJaIgj62pMyWEtwfnRP/ltQEp4V5DMaSTGTbTkTsIu1Tmj1kRnMhvydjkRax/OZxtzCx3EcCyD0Pzzq089r0Ol/AatC6GfyxxDDEqeAwAMtDa8HUi5Y9GbPdcq73MfEnkl1kn1UR7xWrkuRi0C3rAnCzrHxjtt7xwt9bqIyvUyiu5fZX2A+0JE8Rm5jmyipkxw303B10iEsrL0Vz+IiGg3DNUZWV5exo0bN/Dw4UM8fPhwiPkifgwUrRCEafuL3GqsyWE6e/FFqi8ZMFxD+mHhFWFM1Hy+/N2x2SJ8av/zhpUJUc5xF7ne3NP984a2DS69UIVhxbuL/VfQjFBG4ulrN4StHz3rnDWSZYdMeRtcj9Ajug73BevtUpX1mNUJdndKXG+Lcv7shwrW2/z0GjathnCvTsnjxp0//T5s6VOPayS8rIiIaFSG6ozA6pCcO3cO586d28WOiM0dWpQ+lYCmhjL0azyB00ojLv10TPqXjuSkGs4ygPpdbPqFiSjSCzkRJ75qIj6jPn3tReSP39tp9GTc8wT1xBGfp9f9sMPKZq1X40Y8R0+YifWksm/mFjo+5dcVnB/RpXE6oaHT92/CiDcBtd/x6RT5pHngOrdStDpH3hCsQYhryh65Cc4/uT4Ncx0OUhdu3/MJVbIF1kGRp+7QycE1Ls05o4PiWMF55SVGeyt+IVeWoHMUeb0PXnG7H6hhgPGJ7mR0meca6aesiIjoURu6M7J7dJTUOSKZAqYnu2Ejjfc2ATlkIVNAzi88JIgVR+80puG3D+9Eb32pV5iW+LJzh4SIMBG1g5FeKHWf1s2WkJ+y3l1vh3SoeSDxnL8UmuB64jpb8onNVuLfrafbkSZlS4xFedJv73M0ak10lEnC6YVctLAnVf0m2mr5AdCXusf3yw85PX556KbMrYmY3vTCNOJ+8ea7VOfkcxychtS8tB8rHXJ4kF/+qfXJk4ee8/E3aF1oXFqDOa5MkJ8tOS+CuL7e8bxgQl/KIq7OOepbGoWl4N+kMVomMJl1X0OZAkr2+Tlp7M33HK18dc1BekKJcLUUzsgvxlDCrMKukZ5lRUREI7OPOiM+EyytsBXnCfVKEbUNac7ALLDWV3hIA+Xz1pt/pH0suyYTi9/SgBRfnGz1DtPye7JpLOru9BoG8kdaosGaKaA6E0fHmVRp/YaH2hCUSTHozg/31cuYs9721I2Fhk9s9glMjO/Gk2Jr0q/1pqbQc4R/+nJY7jlp2Z9P+RkGpu9JoVE+x8sntrpzNvzyUOHM43HSu9YjTEuMpvjNtfBN80B1Ts5j7+uqo+mgubqFaXs/8ylAfWWxT/556tOg16HPvqPVBQNF+cUWVprseSKNS3OorMM1dymLWsjb0vpwWK5ryqtqV4rOD/k56ZqfQEvKT9ecidBX2vqco3r/e5JZk/m7+ZlE63IT7loXco1EKCsiIhqNoX5nhCQ+77zfV3x+H4R2ScBvzBARERFRuP01MnKQya/p3XfEK2fl3weh3WLlrc+bkIiIiIgoHEdGdlXEX5F/xJwf3eOTeyIiIiLaR9gZISIiIiKikWCYFhERERERjQQ7I0RERERENBLsjBARERER0UiwM0JERERERCPBzggREREREY0EOyNERERERDQS7IwQEREREdFIsDNCREREREQjwc4IERERERGNxGPXGdGXDBhLuvWvNApX5H8HmC3BMErosRU9Jtx15GDQlwwYVwpIqysesf2SDlJkCqgaBkqz6ophiXtodYEl3suBu6/0/b0XtS5Y37vGfs+PqOfTw55de0RPjn3XGUkvVMVNzPmropBRt9qvdJSMXbi57bJBG5D6klwO9l8/X15ERPQk0ZfySN2vQdd16IuGupqIyGNfdUb0JQP5RBsVXRc3Ml1HZX1T3awPDZTPP7obor6URXyjhrlLDXXVSBmLFTSRQm6QTtKG9aXi/BXxaHKTZMaiDv18GVFqVnqhOlDnM4p+0kGPUL2MOV1HcUVdQfvXLj2Z31fSOHYY6Ny7ra54fPHaIxra0J2RXC6Hq1ev4urVq8jlcurqPuhITnbQXHE3dBqXiijXpQX7lpX+2n5sqjdQrpvQps5wVIOIiIiI9o0PnTx58m/UhVHlcjm88MILrmU3btzA8vKya1k0OkpGFrH1SvjIQqaA6nwKmv3v7SYq0pNafclAFjVrNCSNwpU8Em33PvUlA9lJ+18maqtAdgaoSU/93dsA5mqPJx+zJRiZLVdaYD2lzk85qXXvJ1NAdT6B9mobiZkUNJio6UXAOocasshOAh0pT9T9YcM+V8tsCcYMrHOKS/kj8hf28a183Aw5L3de+hskPc37KaRc+xXllLovL9NRMqaxdXlOdEYjlrs3z8R5x+3PbVjb9Hlechn48jlPO33qvrx1qXcaPWXhmx83cfpKHqlxe6GST+pnXGVlXys1tBNZpMb90hk1HWU0pGtvGTnp/EUdD855Qc0zv7TK56mm1U5n5d509GN7rkd0PzNbgjFjl5DffpQyDKif4elRz6uDpl3/e92T7LRL23vKRr02/Sif6ayL+hB+D3WnM0joZwKunxOB17WaV8F1wPtZiX1cpTzTC1UxSh84Ctj7mvVsI5e3WjbqPcZV37z1CZ789J6/Ksr3niddPtedWhcc6mddaVLzQq0zAfcfc8Br0vf7WPkO9Dkf9b7jrjM90uhzPmH1k4i6hhoZ+cxnPqMu8l0WjYHiqgltKh866U3PTmDNCRkS4Uf5kO1V+pKB7OFmNxTs8ham5Zs+xE01ea/SDU1aNRGfCZ+7oifj6LRvejsictjZ5SZiM+pENw2pDLCshkBNZpFsic/ZN0N9yUB+ahM1+fwPZ31CcuLIJltiG+dmfBtb20Ds6d0LCRg0PeWWCUwmu6M0mdNIjMO9bDaJODZx126IRSl3T551O7h2WVbuTbu+wP3pOHNkrVv+l5vAVD7CBEVvvveuA4OkUUfJ6kg6+XEfTlhiZb0jGi9y+TuNVaWslDzUpqaBFbFN7y/OoHR0aVN55LDsnFttI45sj3lH3npVg9ldi5IhxaRLeeoJd5nMSseuoLkdR1atMx7y9Wh9xjBEwyZwP91GjnOe91PIq9dBj/S4Yu3VENV+70kRy9tFekBhH2ftiGh0yZwOqZOWTaTmQ9IS+TPe6wcIuq6j1wH1Puqy0oKJOJKuazuN0wnNcz/vinbNpheS2HLy36r7dp2olzGnV9DcFg1eOX3phSqMmRia8mfvp5CXrpv0QtX9PbbavUL8RP3e67vOyHzOyXnwpeSXKH/1uzDo/jPINTmIaPd9/zTK+qifRAQM2xnZdStF0fCYzAa+icNYlJ9gNXCz3QEOH4sWH58pYFoNBauXMafeyOtlFOUvrpUWTGiYUO7dXSJOdvM9+atLx5kpeI61tgHEk+7zMus+T9+2m7gu3+jstF92n395pYnOeAKnXV/qfuFiDdy9D2hHToh/Ro1ztcvC/rPLZJj0rLRgIoZj1jbpUwloG6Z72dMxYKPl7DtSuSt5ll6YRny7iWWpLBuX5lDb6G7jz0BRfoJcv4l2pI6cmu+968BAacwcQwwdbDnVtoHyok8dkujZFLC+LD25E6F7rg4gAGys9XzC7YiSDmUOlbFY82n8SXzrVbc87PyquMqnjOX1DrTEaU996OZrwPl6yPcH6zN+y6T9pBemEd+oua4lo+ZzHYSmxxtr7wpR7fOeFLm8JXo2BU09j0XRuHRkCpieNFGT83/lOprbGhKnAq6PyJ9Rrx9LwHUdtQ647qMeBq6vd9z35MxpJMZNrPl1Xvq4ZtUQY6NlAuMTsO7AAXScmdJgrrpHmtTr5sQRDbh/t3utrRSD7+URv/cGqTNR2PXK1RlcKaLm813of//xuf78lg2Zzsj3fd80dvVVP4kIGLYz8r3vfU9d5LusPwaKui51SrxPUXXpLU+uUI5e4hPQttu4GXIjcWTE6/rEceTh5YgyxxCDhtS8+21U6tMzuBpzEvmLBiFpr99Ee1ttlHRHFGS373XURb2pE9jtG+xQ6bmNLakhcuKIBrNVRGvDXiaeTJotd8OkZ7kreXbiSNjTzV50lJxyU0KfAinnGaEODJTGehlrG9Z+fTrsXqKhq03l3R1L9cko+px4GiEd3v31GKELqleWoPxqvNNGR23oqdfQwNT663biiObttCvhKkCv9NjzuvK+9zygn3tS9PLuEp9RrzmP+AQ0WE+mo14fkT8TkM8Rr+tB60DjnTY6cufyVAKa9CBEFXR8P663Q4bmvyVzDDGYaHk6FgZaG93rxqg10ZnMRnvbZI9rShikzkQRXK+Mlul5oOS9XwQJqCtD633f75XGoPrhWz+JCBi2M7K8vIwbN27g4cOHePjw4RDzRfwYKFrDr9P20Kb1ZSwP91fWB2hg96AvGTBcw9VymEg/TCnUxKdB/8QSIxviKZGO5KT48jVaplhmPZl0vpAfUbnbRANCDrtRng73ZW/qgLFopetw8CiiypTCb7p/6tyH/gySjseRHZbi/us9j8JlpWjV7ZjVcO92Sga5J+1FeQPW/AXPfgPCoGyDfOZRqd9Ee9sedUjjdAL+IzR9EY1aV4imOgI/DGtk2w53itQpiWDP6swBsLv3fSLqx1CdEVgdknPnzuHcuXO72BGxuUOL0qcS0NThz36poROwQoIcOpKT8AyT961+F5th4Sj9Mre8YR+wQwoCRlcUJ454ntUObsj0OE+JZpOI208hV1owxydwIj7hejI5TLl7h8XFk7pgVrz4eiU47CGqiHWg/zTarFdXr/YKURDXkSckYtdETUe3frTfCWiEBtUry+17/qEOoo5sIfyZ5d4IStOgGpfmrM6GXXf6vScNXt7ez5zAhPx0uEf5+BrkMyGC8nvwOiBGpeJJXdRP9BpFiHDNziYRh4la4AT4AIH3DFEH3KHAdge24hPypvDJf/f33uB1JlzwfvVkPNLI1cDUUYjMMchn7LZ79/3dr59Ej7+hOyO7R0dJfaqaKWB6sjvE23hv032DyRSQ8wvXCWLFKadmpYmlnn14w0j0pbCQCDg3XHfoiRhWj8+4Qy7SC6XBnmA5ITHy/tIozKag9YhhFZSYdGu0QZ2cF9mw6bGeRmZn4tIQ/m1sWctcsfMDlruI23f/vkp6Iec79N6lzK2J9JkgvevAQGnMFFAKmQjpyS87JGIy6y7vHvsB7KeFwWFDvT6vuSaAWvUjLGTEt1517w2NS2swx5WXF1j1wXfu1SMgOtbq7/j43M9CpVFYUl/8YOv/ntR/edtx9+7PeI5jhWG67qEA9KWAOoIBPxNiT+rASgvmZBKFUwnAJ8RGFumaNbfQkebAATpKnpAn773GmcOivJxAX8oiLs1/6SvvIn3vDVJnorFDylyTt2dLyO7lq/CtFxM4URX2vUfZrMtbFp4yjWhP6ifRY24fdUZ8JktbYQnOk4qVovU2Hmv9LLDWV7hOA+Xz1puYpH0su4bPxSRsSLGzyVbvkAi/pyHGov32oO455Y+0ejfUA3j3J15LGC3kRzzh9DxZG8Jw6bEmobvio+1lypPzQcu9Xsac9UYUO/9zWPZMNFUZi9JLFAwDOawNPFzvzSOlDgyYxpgc262+nnPleveNM/bbe1aK1huYuukw5ifQGjJMJjQdEK+G3cp060cK3leUqrx5lgWcDquBovySC8PnPvGo+ZShYUxjq9+G1mHpvuR6BekA96RBytvnM8mWGqricw81DEzfux4SyjPIZ8LsRR0w0NqIIzW1GThx3eFT3p5rtl7G8jqk+WJJtHzCtLpzP7pvWmpcmkPF9VkrRNV13Xjvu8Ehbz757/ne8y//nnUmCp/8EveKqCN9g5DezmkYMIwcsBJ+zezefX8v6ifR422o3xkhid97/veTgPfp0/7kvAo1Usfu0dGXDEzfC2v42Lzv8Kc9lCmgOj+BNV7fA9uv1xwR0eNuf42MHGR2eEk28uD5I5RGIRNHZ33QJ5H0aFlzBHzeQDNaUeey0CMXnwgJQaHe9us1R0T0+GNnZBfZw7z77YeN9CURHiO/F5/2iUwBVdfcgjQKV9zx4fvG7BmkQn5/gUaFDxuGZf82xL675oiIngAM0yIaKfFrzq6prdu951U8SumFqvW7Lh00I4chMkxr70l1Z4PhRQOxfnVeg8kQViKiEWFnhIiIiIiIRoJhWkRERERENBLsjBARERER0UiwM0JERERERCPBzggREREREY0EOyNERERERDQS7IwQEREREdFIsDNCREREREQjwc7IyKVRuGLAcP0Kd4hMAVXDQGlWXfGkUfNN/Lu6kFa2k8yWYBhVFDLqit2RXqjCMEpwleRsyb0sUhoinAv1Ty2Lx4y+ZMC4UsCu1ZqI9xp9qY/71+NAzZdMAdWe1/Qw1HvdY2q2BMMwItwfd0HofVhHKUK9jyz0WHtkFMekfepg3D/2VWdENOYM5e/xvqDSCzmk7h/gX0+2vpjVcnvyGtI6zkwBzcv8FWcior5kCqjOxNC8rEPX51Cuqxs8OvpSFrH1Coor6hraV3zaHr7tDqeT22O7Hg8VnsT26aO0r36BPb1QRT7RRuV8GQ115YGWRuFKHol2BXOX5DPTUTKSaOkHuAGbKaA6n0D78mi/QILz+NHQlwxM3/M59mwJxgxQ66uMR3suj62ByoJ60ZcMZHGAH6gMa9/cA7Hn9449+47eL9dmpoDqLLC82+e3r+koGVlgVd+DDtge1cfZEoyZGJryNZcpoHTqJorOccSxU+Md93b2cjTd9bjHdbxndX9X7WVZ7q2hR0ZyuRyuXr2Kq1evIpfLqaspTOY2ro/65ku7wljUd/dmS0REj9jNJ6wjcjDpyTg668vuTkO9LHVErKiTcRM1z0hbA+XzFTSRQn6fhy49SYYaGcnlcnjhhRdcy27cuIHl5WXXsqh69jztpyerQHYmDmw3UTl/E6ev5JFo19BOZJEaB0ynV2j3jLu76K4T7Kd6NWSRnQQ6690evL5kIDtpbxnQu3b2ra63ZAqozqegSYvsY6hPFJ1/t5IwZuL21p7ev7f3rqZFOc/ZkrQ/WPnmzmP3uXY/n16oIj+1GfzEyjc9PutX20jM2Plgiv250mUtkz4qjt3NOblsvE9c1H/7UJ6+2flduTctHUdKR8DTOnc9FU8iurmrnIe6D/Xf8NaRzrqoy+q5qPmBjT6fRjvHbiEppdmdr970eOpL2PqAdSc8T8+tOusKUdRRMqaxJdWlnufse08QaXHXadPaxp33QfXeq1u/1o7ku59R8wbRrjdfoZ/rcY17Rih2Ib2+17ZS3zese6cyMqKWmyutzn7XMDEfUg8jCL1Hq3UD3XODnD6fPAmtF2q+qP8OEJhW65qBfP7Wss1VHcUVn3ubWmYbNei1Y4HfNRi6TLz1L/S6V6/TEGpeu+uf917iriHq/dddB9RzdtLldx9W81Q9Xs88CqAey/735S1MS+enXs+ec5PSI84LPudqfVerx/SUn5VPceWclXQE1llEOA+1/Pqpjz3oSwayh/3qg03kXSysbNQ86nEdh7VPe5aHWOK5huRzDs0PJ23LwKy0D/k6U+uvsw+f+0ePtCBK+2iXDTUy8pnPfEZd5Ltsd8WRTbag6zp0qVJoU9PAig5dtzNUR8mwGju6WK5fbiI24xMvOJlFsiW2cXVEIH12dROp+W58oL7k3ndlfdO9T1u9jDm9gua2uBDlY/iazMKwz0/XUVmH67hePue5ajpr0wtVazjTWqfrqN1PIS9N5E0vVMWF7fP53aEhlQGWdR26XkFzO46sYcDIbFnHtJa5nlLoOHNkzVV2mMrv3qRC22QWOSxbx1HSsdKCiTiSrmPqODOlwazbXwpJbMl5uxFHtp9JxFKjw97H2hHRqZbpS4Z1Y7O3q6B5ODvAhOU4skYSLSVf5WtCz05gTT6O6wmSjpIrvRU07zufDFxntExgMtmdPJ45jcQ43Mtmk4hjE3etm3n0c/beE5wvK+c8tzCt3KgHqffaVN65V+h6DeZ4Cjkp76Jcb368n1PyVb3Gg+5liv7TKx9X1f2Ct9NRuTftbkjKX9pKWt3XrobUvFQPV01oU7mQ+5xXr3u0INUN6/zzhoG8c2/x5gkyBSTvdc9RXzURn1H325/QtNbLmFs1oU2dsepIGoVZ0TnxbZxl5PkV1jkg/Ltm+DJpoHxeR2W9IxrFuvT96zSUpDp0OBt5wqyxaF97prjW7Ws49D5kHVetj9L3sPf+YeWTD+91EHTdhuVRP+LIztrfiSJf4zPysbrhNq70WPe+xqU51DY0pLLWJzIF5ELmLAa2V1aKTr6Y1rFcHZGgOusIOY+h62MwY9G+ltXysWSOIYYO2u+EtLXMLXQ83++D6V0ePvdwpZ3WOz80pOZzTjtX12swJ6XrLKQs3XzSEvR9EtY+2mVDdUb2hPVl4UwQ8jQ8OmjWfC63jTVXbza9MI34dhMV+elMvYzl9Q60xGn3PrebuC4XWqaA6UkTNfmzK9fR3NaQOJUGkMaxw0Dn3m1ndeNS0bc33TclzY1Ly9JxvXzPc6XodMjOTGkwV909fWOx5mpknziiAffvdnv7zufFRab37AlrSM2HTerqoLlidxwbKNdN/2VywxQGiq6yu4n2NhB72j8fBrbdxLLTOVTTYaC1AcST0sU3m0QcJlpO/rjL3WiZwPgETnQXhdKzKWgbNddNw1gUN3BHpoDpyY7yRdNAeaWJzngCp/v6IlT243NNGIvu49xsd4DDx8R66ya/5dxHGygv2o2SkHUrLZiI4ZiV1vSpBLQN073s6Riw0XKeUkU/Z+WeYH/WqV/dBp8srN4HcpWVgeuuvIt2vXn5fa6bd77XuE+5+eo7vVKZKex0dK8X+0tY3sp6kYOS92vqdQTAXJXK1nV/jaDnPdombyPO32+ZKx+VcA9RdzVMuPuy0UVJ68p1NLfjmF5Ii/ASuPPZJT4BTeq0e+6VHntbJno2BbhCZtT76GBC70PSvVN+uOfcj33vH0H55HcdBF+3g+SRl/v+1Li05jpWemEacfV7oea+9xm1JjqT0yhk7M6rErbkGKC9EqXOAj3Pw1/0+hjMQNF++GcYg70lsX4XAY+Qg4W0T8PKw/ce7mqnRcsPdx01UFzt/zrzTUvQ90lo+2h3DdUZ+d73vqcu8l3WF/upi/3nGRKTb8Jd8oUGq6HRad/0fKk23mmjozYW5QYJ7Ju9XcntP3lISxSKNpUf7CIIo6YFDdy9D2hH/Ju3QecJ2I3DbsO5SzSy7Ya9uIiyPp2IqDquJ0rR3obiX45uOkq++b+LPPntJvKme/GJWNXrrs5ZWn7LhvL0PZz4kjBbfl+QkvgEtO02bqr5Vb+J9na/jSRvvjfe2/R0oPSlbt13hTnUy1jbsDqf6hOSsHW4jS3pi+zEEQ1mq4jWRreDfzqhdfOir3NWzinos4pB6r16n3GJeL15BH5OCLrGfe9lisHS6y8oHS6ZY4h5Hk4oYTgA4Oq0DqDnPTrE9hZCckXIyG/qkcOABhApraKjjam8CPeQGyYqq+OSDXorkGpPy0Tcw8R3obT/vu6DwQLvQ73unRHvAUDYdeB33Q6SR36892HZiSOaiJKQ81QJeRINSCA1LyZjB3ZeB2mvRKqz6HkeviLXx96MRdHmsDslUUdWAL+HZxGEtU9DyiP03hk5P3zSam6hIz3QiyIoLb7fJz3aR7tpqM7I8vIybty4gYcPH+Lhw4dDzRfZd9RKZ/05T2FWitB1HZX12OA98/2iXsacbg/DGn01zvaKaODLw9TKaMGjUr+J9rb9pEdHclIe+hWdJdfwaoRQn33NaoTJw/OV9Y5rE/EFYIViGO6OR/A68WRTPHnRkZwUX/5GyxTLMqeRGPdrEOyhfVjvHw9WuI365/tUegi97tED0pcMGK6wo+DwnsiipDXyk1oRMqXrNWxanYDenZK9LRM7LMT912tEPUSE+9Djzg5tcv+5H/Q13otWYwZqr0SpswPb3fpoLFohYhlrpKJ+F5tQR3EUnhHG4UUuD4/dzY+DaKjOCKwOyblz53Du3Ll91RG5fc9nyMkOD+n1ZMzc8gkF8SfCmPyHc3eHjuRk8BOgoPME7AvSL11in5vvKTeVlaLV6O9xEe858ZS8ExQz/UiJRnQ8qYsQLflpmxWyVfOM3vVHHYoFTmBCfgIVVB8zp5EY93la0ic9GXfCo8T1oQzh+rIaRL7DxP7rnCcvs0nE7XCslRbM8QmciE9As5dhF87Z57Ppp2PuBbbdqvf9Xm+2wM8JQdd4pHtZmB7H9eNNh3hC7RhgnwMJqh9Ds+63SsjOUCKm1f59i8o6kJpVw5P9iFCVil94hWxPy0SM3HvvYcPpfR/qcdyIeQ6E5U+P63YPBV3zbjpKMzE0L4v5NK55TwEit1f6yb9+Beb3cNwj/Fb4pTMPS5VGIdP93tsdweURWp5D5Ie4TiKOAFqC0jL098mQhu6M7FeNS2tigpMy4S0nTT4OZIWCqF8I+pL9NCGNwlKULwtbeKiVy2TWPZl4Keuao6DyPc/ZkjVcKS5IdfKlvpRFXJon0z0vLzFCEbx+b3jzS7ymz7XRI9O4tAZzMolSMu6uO54hUh2lvsIT7BjMrGt4WZS5xAl/kstBxKVq0lyp9ELVJzxKpUywny0hK3V2PSFb1jXjyBRQCvrSC1uH7ihTdiYuda5vY8ta5gopinjOvqzYZtf1q55Hj3o/mGjXm5ff57r3GN9rPOq9LFT4cVUiZl2dAK9el9Y8K9dkXCC9UOpz1ElHKWykquc9elC3saXMTfNcj/2KkNb0QhXZSRNrlxpOeQc2Lp37ux/vvXP3ysTn/gD75RTue5j7XtCjLH14juNz/dphlvL3pXNOvvcPHSXf+6PfdRDlut074sGNWgfk9KdRuJJFfGMN5bodhhU0kT74mha8dT5KnY1mwPo4W/KZL9zlTYe3cyHm28aR9bRfrAncCOvs9iu8PHzv4VI7rWd+ANbcXGkb65pwh1z5lKXCNy278n0ynJ9SF4yc/bYTaVHPV+f5MlDUgZKRFeE+gDO3IbQhA4hG4nmgcCXvSktnvYI5e5PD7nSqr0VTGbUmpudFWkLPZ6OGtSN5GIaz5x6vUvM7TxM1q541Ls2J11jOGzDmrdUbNejn5T2KeEsnl8LS58uKd7T3D5/XIvbJWKwhKZ1TZ72G5nYWCXXDR8JAa8NAdtJEbVFaXC9j+ZSctyZqqybiM9I2vawUoaMEY8aAYX3OXK2geTjvOldjUQeWDE856U45WXMu6sE1RTBRq08E192VImpJ6TjbTdTWO8hKiYlNBdfPsHVilCmH1NSm1Lm2l8Hz5pPe5xzE5/rdbqKyaiLvKpth671XtOvNy+9znfUKykDANR71XhYu/LiKehlzKKA63y3jznoFtY28k4cIKDds1KD3k1ZrFLIS+BmfMlbv0QNpoLxy2nWO5qp4a83geqR1toS8NYFa1BIDxdUkjJk8SrMN3++VuHS/UO+1ft81u1ImsDr6mbzYj31cn3uYuPatFPUsSx8R7kN+9RHbTVQuif/1O2dz1b8p7XcdRLlu94zfuVmv1gUg3o41bqJmp8/Or/kS9LpPeyG0vdJAuX4Gxow4lljXo872YZD6qCfj6LQrIe0H970bvt8NDZTPN8SbqpRtg/m0ZeTX5wa0T9eO9CoPv3t4t53WKz+EDpqrW5gO/c7yK0tpNbCn3yfDGOp3Rmh3Oa/S27XeOj05dJSMJFphHVf1vepE+1R6oYoclofuHNLosSypP2kUruSAlV0MlfSQf8Ml4Dfi9pMev4HyOHhsw7SIniiZY4jtavwr0eicOOIdKaODiWVJ/TmBCfQ3D6J/Yr6V30sBaDTYGSF6HNTLmOOIGj0mjEU2EB4XLEvqj4HiECHedDCxM0JERERERCPBOSNERERERDQSHBkhIiIiIqKRYGeEiIiIiIhGgp0RIiIiIiIaCXZGiIiIiIhoJNgZISIiIiKikWBnhIiIiIiIRoKdESIiIiIiGgl2RoiIiIiIaCTYGSEiIiIiopFgZ4SIiIiIiEaCnREiIiIiIhoJdkaIiIiIiGgk2BkhIiIiIqKRYGeEiIiIiIhGgp0RIiIiIiIaCXZGiIiIiIhoJNgZISIiIiKikWBnhIiIiIiIRoKdESIiIiIiGgl2RoiIiIiIaCTYGSEiIiIiopFgZ4SIiIiIiEaCnREiIiIiIhoJdkaIiIiIiGgk2BkhIiIiIqKRYGeEiIiIiIhGgp0RIiIiIiIaCXZGaCTSC1UYhgHjSgFpdaUf7Rl87tdfw2u/nkXCWaijZBgwDAOlWXvZIaS/tIjSb76E5zRnwxBpFK6o+9gls6X+zpGIiIjoCePfGbEbUerfchVv/NbLeDEZqZVHtHu+8A/xxVMJJE7pyP2yulKSmUPus88g/qkX8aWXn1PXEhEREdE+4t8ZCTKmIXbyebz0m2W8Os0OCT1C5iYe/ATAQxOt76srJeZdbD4E8JMH+LN/31LXEhEREdE+0qMzYqKm69B1Hbo+h6VvNbG5A+DDh/DcL/wijqubE+2V+ht45Vd06OeKMP5cXSn5gYHiOR36r7yCN9Y66loiIiIi2kd6dEZkHdz6wzK+/a7VwDv2STyvbkJERERERBTRh06ePPk36kLMlmDMxK2RkSKMsHXaM3hR/wfITsURGx8T2/xkBw/MP8E3/6c38X3p4fShn3sJ/+iXTiN+RMPYh8V2nXtN/P6rb+AtZysNz/z9l/HSf5PC8UPd/XXumbj5rd/Fm//2QXeH2jP43LmX8Pc+fRyHPmYte/gA7e9W8Nrv3epuJzn+pa/iq589DmATb194Fd/4gbz2c3ht+YtIjO2g/a/yeO33/Z+spxeqyE9pwHYT37i6hRdefh5xDTD/SEfx9wBAw3O/9Bv4Bz//SRy386RzB80/ehNf/8NbcPZ6OI2XfvWLOP0zMWjWZjvbm2j+y1fxxluwJmhnEQdgrs7hDz5SgH46gZjWzeOV330Tjfv2DgVPPgPYeXAHzf/9TXxDPn6mgOp8Cho6aFa/hj/7Oy/hTOo4tA8D6Gzi1lsVLP1+u7vjKPl9OA39S5/H6eRP49DH7JPq4M67f4BvXKrB3puch5X/+Rb+by//Ap77xCGx0i+v5LRenkO5DiV/dBRXgpYJ2nMvoaCfRiJmhRg+MPHWN2/gp8+9jNS4sn0f9RpIIPvrL+MXpo7j0BiAn3Rwp/kH+MZ7p/HaTFyc4/kyGs72EetHlPwmIiIiOsD6GBkBAA3Zn7GCsx528P+DmFj80rRoIO882MTm9g7w4TEc+pkXkS/qTiiXNl3A7/zqi0jENIz99QPc+Ys7ePDjMWixGGLS/p9fKGPxl54THZGf7GDnodifFkvgxV8t47Uv2HtMQC8W8MVToqHW2byDO5sd7Hz0EI4dsxq1Pu7cuIU7AIAYnvl77kAz7Rf/NuJjAHZMtFb9OyJux/F5qyMCAPgInHN49e8/g+PjYyJdD3YA7ThSv1TA4qz1LijteRR+O48XT8agfWQHD+6auPNgB2PjMcR+WjqERUsuIv9iArGP7GBnB908/u1XXW9qSsyW8DU7nyHyb+cnwNih43julwoozfu91+mjOPFLBXxx6jg++uMdsUiL4Zkv/CO8mrG3iZbf6S/lkJ06jkMfATqbm3jwUMw1Oj6lo7Dgd+wYzvwPOp479nFR1kA3r3559wIBtekCyq+KfAEg8mU8jhfz/xAJqz/gErFeAwnoS0Xop6yOyM4Odn5snW+mW7O7ItaPiPlNREREdJBF7oxox55D9tf/Mb54UrTcOq23UQOAv96C+d0KXvmVHHKvvIpXz+fw2r/eBACMTT6H7CfE5z/7d5/BIQB47228lnsFX/7Kl/HKuTksfesmbtvH+EIBualDAHZwZ83a57kc9F+r4O27OwA0JGZewosA8KkX8dzkGIAdtH9vDnOvfhlffnUOud+o4HpLGj1R/eD38e/+XDR6Y89kpUalhjPPxjEGoPMfG/h2lL7IeAyxv2rizcIcdF08VXfOYWcTb79hpeuVHF576w52MIb4Z3V8UQPw4vN45hDECM3/M4dXCkV8+ZUc5krfxk1TPRAQO6ah+c1XoJ/LIZebw9JbJnYA4FAKL/6i1RuayiM/I87hQevbWDov8i93fgnfbj0AMIZY5vN4ySqTrjEcwi28+Ws6cudymCu9hTti50hNZ8UmUfP7R3fR/NYS5nI5zL36Kl45NwejJTJTSz4Pa29d48cR2/yOk1b9195E8wEAjCGe/gdIqdsPJIWXfzEl6t+DpnOeuV95DUb7r6DZow6yiPVa+0UdL1j5Yr4lzjt3TsfcG29j62PelzxErh9R85uIiIjoAOvRGYkja73Wt1p+Ffqp4xgDsLPZwD+/YgWd/F4ZxW82IDeP2n98C6LZ9nFMxMWynR9bKw8n8PzP2U92O7j1hzUrfEXD559LYAwA7v4JvlaV9nm/gW/8XlP8W/sk/s4MgC17h2P46U9/Fs/Y7b77DXxnNSyEpYNvf+/PRCjM0884jUpoZ5CcHAPwAK0/7gaNhdvE2/+kjLfu2j2X7jl03v02viHF8rTf/FMxIjMWx8/+3wE8tNM/gcTfTYuGMoBO6zuo1Z2POR6sL+ON79o50sGtN7+Om+9BNNqf/SwAIP3znxajTJ1b+IPSd3DLPnznFr7zxtto7wDAcfxtZUQI2MGta2W8ZYV7dVpv4k//Uvz/mPa3xP9EzO/G5ddQlkON0EFt3eo4fUyDtbeunTa++9Vvd9N6/y2Ur90S2x+O4/Sn3JsP5NTz+ORhiHz7l93zBNqolf4Itx66thYi1uvPf7pbZ7/+Zve8O9//Br72PbF1Vx/1I2J+ExERER1kPTojVjiL9dfZNNH8owp+49UK3u4GtuP49Ofw6m+WUCp/HctXl2FcfF4KvRJq37oB8yGAseN4/le/DqP6Bl770vM47jw8/jSOHRb/t7nx76xQKsl6E7e3AWAM2hEAP/jn+IPvi6bioeQXsVg18PWLr+KLn44QwvLdGlr34QrV0r7waRGuc//P8Pa6+oEA23dwy/Vmp+45aFN55XdaxDwGJ/2r/wI3/mIHwBiOT+fx9f+tijd+6yU8f8z7NB3o4PafNpVld9D+z6IQxsb+CwDAiSNWCNJ/uiXNwbF0ruP2e+J/Pz4xqaz8MXa23UtubylDQ5Hz+xBSMy+h8FslfPWNqqgPs8+IBrufhx38QB2F+jd38EMAwMfx8Qll3SASMdHZ27mLW99VV26JsDePKPU6jWPWAr86e+f/VE+sj/oROb+JiIiIDq4enRETN85ZoT7ncph7tYjy78lPi4/jc7/1u/jq3Bfx3KfiOH74p7D1/h2Yf7EpPRm3/LmB4q8v4c21NjY7ALQYEp99GV8tF/C82v7+P7aUBX46ePuNV/DKP6uh+QOr0faJ5/C5L38NJSfuPkgT/2Ldmjnyf/0sjkPD55OiKXhn/V9AbfYPYue+CfMv/P/u/hAA2jC+ksfSm2+jvdkBPqwhdvJFvFwuo+D3Gy5/rS4Ajo/7bAcA9ryPXRUlv9PIv/E1FGZfROpkHD89/lf44d07MO8+ECMdUX3qb0F0r3bZX/84Yjr6qNe2SHW2q3f9iJLfRERERAdbj85ID5/6PH7+pAagg2Z1Drlzc3j1QhHF/+UWfqRuCxEu9Fb1Nbw6p+OVb35f/GbJoRQ+/6VnAPwpfmj1cib+q9PwNLN/NoHj4wCwg8697uIH/9ZA+cIr0OeW8J0/74iwpc/q+Jz0UT/ORPZjz+CzU7+IT0+KkKF/9231+XY/uueA/3wTxa8Uff8qzrBFB7fe+gZee3UO+q+9ie+LDEHqCzk8090pAA2x/1rNkRcx+bT4vwc//DMAwB1rNGPsv/ykd66FNo0TR8X//mhrQ10bWWh+f+FFPBcbA3bu4K1/rCN37hV8+StFFP+165VlbmNjUAc/jiePWWFrm7jrE7LWt3sdK0zsE/jklLLuEwnExpVlkev1BrasBX519sX/izo+2G/96JHfRERERAfccJ2RiY/j4wCAH2Hrjv3M+BBe/JXnPGFaL86+hLQVogIAD77bxB0rVv+jP/VxAB18910xt2DsZ7NYfOmZbuPucBov//enxT63b+HtVQCf+hxe+vvSNp1buP4X1tPpsbHeT9adiezH8bd/+W/jOICdjX8fbeJ6oA6++/8RnZmx5C9gUU4fgEM/9zK+WtTFP17U8ZIzd0bMlWjeteYJfHTMyteu4z9XwOeS9t4O4cUvf96aR/AAf/ZvxE+Sv91oiyf3h5/D3JdfdOahQHsGn3v1F5D4GIAdE9//4wE6XFHyWxsT4Vh//SNs/idrO+0ZvPT8J4PDtD72DH5BSquWfAmvTIvQuZ0//1P8gWvjAf2bP4dpT8j/5ZfxnH0S2jN46ZWf9/54Z+R6fQffN0XvYuxnn8dv/EJ3xOLQZwv4/KfU7kkf9SNKfhMREREdcP3/zojsEzpKv50Vr8P9yY6YpP6RMeCuia3JOGLSb0LoSwayk+J3NH64/VH8dOwQxsYA/GQTjd99FZV1iNeZvl5E9mespqu1zzHn9yo20fhmEZW1Tvd3J3Z28GDzh/jx+E87vwex8x+/jfz/6zvBITW2zy6i+iW7wdfBrW/OYckzp8DL9RsZrt+PgHhzU/lVPH/MTvMOdv5a5MvYGICNGvRFo5vHDzvYfH8LHz3a/V2OzXoZr15uun4zY2dnB2NjY+L1t/a+ADxY/wYKl962zlXD86+W8fJzVtPeLpOPjlm/N9JB+1+V8Zr92yG+v90hOOdopzdKfjv7cx/7R395Bz81eRyaVJ+c/e/sYGdsDGOesjZR+23p19Z90+r3myJ+y4DU/BvdV+3K+bJtwvxwHHH5d0b6qNfQPofX/ukXRUcPAB7uYAdjGPvYDsy/2EL8Z2JKPYlYP6Lkt3VIIiIiooNquJGRHxj46koDdx6I370Y+9gYfvSXb6FSankaSrf/v3fw4KH4HY3jxw5h7CM7ePCD7+Pbv1O0OiKw5lH8BirfbTu/6zD2sTHgJx1s/se38eZXrY4IAJh/hvZmBzsfGcOhY8cRGx/DzvYm2t+t4DeiNtSciewA7rdQi9AR6a2Jb7xWxrffuWP9xoY4hzFY57BiPes3xe+K7HxUQ+wTx3HoY2PYeXAH3//WEoqXvbNW7vxJGd/5D5v48UetRuvOA5jfreA3nY4IrHkGBSx96/vityus/BvDDh78oInaPyt0OyL9ipLf9a/ja394S8wJ+vAYxj76Y/ywaeB3a+pbpSQPb+Gff7OBO9tWWQPo3G3i219d6nZEdkHzchFvvGXNV/rwGMY+CvzIfAuV//E6PLM9+qjX6HwHr/2Oge9b8zrwsTGM/fUdNL9VxtJ/9GzdR/2IkN9EREREB5z/yMgTI4VX/98FPHcY2Py3S3j1n+23V6b6P+UnIiIiInocDDcyctBlXkDyMADcwb//g/3WESEiIiIierw9uZ0R7Tm8/P8Q80U6rbfx+yEvfCIiIiIiot335HVGMgV8fXkZy1dexfNPjwEP27j+Ro0x+EREREREj9iT1xnZ2RGThj8sJkobv/MavsOeCBERERHRI/eET2AnIiIiIqJRefJGRoiIiIiIaF9gZ4SIiIiIiEaCnREiIiIiIhoJdkaIiIiIiGgk2BkhIiIiIqKRYGeEiIiIiIhGgp0RIiIiIiIaCXZGiIiIiIhoJNgZISIiIiKikWBnhIiIiIiIRoKdESIiIiIiGgl2RoiIiIiIaCTYGSEiIiIiopFgZ4SIiIiIiEaCnREiIiIiIhoJdkaIiIiIiGgk2BkhIiIiIqKRYGeEiIiIiIhGgp0RIiIiIiIaCXZGiIiIiIhoJNgZISIiIiKikWBnhIiIiIiIRoKdESIiIiIiGoknqDOSRuGKAWNJV1c8YvslHUREREREo/UEdUaIiIiIiGg/+dDJkyf/Rl1IaRSu5JFoVzB3qaGuJCIiIiKiXTD0yEgul8PVq1dx9epV5HI5dTUREREREZGvoUZGcrkcXnjhBdeyGzduYHl52bUsKn3JQBY11JBFdhLorHdHJvQlA9lJe8sOmpfnUK5LH84UUJ1PQbO3WK+hnchKoxs+ox2zJRgz8e4+NmrQa8dc+wHc6UgvVJGf6q41V3UUV6x/ZAqozifQXm0jMZOCBhM1vQjD2RrR07FodPd3eRmYzSM1rqwnIiIiIjrAhhoZ+cxnPqMu8l3Wl8kski0duq67OyKoQdfFcn11E6n5KgoZ6zNWR2Rz1Vqv61g7ku023v1kCqjOxNC8bH+mBhMA6mXM6RU0t0UnRE5HeqGKfKKNip2Oy03EZgyUZuUda0hlgGVdh+7piPgISodDQ2o+B6xI6yeznABPRERERAfeUJ2RPbHdxHV7pAGisT49aaImjwSsXEdzW0PiVBoAoGdT0DZq3REKAMai6FAEik9AwybuOqMrBoqhow06zkwBzZUynFkk9TLWNoB40t0xMOvSNr1ESIe5Ko8CGSiumsBkEuyOEBEREdFBNlRn5Hvf+566yHdZX+7fdTfk4xPQEEfWMGA4f1LIEtI4dhgwW2EdCR8r19HcFvutLohOTajMMcSgITUvp0MOHbN1sOUe2gjXMx0++zO30EEMx+yRISIiIiKiA2iozsjy8jJu3LiBhw8f4uHDh0PNFwm13eyGRkl/w73pqoHyeRH2tDmVhxHYGZCZqPmkY7j5G4Okg4iIiIjo4BuqMwKrQ3Lu3DmcO3dubzoi5hY64wmc7jEKoIZKAScwETZnxGGgqOuorHegJU4jsBtQv4tNxJF0zQ/ZTRHTASB9KgFtu42b8gR+IiIiIqIDZujOyJ6r30R7W0NqtuBqoOtLJWvORAPluglMZl0TyfWlLKT3U3nNlpSJ57IG7t4HtCMnpGUGWhtAfMY+rpBeKHUn0gfQlwwYV9zpd4SmA9YEdumYmQJyUxo67ZvR56UQEREREe1D+78zggbK5ytoIoW8NFdj+t717puqVorQV03EZ7rrk60eE9gB1/b5RBuV892J50atic5k1hU2ZSzqqG2456/kj7TcrxgeQFg6gA6aq1uYto85nwKkVw0TERERER1UQ/3OyP7m83se+4JI10Rd+n2SIM7vjCi/qUJERERE9Bg4ACMjA8qcRmK8g/Y7+6kjgj7mshARERERPd4ej87IbEl5A5WO0nwK2sbavhtRSC9MI67+lgoRERER0RPo8eiMmFuA9Vpc8ZdFfKM25Ct3d5e+ZM0JmdpEzTUnhIiIiIjoyfQYzxkhIiIiIqL97PEYGSEiIiIiogOHnREiIiIiIhoJdkaIiIiIiGgk2BkhIiIiIqKRYGeEiIiIiIhGgp0RIiIiIiIaCXZGiIiIiIhoJNgZoXCZAqpGFYWMukKRKaBq/ehkaVZduY9EPZ9eZkswdmM/+1oahSsGjCVdXUGj8kTUOyIiepLwRw8BpBeqyE9p6KxXMHcp6LfRdZSMLOLbTVSepF9QzxRQnU+gfXkO5bq60ibyBqs6iivqun0m0vlEMFuCMRNDc9j97GPphSryR9agLxrqqgis60VZagbUEfsalEXftiPKAQVU51Nw70WyURvwXHrTlwxM3wu7f+ySJ6DeERHRk+XAjozE43GcPXsWZ8+eRTyuNnkGsN0BEqeRVpfbZpOehtWjoaO070cbjiGGDrZMdcVjbKUIXX+cG4Q6zkxtojZk491c1aHr1t+qifiMWpdF/c4n2qjY2+k69MtNxGa8ozL6knfbyvqmWFkvY85ZXoOpHn/IcwmUKWB60sTaXndE0G+9OwD3DiIieuIdyM7I2bNnceHCBTz11FN46qmncOHCBZw9e1bdrH/jKZzx/eJOo5CJw9x4klrb9ETL3MZ1vYhdbb6vFFHbAOLJbgdDXwoYbayXMafXYE5mpca0juRkB80V97aNS8WIjfO9kT6VgLbR2t28IiIiekIcuDCteDyOCxcu4Ctf+Qref/99AMDRo0fx+uuv4+LFizDN/jsM6YUq8ok2au0Esn5hKZkCqvMTWFsFspmtbsNptgRD/jcQGLKkLxnITtr/ssJKnAZUGoUreaTGlfXxEowZ93iMCF0R2yfaNbQTWaTGuyEt7uMEh7rI1LAX12d6hDWpnwVM1OxG7KySfrXRae97tY3ETAqa/dnZEowZoLYKZO3PW5+FfDxlf75hRWr61X97yibg/IPS6Gqwq6FJajkrfPfRrY+eBrpDOY6SD/qSgSxqqNyblspGLZfw456w9tHNS/XcpP358r8OXOfmUxYqd16IfcZCwylt/scPotbj8JBNmY6SMY0ttX6p9QX2OimMzCdszF0XTesakMrKU3b93jvE/4fej9TrT71uiYiIdtGBGxl59tlnUa/XnY4IALz//vuo1+t49tlnXdv26/alNZiT057JoXo2BaxfD2l4hbMbh91wlU2k5ruTUPWlPFL3u+udsJOVoifcRG5YaVPTwIq0PFNA8l5FCYsJn+zqNPaU8JiooR2NS3PQLzfRQQfNyzp0q5GUXqhase3dMJna/RTyRgnuwBsNqQywrHc/K8SRTba6ITfjKeQNQ3Q2pGW5hcDAumgi5VlQGiWZAqpWQ9ldziF5udKCiTiSrvVpnE5o6LRvBjT+uo1sV75eKbhDDCezyGHZ2qaC5nYcWTvkyfe4Os5MaTDr/o3O9EISW3JZbsSRVY8ZwYkjGnD/rjhGfAIaNnE3oCMCAI33NoHxCZwAABgorprQpvKe8K3h6Djj1CtxDWAqH1xustkk4ttt3HSdg099cTpedh5W0DycdZ2HvmQge7gpXYtbmFY6FKpB7h297keCdP2xI0JERHvowHVG9paB1oaGxCm5iaUjOUw8uBVP7oq9X7mO5rZ9nDSOHQY69247qyOHnWysuberl1GU07nSggkNE4HtGR1npuAOe6mXsaaE0vTPatiuup94G4s1n0YwAhrAcp4ZuL7e8V2mhc3ziSJinvmnsUvPpqBt1NxP033CktzEObjWZ04jMR5c39IL04hv1FydUqPWRGc8gdNyY3K7iWVnHw2U6yYwmbQ6ggZaarpmk4jDRCtgFEGtk0bLlDoJ0aQXqshOdtCsSdfC9ha6Nd+HuYWO/G+7kT2ZhWF455QMxkBRvj7rN9HeBmJP96pZVvimT91Ql4kHGstSHiplkilgWg1Bq5cxtxo20jvAvaPn/cimlBMREdEeOXCdkXfffReZTAZHjx51lh09ehSZTAbvvvuua9tBGLUmMHXGeXovGn9DxIPHJ6Ahjqz12lvxJ4dViEaJNpWH4Rk1CCc3QhzSK3YNn7cZuWSOIQYNqXk5be6QpYFkjiHm27AVjWB3I6+Pie+9Gq6D6plnvdIoGoVmy1tLjJYJHD4W2GFqvNNGx+kk9J5/cOKIBtgNcfvP7w1S9uhDAKPWdB1XT8bR6TH6l16odo/Z44m9LT7TTWd+ahM1dfJ1rw5NfMJ7bjBQ1HWpU9LfdeNPTPb2Xp8hrI6jt56r9UXUD3GNS+Um52F8AppnhKWXAe4dPe9HtvARKyIiot1y4DojpmmiVqvh9ddfd8IMXn/9ddRqtYHmi3jUy1jbsJ/ep3E6geGfEG5LoRfSn/MUfaVohVjErEZCxIaFQl8yYLhCQUSYRjgTNZ+0qbHsj6vB8mwX1W+ivd1ffevIoWDOX/C8C1+u44qJ4e13grovPm+8Cn1i3+V6m5Ua4mZuoYMYjoWFET4dC+mEGihaIWjTQ4TriU6WHPpWQXNb3cqr3/BNd14E5Em/Brl39LofERERPUIHrjMCANeuXcPFixfxwQcf4IMPPsDFixdx7do1dbOBGbUmYpkC0rNnkLqvhEKp1Ce7mWOIyf82t7whNAEal+asxrA3lKk3HclJeEKjQtXvYnOgY/UQuF+Rxs339rDRo45C+D5Ztw2QZ74auHvfPxxLT8Z7jFKIp9vxpC6etCP86fjte7sQmgYAaOBm2woR8533ILFCuGq7PXegXsbahoZU1ptvQvg8FkHkvXYkdHwlhDVHZ70SaaJ7V68OnCy4frj43CfST7vuJoEi3zv6uB8RERE9CgeyMwJrhOTatWu4du3a7oyIyOo30UYCuUws/Cm1NRG4+1Q2jcKsEjJTv4n2tobUrHuyr75kP8FMo7AUNhH4NrYixa97t9OX/EKOZNbcgRn309T0Qil00ntv1lwIZSK4/RrX6301+qJrvNNGx/V6Zh2l0HCiQfLMnwh7yqIqP6GfLXnnSPhZacGcTKJwKgEETlwX7HN0T9zXURpg7kTj0hrMySRKSf95Dw7PCEavfI3OWLRCrdTJ8NYLAdzzY3zOM1PA9KR/iFw03s5MeiHnE7bkJsI3ezyokBgtE3C9plikvWSXozVvw3WfyBSQU34I0m2Ae0fP+xEREdGjdWA7I3urgXJ9E1qPp9Sut/sYBgwjB6yoYT4NlM9X0IR4G5Qdpz19TwrvOCyvU19HKseFh7yZCQ2UV8RbgOxjJFtqWryMRevNSFLa8kdakRtZQRqX5lBZh2s+Sha1vX0zT72M5fWONE8hidblpnsCtMtgeearXsac9RYmJxZ/Bt45Er4MtDbiSE1tBk5cd/gdx5jGVq8Ojy9x3Pik37wHSb2MZVdZJtGKGKbVm5j/Id601q0rTuicGi7omS8jtutvVMPN6RBZ+8xhrUeYlhhN6asDtFJ0fvSxm/YJtOSXDKj3iVlguVc+933v8DmOej8iIiJ6hA7c74wQPY6c162qjW/af3x/X2iPeH5XhIiI6PHCkRGikbPmrvTzpJ1GRLzON/h3YHaXnowDIW9XIyIiOujYGSEasfTC9J7OpaHd1ED5/F68eSqNwhV17pbP77IQERE9ZhimRTQqmQKq8yloMBmGQyJUz/UbPx00L0eZc0RERHRwsTNCREREREQjwTAtIiIiIiIaCXZGiIiIiIhoJNgZISIiIiKikWBnhIiIiIiIRoKdESIiIiIiGgl2RoiIiIiIaCTYGSEiIiIiopF4cjsjsyUYRhWFjLriMTZbgmG4f+V5zzzKYxERERHRgbSvOiPphSoMw1D+Hs8Grb70ZJxnv3zrwJUC0uqGe0Rf6vd4aRSuGDCWWHpERERE/dpXnREAwHYTFV2Hbv3VNuLI7kVDfaUIXZ9Dua6u8KOjZBgozarLByEar1nUnHMU56lutz+kF6p9Ns53gasOVNBECvldTEPgOc2WkJ00UTtfRkNdF6iB8vkazMnsLtUPIiIioifH0J2RXC6Hq1ev4urVq8jlcurqoRmLNZiI4djjEk6VOY3EuInaouFabCwW4V5CQgPllSY64wmc3uM6oCfj6KxfH6AcDFxf7yCe8engEBEREVGgD508efJv1IVR5XI5vPDCC65lN27cwPLysmtZVOmFKvKJNiryk+lMAdX5BNqXpVGMTAHV+RQ0e5uNGnSlca8vGchO2v8yUVsFsjNATbca/bMlGPK/kUbhSh6pcfszHTQvz6EcL8GYidsLAQDmqo7iivh/93Gsz9jptI+xCmRn4uKJ/wqQm09hU9qHPx0lIwvnyNtNV77oS2J0pYYsspNAx9wA4kfd+QTlPD3nHJaXan540yDrmd+A7z7lvERQHbDyAs62vffjOa/tJirnb+J04DnpKBnT2FLzLyq/ekpEREREoYYaGfnMZz6jLvJdNrg0CrMpaBtrSkckgfZlKYzncNYVs68vGcgelkJ9Lm9hWulQqPSlPFL3u6FTlfVNsWKlCF2vwbQavLqudETkcKvVTaTm1UnxcWSTLbH+fBmNehnL6x3EZwxUF4Keo3cb304Y132fUKXJLJItsX6u+Edob2tInJK3SKOQCXnaH5qXDZTP66isd7phU2EdkZ75raNkuPNYv9xELDQfLJljiKGDLRMR96OjZHX4nPO6j/Bzmk0ivt3GzUE7EvW72ISGCfW0iYiIiCjQUJ2RPTGeQt6ZvJwDVnTXqIeeTQHry9LT5wbKdROYTIp5JZkCpic7aK5IDed6GXOrpv0vH2kcOwx07t12ljQuFcOfcGcKmJ5Uwq1WrqPp6RB00Ky5uwKNS3PQLzeBqTwMw9sYTy9MI75Rcz3pN2o+oUrbTVx3tmngZrsDLXG622HJnEZivIP2O35diAh5GUXE/E4vTCO+3URFzi+rY+ZKs4foWNgd0kj7cXVeIM5r0b8jZUs/HQPu3w3dJtxtbG0DsaeDz4SIiIiI3IbqjHzve99TF/ku64szebmC5raG1Kw8GiA6DZrViHf+5Kfw8QlofT/hFo1wsd+Ik+XjE9AQR9b15iclBAgAsIm7fmmplzFnPdXHVN41ofrEEQ2YzLrPUQ45simN58alNZhShyV9KuEeVXKJkJdRRMzvE0c0dNo3PY39xjttdMYncEJe6OqQZhFbrzgd0kj7qZextqEhNf8o33LVwN376jIiIiIiCjNUZ2R5eRk3btzAw4cP8fDhw6Hmi3hZbykaT+GM8pYiO1zK/TfkBPCVInRdR2U9ZnUwInRKlDd/2X9zl9Smcoh6GXO69zw76xXPfnu//ctAa8MemUnjdEKD2QrPlT3Jy2Ep+dpXflqMRb0bdmY8yk4JEREREUU1VGcEVofk3LlzOHfu3C52RGzWW4pm7I6BePocT/ZoWKrhTHYYTgSNS3PWHJE4kmGvajW3vGFTA3OH+Ny+1yt0KZjRMsVnrbd2tQInyUfMyyh88kHN76BzSp9KQNveQjdALlx/+xFzRPTVPkPPBiJGmoiIiIgouqE7I3utcWkZze04staTbaNlAupvOmQKKNnzLqx5G67wrkwBuSlPkJMkjcJS2GtZfeYD1G+irR4HgL7UY0RFTqtt9gxS0twOEXKUQs61nY5SlKf7K9fRRAJnsgkgaOK6pWdeAmi8twkoYVSuHwaMmN8ihCyFvHwO1nZmPXw+hyzSfvzyWOJ3To33NoHDx5SylM4zU0BV+q0Z748jnsDEOLD5XtQzISIiIqJ93xnpTqq2Gs0rReirJuIz8nyKCbScUJ4GyuetH8qz188Cy6ET2AEcds9T6L5GFk4a7PkVokHqcxzDwPS98A4AAMQ88zSAmhyCVS9jTprgLv6msaVMhPfXwM02EJ9E4MR1R8+8tDsb1twY9W1egH8++Oa3gaIufhyweyzxJq/wVxyrou3HlcfqK4b9zmnYkS7PpHkiIiIi6mWo3xk5UPx+Y4PIIX67JNGuDDRHxf/3UYiIiIgozAEYGdkdejIObLTYEaEA9ujXmfAwO186zvQZbkZEREREj2VnJI3CFfe8jfRCFdlJ7+99ELmsFFHbiCPrG44WJI3Claznd2GIiIiIqLfHMkxLXzKQnZSXdNC83Ou1uERERERE9Cg9lp0RIiIiIiLa/x7DMC0iIiIiIjoI2BkhIiIiIqKRYGeEiIiIiIhGgp0RIiIiIiIaCXZGiIiIiIhoJNgZISIiIiKikWBnhIiIiIiIRoKdESIiIiIiGgl2Rh57OkqGgepCWl1BAIA0Clcex/xRzitTQNUwUJpVt3PTlwwYS7q6eEAiDbu3vz00W4JhlNBPStML1b4+oy8ZMK4UsK9qmlUvjAh1g+ixM8B1fyDMlmAYBgyjikJmn957iCTsjNiNisf0Qk0vTCO+UcPcpYa6iogGpuPMFNC8XIShrtq31AcTOkrzKWyu6tB1HcUVZXMiOngyBVRnYmhe1qHrcyjX1Q12UcSHXES9HNjOSDwex9mzZ3H27FnE43F1NUHcKHJTm6gtPsrmkmjw8Oa0z9TLmHvkDc4Gyud16I+0/j0a+lIWsfXlvr7ojUUd+vkyRvVYQF/Kuh9MZI4hhg62THXL/eZxHb0k2gPxCWjYxF3p3rRn9556GXOrJuIzj+HoEj1SB7IzcvbsWVy4cAFPPfUUnnrqKVy4cAFnz55VN6N6GXP6QXpyS3QwGIv6ARtt1JGc7KBZ492AiHbRynU0t+OY5sMCGsKHTp48+Tfqwv0sHo/jwoUL+MpXvoL3338fAHD06FG8/vrruHjxIkyz/8d86YUq8ok2KiFPDvQlA9lJ+18dNC8rw5+ZAqrzKWj2vzdqoU+E9SUDWdSgt5IwZuyRnQj73W660mnvp4YsspNAZ72CuUsNcU5Tzqec5UIahSt5JNo1tBNZpMbFUnNVR3FFR8nIwk6RWGbvRQjMi9mSdC6C+Lz3eN39inV2GrqfkXbSIw8csyUYM0BN6YCFl6+dtgrWjuS756UeI1Ia3HmnlmdgvqkyBVTnE2ir65Xzc+9Pzbfuec1dagTsU0nvhlWPINdd9ZxMT/56t7HPTUmDRa2bnmvFPs/LW5iW8txTL9TjqmUSqcwsTt62kJT26b5u4D2mJz/U+twtZ+ea95yrdM1IaVTzyZMW9bNqPspmSzAyW4H7dp2Hul9PvgVcz7DycBXI2p+3Pgv5eJ79hdRltQzVfOiZ1ijUMpPrWo/ytutNv+ccub75lJVPOQfmXy9R06GWg3o+YesD1p3wXA9WOdxX7z/T2HLuW2FlZVHLREqLO59Maxvvd8be6JH2XnXZuYevYWLev6zUeuCf1wHXr2ntf7WNxIxdXlZ9d6VNvef1+o4l6u3AjYw8++yzqNfrTkcEAN5//33U63U8++yzrm13i9OI0EVstb66idS8mBgGyDcJa71eQfNwtvfE3cksjGTL2W9lHe79AtCzE1izj6tX0EQKeXW/k1kkW2IbcVPScebIWje9l5vAVN4TOqVNTQMr9rE7iM8YMIxpbFnnIZa5h19D82KlCF2vwbRusmocuny87he99eUjpTU2ExzXrusVNO939+my0oKJOJKu80zjdEJDp30z9CapTeWdPNT1GszxFHLSk56e5ZApoGpkEVuvOOdSWd/sfj4s31T1m2hva0ickp80pVHIxNFZvy6+BDIFJO91j6WvmojPBOzPl2hkudJ7b9r9RQYgvZB06oOu66htxJGV51f1OG+VvmQgP7WJmpyXh7M+c7biyM4Cy84+1boo0g+nXuio3U8h7+ynj3rjiCNrJNGy02ZdN3J4UK/80Jfc9TksL9ILVRhObLeaxh7XcEaOC9ed6y6Inoy7roHGpTnol5vooGPtQzQuvGmy8tVnkq/3eobIQ+eeJq6jvGEg75yL99oKrcv1Mub0CprbotGlO/e4/tIazOcetNrNyV7lLQxwzvbnetS3KNdLeqGK7OEmKj7pjyZCOkLvf2HXWvA6o2UCk8luWWVOIzEO97LZJOJOyJFPWXm+L2xSmcgdETmfLm9hWnl45rx0w3qpg/qnHkdf8m7j/Lm+p33S7qpnUeuyhtS8VFarJrSpnHPfNxbt/ZqizoR0DvyvXw2pjH3fraC5HUfWMMSDDHmZ0gZpvLcJjE/ghGspUXQHrjPyyGUKmJ403fMuVq6jKTUW9WwKcMWPN1CuKzdaP9tNVKT9Ni4tu/YLAMai/ASigZvtDnD4mPvLcLuJ666nYAaKcnrrN9HeBmJPu2+kHSnNjUtrMH2XSY37CHkRamPN9aQ/vTCNuJIHqJexvN6BljgtztET195AeTHoBmvg+noH8aTcSTiNxLiJtV4hNRs16YYs9uOkIUI56NkUNOVFAY1LRXG+feeb2L98fHEeHbTfsfZfL6Mon9NKCyY0TKjfrQHsvF92pXcOtQ3XZt1zsBgt0/WlE3reqkwB05MdZdJ3A+WVJjrjCZx2daQ6aK50y1mti/aLGeTOrlGT9tNXvbEpaVPros+5ufMjjWOHgc692856dfsuHWemNJir8kiVnMYe17AnLlzZ3kWka/O98LP3TxNgLNZ8Ovne61mQ67m4jvyWuer2QHW5z7QG8L0HrRSdeqWWn1r/Be/5+S1znTPQu75FvF5OHNGA+3e7dVtKfzQ90tHr/hd2rYWtW2nBRAzHrPNIn0pA2zDdy56OARstq6PsU1Y+aRWUkEQ7L6V7ij3fwc2a52Y39pU/ddTKWPRu4/xJ6fRNu1NO/dVlc1Uqi9DvkR58r185j6x2jN8ytW1jbqEjlRtRvw5cZ+Tdd99FJpPB0aNHnWVHjx5FJpPBu+++69p2V8QnoMF6OuD8yUOt4otem8q7n4p4nrj4kL9AAAAN3L0PaEfcX3Xy0xd3aIXFsx9YT2L80hsutMHSMy/CyY00WF+ifiMWjXfa6Nhf+PUy1jY0pObVJ03+Gu+00ZFulOILTnyZhVHT5ie4HEQdMFsBRxkg3xqX1mBKDQ5xHsqXR6b7WlbDFUrSW1De+xGvsPWr1z3OWxWfgLbdxk31C9AaCXI3Pt0TMFUnjmhiZFHOUzkUpM96I3iP6ffELzg/xBe1uBeoTzQVmWOIwUQrtNEYcg1bcdpZn6e1AwtMk4HWhs/DjAjXDABgews9t+y3LveZ1iBRroPg8g4R5Zx71beI14tRa6IzmXVe49q/HumwBN7/wq61sHW4jS2pIX3iiAazVURrw14mRrXt+0tQWbm+LxzKOQXl5SMSlHag37q8ey+ciHz9qnnpp34XwWPARL0duM6IaZqo1Wp4/fXXnScQr7/+Omq12kDzRSLZloZ2A56S2GFJ7r8h41CtL2g5vKey3lG38hBfnnIIiwhz2BUR8mK3iadPVniC4felJqnfRHvbfpqUxukEhp+0O2A5uPSdb0bglzLshoErNDA8TGcwojGcT7SHCAHZO3bYjvuv+3Sxr3oTSYT8WCla9SNmdT57dEoC9L6G7Se4NWxaD0J2rVPyiD2aujyICOW9H1hvyhOhn8YQnZIAEe5/Ydda8Dp5BFhHclI0yI2WKZZZo9reRvpe2qswLSIKc+A6IwBw7do1XLx4ER988AE++OADXLx4EdeuXVM32x3mlk8IiUyMZrhCgwamIznZfdKcPpWApg7t9mTNkViv9DlUH0HPvOjP7Xt+w+v2eatPFq3G16rPELGLeDodT+oitAnDPw3rXQ496sCA+Rb8pWzVE2VYv1/evBcjHY7ZJOIwUQuMO+5x3qqgfLBC0Pp54hdUd7yi1ht/ejLuhIn0zo+uxqU5q1HtDbMA7CeJAev6uoYNFK3GYbT8CBGYJlHfQkdNBzZgXd6ltIbWoz7Ke7e46lu/18tK0eq0Dhi2I5HT0fv+Zwu71vzXOaMas0nE7fNeacEcn8CJ+IRrVDuorPy/L3z45GX66Zh7wR6FaQWlHdi9ujxSmWNQc5KoHweyMwJrhOTatWu4du3a3o2IoDsknpp1T1rUl7pPPMVEvKx7gnimgFKvJ5WTWWWyYhZxabjWM1SeKSDnF6bl4g31Si/kQkOCIouQF2LoXR1a9idCkbwTwXNTGsy6HXMcIR9VKy2Yk0kUTiWAoKHxPkQpBztUwj3ZuWRNwo2Sbz5WrqOJBM5kE4A9cR3wzWNRd6IT8yvck2o99cQTB6yjpISphJ63ygnZkM87jcJsyhuC1oNoxKiTgnWU7Lo0SL2BMjl5toSs9HCgd36kUVhSJzcHseY3uV46YH8+wjU8W/K8kCKY2F/va9IvTVbd8sxL2y1R6rI3PyKndbbk83KELt97kJ23Pct7WD3qW8TrJew+kl6oRnhCH56Onve/sGstbB26I9nZmbg08nsbW9Yy9/wrn7JSvy+CWHMrXPdg9Tz2kG/anWs4Yl3ezzxz2Ij6c2A7I7vOegOKPMwqbhQNlM9bbw+R1k3fkxqHK0XrDTDS5+cn0AoMwbFs1LB2pDvXJDupvDJvpSje3mLvcxZYixAeZCzWYErx9Dms7VKYVoS8cMXN9/rxQwNF3Z1WO1xDfiIck+fjRHoNo4HWRhypqc3eE9ejiFIO9TLmrLfQ2GnNJ7asUZko+eangZttID6J7sR1a3l5xX2sZKvP0Baf9Oaw7J7AXi9jeR1W6IcBw0iipYap+Oyne95exqL1RiInH8Srf9VXlfbkc1zDmMaWFJLXf70xUatPdMtoJu5+9WaU/Dgsl7EIswoa3WhcmrPeoCflxT3ReY5yDcv3m16v1Qx9MivxpskKzwnZ93Ci1eXuvIhuqEyUtKpvEfPyuQfNQDwQilLeQ+lR3yJfL9714gm+N7zTX490RLj/hV1rYevEPU5M+O+O/NrLpBd2AP5l5fN94c/nHjwLLO9qeYbxSbtdzyLW5f0s/XQs4jwpIn8H7ndGHhfOq177bYRRJMxfIonv78w87tIoXMkBK/vwnAN+E2l36SgZSbTCjvFI0kGPN//fkyLqB0dG6DHknntD9MSzQ36yvUJ2HicnMLELc8YOrMwxxCK8SZBoKLNnkIry+nyiEOyM0GPHfqf7gYi1JXpE7NAv9Y1Ajy8DxQMS5rIn6mXMcWSY9lKmgOpM3P3bJ0QDYGeEHh/WKyjzU5uP9A04RAeDePMWQymIaFdYr5XuPWeHKBznjBARERER0UhwZISIiIiIiEaCnREiIiIiIhoJdkaIiIiIiGgk2BkhIiIiIqKRYGeEiIiIiIhGgp0RIiIiIiIaCXZGiIiIiIhoJNgZIepltgTDqKKQUVeMhr5kwLhSwJPyO9qRzZZgGCXoQf+mcPusnu9LmQKqzCMiol3FzoiLjpJhwHD9sTHjlUbhioHqgl9zOGzd7kkvVJVyYlntBn1JzVPx5ypP65fu1W2cvyW5FHyuKXakJD7588TV47B7Rti63SbK4pEcy7qGSrPqCiKiJ8+B7YzE43GcPXsWZ8+eRTweV1f3TTRup7F1WYeud/9qGzEce8RPwdILVTbYothuouIqqziye9GQWylC1+dQrqsr/IgGze40MvwbYsaiDv18GQ3X0l20UXNdA7pew+ZUvttIrpcxJ60zAZir0vaLBuBcU1lAXqfrqN1PIc+ny/vqngOMsp7vD/pSFvGNGuYu9XNl+V+jPdXLmFs1EZ/Zg/sVEdEBcyA7I2fPnsWFCxfw1FNP4amnnsKFCxdw9uxZdbPoZkvIT22i5vNFbCx6l9H+ZCzWYGJEDbnHmoGiXkFzO46sa9QjRKaA3JQGc1VHccW9yljUUVkHUrNPcIeb95x9RkdysoNmTXSkH4mV62huxzHdb0eGiOgx86GTJ0/+jbpwP4vH47hw4QK+8pWv4P333wcAHD16FK+//jouXrwI0zTVj/SQRuFKHol2JdoTsdkSjBlpJGa7iYr8lDpTQHU+gfblNUzMZ2Fv2VlX9q/uZ6MGffE2ClfySI13Fzv7ny3BmAFqq0B2Jm4tv4szxjS2LrsbL/qSgSxq0BcN1/93ec85vVBFfkpztvBrRHZ5Px+6LlNAdT4FZ+9KnoUe287P1TYSMyloMFHTi7i9UEU+0Q7Ieyk/1GNvqHlh5dek/S/TymOgphdhwC4r6d/WOXbLqYPm5TmU40qZOudi50kN7UQWqfHuObqPLZ27mm6pDvmWqVqfBqyXvvu2efIB1hNyMfoh15fQ/QCBn3PW+n7ep27J1PSp/7aO2c0lUZecI6jXGLr5CLmOqnnrqUPDXD9hguuRp76MpJ6L/3cfx/qMfT2qebzdROX8TZwOzA+fvFLPdRfuJ8ZsCUZmy1Ou7n110FxtIzFj3WMQfI0CEa5Je//qfYyI6Alz4EZGnn32WdTrdacjAgDvv/8+6vU6nn32Wde2kWROIzHeQfud3l8F6YUqjJkYmlJYhQg5UYfaNaTmk2jZoRerJrSpXDcsJVNA1bUfEeoCNFA+r6Oy3umGILm+pOLIJlviMxG/vIyWCUwm3elTztn5QrTTe7mJ2MxuhWDoKM2nsOmE6lTQvN9dG+3YGlIZYFnXobsawrI0CrMpaBtrSkckgbaTzxU0D2ddcxr0JQPZw1K41+UtTCsNLZW+lEfqfjeUqbK+KVasFD1hS3KDVJuaBlak5ZkCkvcqzn70VRPxGSt8qV7GnF5Bc1s0cHRd92moCbtWL3sxt9CJNPKUxrHDQOfebXWF5Da2toHY0/5PhaPU236lF5KukKjaRhxZTzikdI3pNZjjKeQNA/kja65lOWUOTWA5+hnyPPzq0X6p504n0smLTaTm1bzo/z7WtTf3Ez0ZR6d909tRmNpEzd6XvoaJGanzEXKNRr0mG+9tAuMTOCEtIyJ60hy4zsje2MTdnmEROs5MaTBX3aMQIjQojqTScDdXpUbzynU0tzUkTlkNmPgENNcxDRQDnyDLBggjsEIB5PSlTyWkRruOM1NAc0VqFNTLWNsA4smIITlhMscQQwdbzoBVA+VF+1jRj23WfRotVkNRTPrNiQaalI96NgWsL0vl1UC5LjVyMwVMT3Y8x59bDRtd8za0G5eK0cJq5I4SxLGKcgdjpQUTGibC24iKXayXvdTvwmqORrL5nqfEJA3clRqRHj3rbf/UcjJapk9D0ETNqUMGrq93fJdpidPdTsxA5RjlnhNAyYN9U88zBUxPynkVVMcGuI/Z9uR+Is7VXV/t60p++GGgeLmJjrSVvz6uycgdfCKix9eB64y8++67yGQyOHr0qLPs6NGjyGQyePfdd13bRhfhyyBzDDGYaHlCLwy0NtQnvPKXpQ+roZXt+80tgzRgGrjZ7khfxmmcTmgwW9ZXbOYYYtCQmne/0UcOORlKvYy1DWv/6nyDyMcOyE9nAnsFzW1NmYMgGhjaVN79piL5aXB8Atp2Gzf7ylPR0BP7VUcewvmOFLjeTCWHEEW0m/Wyl8wxxNRlIYJGPQRRPsF61NsBiUnjPnUhzPYWfErOre9yjHDPCeCuR/uonscnoEHc17ppUcJOgQHvY5a9vJ/IAq+rCAI/63NN9tnBJyJ6HB24zohpmqjVanj99ded4e/XX38dtVptgPki9pdBr6eYu02EY3XfUtRvp6Q/jXfa6DhPSU8jgSauu74oTSkUQfqLNFrTm7FodRgOZ0UDwdWI2I1jN1A+L8JnznhGAnz2HRjqFdFKEbquo7IesxpeERtrCn3JgOEKr7HD9fapyI1aMeqhHQkLPjmBiXH1abRb73rbD/H2J1cIT+jIQHR9l+Me3HP2TT1X3nBn/wWFGA5i7+8nRET0KB24zggAXLt2DRcvXsQHH3yADz74ABcvXsS1a9fUzSIST6viGTV2XFG/i011iB2AeAtLeKMqmIGiLuaIuMI++qI2anyeONfLWNsQaU+fSgBybHTgeYWxGpt+aQ6Mh7c6YKtS+MhAxw4iwme6r8oUaVTDMzzGEzitPKFOPx3t+X/j0pzV8BzkHES9UUM5+haYh8PUSz86SjNx/3A5H0atic7kdOC8ifTCNOLbPToXYfW2X7NJxGGi1vcchV4GKceI95xI9lE9N7fQ8TlOb/vxfgLAb1/xCdeEdV+B6fC5JvscbSQiehwdyM4IrBGSa9eu4dq1a4ONiEiMxQqa8E4uBAB9yZ58aTd23ZMx9aVs70aVarYUOjk8+qRGb6MmvZDzCYsQ8fHxZAGnE1C+2K19KO+7Ty+UAhuSsBub6kTegEnkpcBRn8GOHaRxadn1+lkxCTrrzms5PVY8uyu8y3olbbA0Ckthjcjwidld3u30JTW8J8oIwy7WyyCzJRhGFrH1SsgbohT1MpbXgdS8OnlYjCTk1dj+AMH1tk+e2HzRuRpelHL0inbPsUZdPJPs3fZNPa/fRFs9DgB9yXuOqtHeT8R15j4Xa66Ja19+dcbvGu3jmvTMHyQievIc2M7I7rLfYmWHI0jxxuh+ETYuzYnfR5BikrOoDfBGGCA+092H59WO0pySng2Rxe4bfwzDQA7LqG2oW1mTaidTSN33TgA2Fu0fDJTSdKTl2c6lXsacFGYm/sQrONWQiJi8jfJq2IGOHcieuGs1zFaK1puNpDKdn0DLCRlpoHzebhRa62eB5V7hO4flifPq62nlWHtvQ7yrgfJKE5DyJtnyhveIEQYRjhIUyreb9RIAYB3PXWb9h9o0Ls05bzOS9yfethRxJCGk3vZF6hyJdCTR6lXOkUQrR69o95xI9k099zmOYWD63vXe4WIjvp/cvucdnfbuK4mWzwR2v2s06jWZfjoWbU4SEdFj7MD9zggNKvx3HUji+b0FGh3W2z3Det7l9xtFe87nN1SIiJ5AHBl5Ulgx8943vJBKT8aBjRYbaPsB6+2eYT2X2G/pyvYKKNtFs2eQGjexxo4IET3h2Bl5IqRRyMTRWY8QLvFESaNwRY0vryI7OcTvINAuYr3dHaznURiLNZiT2cBwyF2VKaA6E1d+x4SI6MnEMK3HnPgVYQ3YqHlir8n6xWjX7xB00HykoRrkh/V2d7GeExHRfsXOCBERERERjQTDtIiIiIiIaCTYGSEiIiIiopFgZ4SIiIiIiEaCnREiIiIiIhoJdkaIiIiIiGgk2BkhIiIiIqKRYGeEiIiIiIhGgp2RSNIoXDFgLMm/YRwiU0DVMFCaVVcE05cMGFcKeAS//fv465H/6YXqSPNaX+qjLh1UmQKqRhWFjL2gz2uIiIiIngjsjFjSC1UYhiH9yQ2p/ujZFLBeQXFFXUMjlykgN7WJ2vkyGuo6IiIiInqkDuwvsMfjcTz77LMAgHfffRemaaqbRKYvGcgebqIiNVDTCyWcfqeIcl3ZuJfZEozMlmtfA5ktwZgBanoRhrqOBqYvGUi29JF2FPUlA1nUoC8+xiWbKaA6n0D78lz/19BQdJSMLLA62jImIiKiaA7kyMjZs2dx4cIFPPXUU3jqqadw4cIFnD17Vt0sIh3JyQ6aK+7OQ+PSAB0RAFgpQh+2I0J7JI3bNTZSiYiIiPaLAzcyEo/HceHCBXzlK1/B+++/DwA4evQoXn/9dVy8eHGAERLxJDW2XsHcpaAuRBqFK3kk2mHbiFCv/JTm/Nt0ns6KY8Q35Kfh7uPKT8v1JQPZSWc3AExphESkJTUurXU9BY5yPvbIS7z7721rZMh+or3aRmImBU06dvD5Cer6Tq80eM6lg6b8JD1TQHU+BWePrvzzOQd7ve9TefVY3vTbZVC5Ny2dh5z3qqB6Ef50Pupx1HqgprfXOanl4f28m52uGrLITsrlZ9Vfe0O7rkifdR+rg+ZqG4kZuQyUvAqpZz3L3XM8a5tW0l0fIpwzERERjdaBGxl59tlnUa/XnY4IALz//vuo1+tO2FZ/DBRXTWhT+aEm16YXqsgn2qjoOnRdh365idiMPYnaQPFyE53JaWceir4kOid+jXVjUYe+aloNVB2600jVUTLySN2viWNIx6kuRJ+OnV6owpiJoXnZ2odeQfO+vIWGVAZYlo4dfn4AoOPMkTVXujCVD5xEDgD6kvtcKuub3ZVOh0JK4+Fst4wyBVRd51BDcDe0j3ybzCKH5e4xt+PIBtaLBm62O9ASp92T4WeTiMNEK6wR3Os4mQKS9yrd9K6aiM/I85h8zmm1mwO9yyvAZBbJlviM3BHBqp3POmr3U8hLLwAQHYNNq67q0PU1TMxInYlA3nrWs9ytTpP7eFbZrxSd/zet9LIjQkREtL8duM7InrAbMZNZMXk9sPEZRMeZKbhDveplrG0A8aS1r3oZaxsaUlkdmC0hO2mi1uecgfTCNOLbTVTkz9XLWF6XG8QGik5D0o+OM1MazFV51KCB8qL7SbdZl/8d4fxgoOhK1020t4HY00GdpDSOHQY69247S+TQOPESgGV3GusmMJmEDgDxCWjYxF1nvXJ8SbR8s2w3sezknXJMH41LazDHEzgtvexAT8bRWb8eMJpi6XWcehlFuQxXWjChYcJ68O97TitFZySud3kF2G7iumu0axrxjZqrUW/Umug452zXJ3lUx+p8dz8SyF3PIpR7poDpyQ6al5XjBZQ9ERER7W8HrjPy7rvvIpPJ4OjRo86yo0ePIpPJ4N1333Vt2x/RiO92SkqBDVCPzDHEoCE1L7+NSw21AoxFa98zcaXxFs2JIxo67Zue+SiNd9rojE/ghLLcV+YYYr2e2qODLXmYIeL5iafo9np3+JCXaGRqU3mfvBYdFbFOOqYcgrNyXYwmGD6jG4q+8u3+Xc924Qy0NjQkTtlpEHOQ2u/02EuU41ivKBbnL4VJhZwT0E95+VDSdeKIBtiddPtPDqGKVJ+CKPUsSrnHJ6Btt3FzkPlcREREtO8cuM6IaZqo1Wp4/fXXnbCR119/HbVabYD5In4MFK2wmekejVw3O6RK+XM9sb2NrW3pnwdK+PmJVyPL4TwVNHud60oRuq6jsh5D1jA8nRI71Mb9Z3fiGiif16HrNWxajddenZK9YrTM7gjLbBLxjbXBXn4g0ZcMGK5wpbAwND/h5dWPzroULub87d1bssLLnYiIiB4nB64zAgDXrl3DxYsX8cEHH+CDDz7AxYsXce3aNXWzITRw9z6gHYk01gDU72ITcSR7xOOnF3Iixn/VRHxGHQ3o7fY9n7AiAOlTCWjbW+gGPIWImFaXnp9J43RCQ2fA31ZpXJqzGtv2MUT+9wwpApwRrYpfyJVlV/ItzMp1NCHClvRkHGZr2GazjuQklFA6t6BzAqKUV3Shx3H4HCs+EWHOiCpCuZtbUogYERERHXQHsjMCa4Tk2rVruHbt2pAjIjpK6hyRTAHTk+ijUWmgtQFPByO9UOpOOJ4tIT8FNGtGN8RIPa7M3EIHMRyTGl1ifkIKeWWic25Kk2LvRahU8CiBgevrHWUydBqFpbBfJO91ft7OW3oh1yNMK/yYRssEJrPuCdeZAkr2ec2Wek/GtkTLt2E0cLMNJE4VkJwcNGRJJkbQ5Pk2+pI7TMv3nJw86VVe0YlQthRyrvokXTP2XBTXsXSUlLdaRdWz3O25V/PK8Zx88OYdERER7V8HtjOyqzwx8SI8pp+n/MaijtqGmMNg7yd/pCWebGcKqM7E0XEm5jZQXmmiM5kN7jQ4jS45fMlAUZ5oP2BaG5fmUFmHNKcgj8S9gPkHltDzk+fDWOtyWOsdpnU4hbyzP+VVuCtFawRJLpcJtKRJ3fK6fKLted1s1+7kW5jGO21gKoVYr4nrkYj6AWnuRLKlhmn5nNMMnI5Qr/KKrF7GnPVmNOc4xjS2atL0cc+xkmhFnMDuEaHcvcfLAs6DA3kuUoS3hxEREdFIHbjfGSHal3x/24SIiIiIwnBkhGgXiPknfMsTERERUT/YGSEamvVbG7sy/4SIiIjoycHOCNEQ9CUxZyE24JvEiIiIiJ5knDNCREREREQjwZERIiIiIiIaCXZGiIiIiIhoJNgZISIiIiKikWBnhIiIiIiIRoKdESIiIiIiGgl2RoiIiIiIaCTYGSEiIiIiopFgZ4SIiIiIiEaCnZFI0ihcMWAs6eoKOigyBVQNA6VZ+d9VFDLKdgeQvsS66Sau1+pCWl2xP8yWYBgGjINe/2ZLMIwSDlLN05cMGFcKGHXN2C/pICLaD9gZsaQXqlYDwf474A0FItp/MgVUZ2JoXtah63Mo19UNiIiIniwHtjMSj8dx9uxZnD17FvF4XF3dF33JQD7RRkXXoVt/lfVNaYsGyud16IuGtOxJpaMkjzCMVB9pqZcxp+sorqgrdkMf6aAnW3wCGjZxl52QkTAWdejny2ioK/zs4chPX+kgInrMHcjOyNmzZ3HhwgU89dRTeOqpp3DhwgWcPXtW3SwiHcnJDpor7i+GxqUin1oSEREREe2hD508efJv1IX7WTwex4ULF/CVr3wF77//PgDg6NGjeP3113Hx4kWYpql+pAcdJSOL2HoFc5eCnlOlUbiSR6Idto0I9cpPac6/zVXpSXymgOp8Au3VNhIzKWgwUdOLMGZLMGaA2iqQnYkD201UrCdm6v6wUXOPzvh+9i7O9DqfTAHV+RScPUvHhDVSlJ20V3bQvGyFk8yWYMy4R6Hkcwz8nMW9XskfX6Jsuke08gxhabHLqoZ2IovUuLXctPLfTpNdHpeXgdk8UuPWTlx5LPY1UXenM71QFSNp58toBKZD2jasDK1jOMf3yTc3JU82aqghiyyU/apl7Dmul5rWYeuvp4yUeha4z+4npHJS8sQ+rro94Lpe147ku3VOPb6al37H92zjLp9edV6m1v9hr/Xm/RRSrnK36tJ9eZmOkjGNLVe973Htw6pTk0BHuo+4029aaQkqA0uP43mE1Ak1j7z3j97Xhn1+Tv4EpO+EWlauuqEcp488tEVNR0PetpWUrqfwukZEdJAcuJGRZ599FvV63emIAMD777+Per2OZ5991rVtNAaKqya0qfxQk4CdBqod6nW5idiMGrqjIZUBlnUduusLPI5ssiU+J30B5ac2UXNCxypoHs76THr0fjacjtJ8Cpur0n7vS2vtLz77uKubSM1b82dWitD1GkyrIaBLYU+hn4P4sk3eq0jrTcRnwuflpBeS2LrcDZ2rbcSRtc8/JC0AoE1NAyve5W4aUvM5Zztdr8GczPZXD0LSEaUM9SWr8Wht4w4PVHU7zs7296aVRpPcgFeOG3Jeu11/0wtVGM7cCKv87qeQ94S9BO3TUr+J9raGxCl3rdeTcWCj5d1eok3lkWxJZTueQk6a1B5av2C/5EDJb6l8etZ5hbEo6r1o2A5/rZdbJjCZ7OZn5jQS43Avm00iLoWF6dkJrMnHQQp5tV5MZp18c3VEDjel+rGFaaUT7ifS8Ty8daJ3/Yx4bbgE3ws9ZaV0ROB8xqrXaln55GGw4HQ4JrMw7LLXdVTWEVrXiIgOkgPXGdkTdoNyMismr/f8slTpODMFd6hXvYy1DSCedO/LrPt1GDpo1qRmVaaA6ckOmpflxlkD5ZUmOuMJnHZ9ASmfhYFi2Bdg5hhi6GDLGUBqoLxopSlTwPSkiZr8RHblOpo+jUGXKJ+rl1GU07TSggkNEyHtGTVUzmiZwPgETsgbBdlYi/TU0FyVny6KjqmrMTeoSGWYxrHDQOfe7e4WIeGB6YVpxLebWJbysXFpDrUN12bQsylgfVnaTwPleth57XL9hY4zU5qSt4CxWIOJOJLK3Br/fdpE2rXEaamxZ4VWuo7pY6MmdUQNXF/vuPaj5rVav/RsCtpGzXUtOZ+JUuejiFRPbMo5r7RgIoZj1jbpUwloG6Z72dMxV6fNWHQf52a7Axw+5m5IbzdxXe7A22lU6sfcau9R6EjH8+GuE73rZ9RrwyXsXhggvTCNuKteAUbNp6zUPAwTJR3bTVSkuta4tNx/XSMi2qcOXGfk3XffRSaTwdGjR51lR48eRSaTwbvvvuvatj+iEd/tlKhPcENkjiEGDal5+W1c6jA/ANcXjkyZ0BqfgLbdxk21UWo9JXY34PucDFsvY23DSqva6YpPQEMcWddbxeQQogBRP5cRr9cV6+XQl2Cut5xFeBJrkxv4wXzKw9xCR2rMDSxSGVoN7al8pPp24oiGTvtmaGPJ7uCIfUrlEZZ3u11/M8cQg4mWpzFmoLUBxJ6WG1BB+5SstGDKjb3ZJOJ+eauIUgeC65fIR7MV0OGJWud7iVRPbOq1fhtbUoP0xBENZquI1oa9LI3TCc1zDvpSN82u0DDb/bvuOhaUxoh6Hs9DqRMR6me0a0MRdi8McOKIJkYp5HKXw6tsah6GiZIOz/4auHsf0I5EejRDRLSvHbjOiGmaqNVqeP31150h69dffx21Wm2A+SJ+DBT1CprbcUz39TsF9nC+8tcjTn8UjEUrFOCwz0jQthSKIf0FjrTYenxOXzJguEKHRGhTMPGGKldoRoQnsQfOShG6rqOyHrMatr07JVHYIWPuP58wKMd+rr+G1MAWIVrhoylR7EL96lHn954YaRCjPTqSk6IDaLSskaTMaSTGpU6h9TBADi2rrHeUfe6iXT3e3tTP0HthgI4UCtb9G27+xiDpICJ6XBy4zggAXLt2DRcvXsQHH3yADz74ABcvXsS1a9fUzYbQ51On+l1s+oSfDMzc8g77A1ZMeIQnyZFYryuWw5KCjttLz8/pSE6qIVE9zCYRh4lapHkwuyd9KuF5Cux+km89He0lKE8CyrBxac7qoIXXI3e4Epwn+F2i7qrhVaF2u/4G7k/Ug833+i9Ro9YElEb3UHrWrx75GFS+/QraT0A9UTXeaaMzPoETs0nE7XCslRbM8QmciE9Ak0K0RN12h/tE5pPG9NMx9wLFUMeTBdYnt97XRhCfe2GA2/fcoX67K3o6nHtq0MgdEdEBciA7I7BGSK5du4Zr164NOSKio6Q+hcoUMN3XjV6En8Rn3E+10wulwSYYOsP28v7SKMymoPWcCyGe+Ab++nSmgFLQOis0JDXrnoypL8npuI2tbaWB3vNz3s/oSz3CtDzhUjpKnlAj7377o+RxpoDclBzuYT15njojTQgu+YQv+aQjUhmmUVhSJykHE7Hp6iTsnCc0yGiZwGTWPfk8rNx3u/5a8zPUFxToS1nE+4mll9Vvoo0ETi9Ije5hRKhfRq2JzmTWdS05edKzzkcUqZ6EqN9EezuO7Excul/dxpa1zDUf6b1N95wrq773ZM2FcZ1rhM8OfDyP3vUz6rXhEnpN+NURu/PnPo7vd4hChAMG1I1e6YCYwC7XQ3H/3IVOORHRPnBgOyO7yhMDLMKJgt/C5GUsWm/jkfaTP9Lq3ZgI4N2feFXpsGEJABCT5xO4Xs3ZQPm89cYb6Tym7113T6515jnYb7Pp9TkxIRfScZOtHmFa9TKW1yHFiSfR8oTR+KWlHx00V7cw7ZR7ClBewykmikrlkGz5hJr4pyNSGR6W80y8pSew3tXLmLvszscclr2TdFeK1tvKumVhzE+gFRI+5E3rcPW3cWnOeuNPd39Z1CK+8c1PAzfbQGoq1nviehRR6pdPfucTW9aoWa86H503733qSSBrUrirYWov66D9jpTbK0X3cWaBNU9d9uNzrrPAsppfqoGP5+XNI6V++pSV77WhCL4Xyh1Fo9uR8DmOYUxja8g6GZoOiJcxrB3pbpOd9HsNNRHRwXTgfmeEiJ5Mrt93UVcS+fD8nsc+oS8ZmL7n/f0RP/v1HIiIdgtHRojoABBvhur7jUn0BNuv8yqizmUhInoysDNCRPvf7Bmkxk2sRXiSTE+gTAFV17yNNApXhpijtJdYl4mIXBimRUT7mPjF6zg6aF7u421s9ISx64lku7mvQvrSC1Xrd1b6q8sM0yKixx07I0RERERENBIM0yIiIiIiopFgZ4SIiIiIiEaCnREiIiIiIhoJdkaIiIiIiGgk2BkhIiIiIqKRYGeEiIiIiIhGgp0RIiIiIiIaCXZGHjtpFK4YqC6kxT8zBVSNKgoZdbv9TV8yYFwpwDoL8qEvGTBcvzpNREREdLDsq85IWOMqbN1e0JcMGIb7rzSrbkWPnbDOW9i6XZZeqMIwSngUNZ4dPyIiIhqVfdUZ2RcyBVQNA9P3KtB1vfu3aiL29B4012ZLj6zReZAYizr082U01BU+0gvVx6sxnSkgNwU0LxdhqOvCDFiXjMUKmkghZ4+mERERET0iQ3dGcrkcrl69iqtXryKXy6mrDxgdpfkUNld1zF1SmsErRe8yoj2QPpWAtrGGcl1ds1caKNdNaFNn+u7IEBEREQ3jQydPnvwbdWFUuVwOL7zwgmvZjRs3sLy87FoWlb5kIIsa9EXv82DvujQKV/JIjdtbdNC8POc04NILVeSnNHslzFUdxRXrH5kCqvMJtFfbSMykoMFETS/i9kIV+UQblUhP5HWUjCzizr/dx7fTl2hXsHYkj+yktXi76exfXzK6ywHASocRkD5x5tGPO3ep0T1X1zbKPqQ0QcrrGrLITgKddWtfstkSjBmgtgpkZ+Ih56Wmz87/FOzS6azX0E5ku2n2K+/ZEoyZ7lljowZ98bZSB5RzUY4jPuOuP4m2OHZq3Kojpl9+WXzyUi1DVz0bKJ+BwpU8JuryfuDd14b1OSuP1HQ4dQnwuVbUdMLZPzzLiYiIiPbOUCMjn/nMZ9RFvsv2gr6UR+p+zQmjqqxvOuvSdqfCDrG63ERsRp3zoSGVAZZ1HbpehIE0Tic0dNo3e3dEMgVUjSxi61Io1+omUvPqMQBtKo9kyw73qsEc74bDGIsi/Es0HO10OJ9U0tffcYN1G532Pmr3U8irYU6TWSfdno6II45ssiX2I3dE0C0XkT5pnoXVQdiUjr92RHQGAmUKqM7E0Lws5SMgnuif11FZ74iGvpSObsfB/kwFzcNZz7wjbWoaWBHb9NsITy9UkT1sHVe3y9I2YD5nTiMxbqLl01GQy71yb9rV+QiuSzpKhvtasa8H5yUHAIDb2NrG3oQiEhEREQUYqjMyOmkcOwx07t12ljQuFa2n1TrOTAHNFWl0o17G2gYQT7obombdOwKy+Z66xEvPpqBt1NyN9JUiaj7HwEZNauQauL7egZY4HWl+g5q+vo4bIL0wjbgrTYBRa6IznsBpeWL2dhPXezbOO2jWpFGsTAHTkyZq8sjWynU0tzUkTokzts/BdfzFCprb3X97xCegYRN3nZEKA0Wf0TOZnk0B68vS6IYIRcJk0h2KNEQ41IkjGnD/breMVorOeQ2cz/EJaNtb6NZsa1/bTSxL5d64NIfahrRRAPuzFTm/6mUse+phA3fvA9qRE93tiIiIiPbYUJ2R733ve+oi32W7z45xz3sn7GaOIQYNqXn3m7DcISwA0MGW/CDb0vvJsOgImS1vY9homcDhY66Ohtxh6o+avv6OG+TEEQ2YzLrfFCaHMtnkRnYguYNgdxriyLreQiaHBwWfQ6iV62hui/26n+YHEccR9UNKixzmZRm8fKzOxWQWhs8btnYzn08ciThi5yPos4132uiMT0Duety+15H+RURERLT3huqMLC8v48aNG3j48CEePnw41HyRvq0URbjKesxq/MqdEjtURfkLfZr+5DwZ7shhXs6fzxyJQdjhUspfcKhXFCIcS9dr2LQ6GFE6JaYUItX96/MNVWHqZczp3VA5tVOyp/lMRERE9BgYqjMCq0Ny7tw5nDt3buiOyO17HW8YDQBAR3LS/4l649KcNYcgjuQsgPpdbNr/3yejZQKT056n3G6i0+IXFqUn45GedA9md457+54anrOLzC1vGJIP7zmcwETYnBGHgaL+/2/v72MbSfP8wPM7M85FY3iq0mamXAfVLBRpDKcOrCkMLWw7z0w2VDa6+k5M5E4P4G1jHBy0BonWpZr2uH0CO8/i1m3beZSRzdO5vWt15nJQN2osHy/cN7BnRk4KVzXYbW0zCdTOQuYgXQRszk2GsF15qFFlWlU6NnKnPD33R7zwiSeeeCEpJaXM7wcQkBkRjJcnngg+v3h+T9AeIxJ9DOFlFav1CAcYpJXJcpfTSB31cF8NJhoVe0yKlI523OUcXJfd+xMnbD/sY/Gng126EOi3ISIiIjpRYwcjx6m9sQsLBgrKIGNzvQDDl1ufQ3k97HclBLr7gLHoT9/KrVZjggy7Ubm5B/2A8GLVexrvpuf4ns4XqyjMKWMokrAO0ccMZuP27Zi2a6fnqL8pYaIa94OSzu+vBMpF1rqP3lEK2aL/3Jjr7rlwx20UfOsx1+W3g2kUq5HbbX90ACgpR3Zg6d8O8mVUY3tUnHE980v++pIvY2k+5RvHMziuoJHL2ToMpE/ZY03868qtLgUH/WvqUntjF9ZUFiV5u5pj0Y3DIiIiIjppY73a92QEX0PqfyWrfhn1VaWBV53K69C8otVHfSUsoLwqVbeMMl99xa47VfP64MG+Kq/21e3fsNvVrSuwDv/rdwOv1ZU+c+CWs/tq30DaU/DcBF4NrLym19rZxGHeX1a+fVBf66u8Ite3TXme+jnN627V8+MJfDb4imK1jgWOc5RyDnvFrrKu/p7zymjl84G6ZE+NeR30YJnAdomIiIhO0CkMRujFExMYvGD0QcoJCw0uiYiIiE7OqUrTohdU/grSU3303mcgAi8dL27s0nHKoZw30N+7x0CEiIiInikGI/RsSWNvbCaqK1mkxvi9j+dOq4atPSC7Ej4m5TiZ6yVk4f8dEyIiIqJngWla9GwFxlHoxgQRERER0YuAwQgREREREU0E07SIiIiIiGgiGIwQEREREdFEMBghIiIiIqKJYDBCREREREQTwWCEiIiIiIgmgsEIERERERFNBIMRIiIiIiKaCAYjREREREQ0EQxGTlqxCiHqKOfliTmU7woIISDWzZBlnhPKsZnrzjEnNXLZOGU8zLbo9Bq5HrwAxr3GiIiIJuiFD0bMdQFxt4ycOgM4sQatuV5C9kkTpmnCXBPqbPLkUM4bsHaWUWup804XXz0qViFEFdpaEzXv2JioCifY9f3FNObzZdSFQH1VfzXYpEDa+zvp4zlpuvKKKSsNc11dx+TLJvr+RkRENHlnNhgxDAPXrl3DtWvXYBiGOjsx0bWAqTSu6Boe+StIT/XRaY4RMDQqME25MZ3D7Hmg//hhxDLPkTGOLbe6hOyTJioNdU4SbdRuPKNgr1hFYc5C80YNbXXeBFk7ph3wun87B8iuhAfXZiELHPWRSl/RN16LVQhRQrq36Vvv5t4MCkKgWlQ/cIyGqUcjBnxyeW3uAdmV4deBfechg/dXwYnXwIiyEWub6CCLpcgAk4iIaHLOZDBy7do13Lx5Ey+99BJeeukl3Lx5E9euXVMXS6bRhYUU0peDX9a5y2mkjnq4r/mSp2fg/a1nE0yMycwY6O/dO/lG57gaFZh3OujPFTSBg4nMXB+9xi6sqSyuauZXFw309zaxvOEPudobyzB3LBiLIzTeT6n2xi4szGBW95DiTGmj1rKQmr/63JwbIiJ6vpy5YMQwDBQKBbz99tteKsTbb7+NQqEwYg+JwL093dPgHK6kU+j37ntPu3OrdV8Khq9Bly+jLuooF+1UF+/JrPyUNl9GXZSQnQJS86XBOrRPctXUESltxEmn8eYlSsNQ1qd8xs0zl1NN7HQdf1pOMIVH3U/lOLTHFqFY9fat3XJL3t7GoLztfaqv5vypMb5jGiwjU8+hv5dAPZYkqTpOI/79UftE1LQnZZvqufbtr3uMpreOYJChaNWwuw8YGeWMFDMwjnq437KvB3V+bnUBxlEHW0og4mncQ+fIwEKgfkgijsU+j/56Ep36pi83c11ALBoADBSEf51qGlVkWeVnMeP9R1+XgvUy2sSusUYXFgxkEu4nERHRs3TmgpE33ngDrVYLH3/8sTft448/RqvVwhtvvOFbNqn2+z301VQtJ0XLbWTmVusopXvYdNMv7nQws6g2RFLI5oGtsPSMVg3L5iY6R0B/z0510aYg5cuoiwJmnGXstJEDb7ZZmMaulwZip2GUQlJvbCaqogBIaSjNJ1mU1CBmroBM103psZyAqYTpljxtyddYzq1mcHhHWu++gYK63hOSmi8N9tdswpqKTkcx1wVK8wdoemXXhOXO1JS5m9YU2dj0GvHqjGR844eU84x8GfWVNHpe+W6ic74QSLNKzS8ADXsZbX1SPHzcB87P+gO3vOEF3u33e+jPLfjO86ULKeDJo4g0tDYePQFSFy6pM2wxxyLWNv3BTEzqW1i5iTW7ngKWc57t6zC3WkfhfGdw/e54Z14jh3IxC+xtOalPbdzvaR5YFDMwYKGboMw9E7nGHuLwCJh5JfkniIiInpUzF4yciNZ99I78qVq5y2mk9nedxoiJq/NApyE1jEKeMFstfeNpGGYhi9R+05cO096oeDnhYk0OdOyGkr9x6ZdbXYCx7x97IZqdYAAmL9O4h86Rbpq/nOT9gjcGZxohTdLj5TumsB4uR76Mhbk+OnfkshOoOGlgujJHo4Km5hzLcq/MxDTSowTHD8nlaRbkBjG8lBvMZfxPwb16mkz7IyngQTDw1l0PgDLOSePh4746yRN/LHI6kZ0SZu1oAnogttx0AsFUoxII3IxFt+ehhOyUhV3f9bcLS7letOl5cwVf74saOAavJ920477GYgJFIiKiCTpzwciDBw+Qz+dx8eJFb9rFixeRz+fx4MED37LJqU8+7RQtq+s0M/KzmEHKHvwrNTQKc/61AH0cRj1wTcRuaHnbDiGnepTmU+psn0sXUsFG0koW0Z+yxTVA4Tx19ta7OEqq3GiS7JvHmI4Y/xNe5qJrRQZ643Eb4CVNmo29T246X1T5DlUObgAl/z8wNkq9HmxxjdlLF8JqVMJjaVTsp/6iEAie/aLKTU807bEygTQ4iW/A/51DLPhSsAS6+3KQEJKepw5gTzDmKcn5G/caiwoUiYiIJunMBSOWZaHZbOLWrVveF/6tW7fQbDZhWaNHAr5UrfwVpKfU9As37UP5S9DYOFZO3n0BcopKfEPDTQvz/+nfwJOcncvuS1+LTH+hgEbFOYf2G6nUxnXgjVimqU8BHMKlC/JYKBNX51PAVBYlKVAoOdPcgezB1C5VsLdCleRYEjeaY8otoFXDsim9USwiKAH0PZ+iaw0CtGIGxpA9UqPhNUZERM+3MxeMAMD29jZu376NTz/9FJ9++ilu376N7e1tdbHhtGrYdZ582ila3UEjqfUIB89sAKidUhGWGmQ/xe5gc4gg6OHj4FPuY+HkzIfl9Y9MTUHxDSYekXUYTEvzhJe5mTGGT8OyDtEPqS9mxgDkuuVobyw7Y1jcz4Xv01icsRheCpJ7DgNBgj22yd2+naake8uWo3g1kNo0kPBY8mUszR+gaTZhad/4FRQstxiNinNswTS0WI176MCuQ2bG0PakHbtjusbCe62IiIgm60wGI3B6SLa3t7G9vT1Wj4jMfvJ5FVfTUH5bRKC7j8CrS3Or1einqyNyU0rkt+q422p/dOBvrOfLWIpJ07J7fdTB3Saqaj77sKxD9H2vP7Vz/cfivPln8FYmezBx9BEm4ASb/t+OGJSBrszthnv078y0PzoI9hi4T9XVV90G1pdDeT18ILLoWoDaKM+XUY0YpB/FftPUjG/cTFhwFBzTIVDZsWAsBt/2lFutQ6hjPJwePHff44/FRHUlC+zdg3DG/wTKzxNdbsF6CZjrYesKkS9jYU5N3Wvjfg9IXy4jM6f2nJ6QwLGMco3F91oRERFNypkNRk5EowtryoCB4NgCsea8xUZOZbnQPZk0jVYNy3c6gJRjX0of2vvk5dU7+1EEduPStDTrE2IBhxGN7ERaNWztQRpLk0F37BQSu9E7GF+wBDSkt16NIXgOC4Db2NSV0SLQjEtlC+lxEWtyClHE+s7L6VH2G88Gg5krzu93SOtYmUZX2/sQ5Pucl9onbV/b4JaogWGjAtNs4kAZ++GmEIWP8Yg7lhzKdwu+Vwe3N7bQOYp4a1RUuXmBp5DSt+Tzbv9wo/p7Kf59s9/8pR5T+/0eMJ/FjDpw3aWOzRri1b9ax3KNXcL0FHDwUbJ6Q0RE9Cz91Guvvfbn6kQiSiqH8l1945aeQ94rimOC1NOkWHUC4fHGGhEREZ0E9owQjYW/cP0iCb557LRzfkMmrCeHiIhowhiMEI3LTZ0LSymi54T95rHj+C2hZ8VcLyGLQfobERHRacM0LSKiGOa6/btC/T2m4xERER0nBiNERERERDQRTNMiIiIiIqKJYDBCREREREQTwWCEiIiIiIgmgsEIERERERFNBIMRIiIiIiKaCAYjREREREQ0EQxGiIiIiIhoIhiMHJdiFUJUYTr/NdcFRNwvcufLqIs6ynl1xrByKN8VEEJArLt7cFKcbYVt59iO6RQpViGet2M6QYnq/lmgXNNjy5dRFwLVojrjBJ3o9RhzLzhznrfjeb6Z6/K5SnjujuGa9m/39N/vdPs30jGc6L2EXnQvfDASfREmvMFNmLleQvZJE6ZpwlwT6uxnKIdyMYuDnWXUWuq8MSiNOHPdCbx8f+N9wUxKbrWuOZb4OmeXQdwxm6iq6w2t62eEUxfGOvejfKkyICWisyZfxsKcheaNGtrqPKJT5MwGI4Zh4Nq1a7h27RoMw1BnJya6FjCVxhVdIyN/BempPjrN4Rv4Ys2E+UxuADnMngf6jx+qM05IG7UbIUFP8SqyT5qoNNQZ47ADHOxt+te77wRf3l8Fmj0aWm61HmywNyowzWMOsGRHHWz6jmUTnfOF8MZvvoyFuT76RwYyIU/Z7SCnAOzI6zXRfJJFKWy9x2SYuq8t71h9dO5Ix7RvoDD0OobUqGBzD8gWx9hOq4Zl0zzm6+NZsQNbf69OxL3gTHrejudFMrlzd/L3u1G5DwfjvxuHOQaik3Amg5Fr167h5s2beOmll/DSSy/h5s2buHbtmrpYMo0uLKSQvhy8PeQup5E66uH+STVCnzM5697xfxnkryA9ZWF340W6TdpfrM39lLbxm7ucRmp/F1u9Pox8cD7yZSzNp2DtBBu+Ys0cv1F9yohmB/2paVxSZxyz9sYurKksroYEgEREp4f9PaJ+BxCdRj/12muv/bk68TQzDAM3b97E22+/jY8//hgAcPHiRdy6dQu3b9+GZVnqR2LlVusopXvY9D0ZyKF8t4R0bxPLG23nyWABgz4YC035aXyxCrEIb5q5LlBA09c4z63WUZpPOf/ro7PTQ3oxjd6dwVN3/zJAf8/dvka+jPpKFoOl4TVAk6xHXQb78v6qx9tH584yai21XGzR65LK584hFqR91jWYZbnVOkoXdn3r0pXtgLrfynnSLtNH584WUCwhOyUtdtSx64Rybm26dci9J4Ny2r1QQmHOmeyu011KW/cc+TLqK/764a53umWi0jBRFQs49M2PKx94+46IslfP5+A8OcetqSszTh0LbL9YhViUei/3mzDXHqJ8N6S8nWMczJPKVlcm8vnRzU+4jLkuBucJFpo7QEE574Fj0/CvRyq7kO3a9NdV4Fyp17xSnwK024yruwr1/HnHpN9n//Er6058H1D2UT3OsHJwph8E1idRj8ery/rj8Rl1/9VySEi9DuX7amg9g3Ted3pIL2aRku+DStn195ropQv+4w4rX/f/Mm0dC34nDoSV83B13X8t6teZ+JoOK0cN9R6g/l+/3/dxJfR+N9w+BLYHBI9fuw9hZRf8PwJ17xjaK0QRzlzPyBtvvIFWq+UFIgDw8ccfo9Vq4Y033vAtm1T7/R76aqqWk6LVe9++sHKrGRyOkRpiX7QHaHopM7uYXvQHEoCJqxd2B2k1dzrAfCl8wGurhmVzE50j+yZgeikg8esx14WyP014YVy+jLrTuHTXsbl3MPiwIrguJ80oUD4GCkVgy1tnH8ZiVL5/DlfSKVjd8IafKvY8hR6b/RRpc68/SJuK+vJV1mHuHCC7oqaxAKn5EjJdqYynslhaTVhrWo9wgBSm5XZg8SqyUxa6DQAQ6O6nkC3IJZgkbe8hDo+AmVf0++EFSFL9mVl0j02gcqeD/tyCl+plrtvBifZLKF9GfXFGSqty61l4efvGQMXUPcBEddGA5aYitO6jdxTs6TQzBrDfDU1XMNcFCueldLk7h1hQGuAA8PBxHzg/G3rd51br/vXsJH040sb9Xh+p9BX/uosZGHDPN2AWprHrrtvcRAdZlGLGF/kMUXc9jYp33iwn7S+2oeRbt5oWGHcfGDRK3fU0n2RR8q5jE1Un4PDK4Ym0+iih9XEYMfs/ShlrBO+r/nt05rG8fgvGolrOKWTz7n76A5FB2ZnYvVDwN5KHrWdDX3P6up5bXYBx1MG9Y6rria7pROU4jLC6GX6/G3YfRNcC5jL+703ne8HNIBi37E6kvUIU4cwFIydCczN1U2HcJwDtjYrvqY891iRpaoiJq/OpQYMJGDTqfMsJVOSnHa376EU0GsPFrMcZc9C5o+yP+5SkkEVKaVyqx+/RrquNWqMTDPDQR6cxaOC3N3ZhIXzcA3AJ01N9HOpaC3MF7YBvdT/V8zTUsYXQrQONCpr7gJFRbvj78hgagXt7wS/hcHbQIFO/4LVfTAAOPtIEBp42HoU23kxcnYfvPKFVw658bK0adt0gqFhFYc5CM6ynwJhGCgd45JWvUjcDgsFU8PykkF1xz33B14AB2qi1LKWMTWTmIsZ+uXVYOeZlTSDR/ugg8rq/dCEFPHk0WE+jEtpwV9lpYP5rxswY6O/dG5zvNf91dr8XHRyphqq7w3IHy8rnt3EPnUBDNfo+kFtdgOG7btxUPKds8rOYgXxfaKO25qwvblzO0PVRJ3r/j6WMtfdVaV9bNVR867fTjX0PLgBYLf8DFXfffGW7Zj/Qkg1Xz4a/5oIPAO0HT/3efW9/h9sHRdJrOmE5JhZVN8MMuw+NbuB7M/C9ME7ZPfP2CtEZDEYePHiAfD6PixcvetMuXryIfD6PBw8e+JZNTn1So38in5PffKQ+YYmSn8WM9HQzmj1Q1N6O0q07lIj1GNMRY2HsxqB67KHC1uUEeP4bqtwIGJM6gF3pXtafpyGPTSt8HaJrBW740T0UcS5h2nf+TWTmlG1rvpiAuC8E+xi08rOY8TX27T85hQAAxFoT1lwBQu6V0GncQ+fIQEEI1BP1CDkNm/lSxFuy/APYzda0f1B+o+tv1BczMHR11BVWh3WsQ+UL2U80O+jPFcJfPhDJ7ukaNNztBp3bO+sypbfJ+VJ4Yg1Xd4dmTCMF+1wP6o7uHhZ9H7h0IRV82CCnnLjB8Er8W+cChq6POlH7f0xlnKRO5uU3y8kpYS71QU74vukMVc+Gveacc+jV9ZCxgUPtgyxJ+bliy3EIo9bNofbBfqg1CGz1gd/IZTeR9gq96M5cMGJZFprNJm7duuU1Rm7duoVmsznSeBGX70mNc2McXIz2BedLXVGfsBwDuxEtpycEn1glcVzrOXuezXl6ZpQvhdzqAgwAxqLUSHO+uAYD2e1ej9SFsGf38IKc8N4TS+qe1wd8ul4bPectN2YTB/MliCSNwEYFpmlic2/GadiGBSWOwNN3f6PezBiBJ8Qnxnky76blDBuUiK70hLmYgSH1zroNFjkNanMvKjSagMCb4ew/bQpfBDft1P83yFUXa8597bwTtCRu+I1QH08hc11ArKTRGyvdLMRI9Wz4a06u63YmgpTSNdI+DO8kynHYujnKPrTf76Hv9oirgd8zKrsXt51BJ+HMBSMAsL29jdu3b+PTTz/Fp59+itu3b2N7e1tdbDjSk5rAjdHJ2x7vXd3Bp9f2k0SX002tvsJ2aAnWYx1qUqhcdmM2cTpB2LqcMTfaFKuTEnuehjw2rfB1mBnDn6IzFveVxm6KzuC8BhppO/7XU9tP5wdjOlRqbrZP6xEOdHVVkVtdssd17Fgx435cAhXnSzFpmlp7Y9n5Yo7fH5VodoD0FeRgIjOX4Cmfpg7nXpnxT4B6zUZoVJwvZzVFKUbjHjqw98XMGL6n2Pbb/TrYHDqtyHXCdTfsXjCkh4+T1hEnsNjRpypGG74+JnNMZRxZlk4P6Yi/5xTcN38P7Kj1bOhrzutNCWYijLoPPpry81/T45VjtKR1c8R9aN1Hz3m1u5kxfOltx1J2unvuibRXiGxnMhiB00Oyvb2N7e3tsXpEZPaTmqu4moa/y9M6RB8zmPVubPag2cTcnHt1kKZvHcEn2rnVpRG6PROsx+tKVvbHeYLjpprITwxzq1V941a7LrshLY+5Gc1DHAZSvSIkOE9xxxY3JgAh67DHTgS7ykeSL6Mu7EHcg7fb+F+o4KP2DLRq2NqDdsCsPSjWPybEfsLlnj+BbqCuKue/WLXX0RSDtJewp3/FamAfZMHyzqG8rr74IEbxKrJq2bTuo4c0rqxmYGgH0Uqc8vO97th5PbIq98oMcHSIsOQ7cz1JYBaljfs9IH25HGjQBcoqZB+jjF53o196AAxSM9XXRg9bJnYvtfqih8H9CfkyqqG9GSaqUb1RMfXxOCQr45j91N5X3TIIngtzPS61B3YDuWUBcwXlZSb+z45cz4a55gDY6UZAunAVafgfjoy8D65E1/So5Rghsm5qjmvkfbDPpZGpIjPnT28LbCNw3DGeaXuFyHZmg5ET0ejCmjJgQMk1lRp3dmpMBt0h03/EmvNmJy+9JoOuMiDMy8N3llnC7kjdnknWE9yfAuA+mWrVsOy8GcPLOU0fhubfBtdlv2Iw6vWnyYQ/ZdRKcp7ijk3KKQ++DcyhWYf9Csshn265prIoeWUnddlL5WcWshE50M6Yp/mr3pdHe2PZewuWt16v6z56P4PnU6B0oWt/Jl9GfdFAf2/LWYfzsgK18SWR08oCrzHWlfd5uTx0ryBWxrRoy95u1GfnZ2Ia2bCP4Ybzxhl3nUVgS607ugHqAcHrYNgUpfb7PWA+ixlp4Dpg97b4zksR2B02/WLkuiuP5QkGuTZNOQqBhcfKccTR7aNYwKF0HmcC+++MW1JTVjQi6+Nx0O2/WsYJ9jN4Hbr3aPuak9ef6can9gBOj92O5SuDTFdJrxm5ng1zzdna7/eAOQOQnuwD4+yDS1MXA9f0GOUYIbRuQne/G2MfGl1Yc0Yw8Bu77HR17+TaK0Q4i78zQi+Y0HfVE0WL/A2XkcT/PsuxyIf8bgPFyq3WsYStoQPAZ+107af+NzpGcfzXHBG9CNgzQqeb8yRpIeSpO5Fe8FWh44oca3OM7Jzv6KfmpHfpAvSpjKfMqdrPqBTQoRz/NUdELwYGI3TKDbqx9akhRBrKj4CNzR0nI/9uwYlw3vEf8yYi0hNrZ6M3aWL7Wawq6ZT2j/SNP77vBK45InphME2LiJ4jdiqVgT46ZyzNyVy3f8+lvzd+ugyRlvML7L7hzPvNMcf3nd1rjohOBwYjREREREQ0EUzTIiIiIiKiiWAwQkREREREE8FghIiIiIiIJoLBCBERERERTQSDESIiIiIimggGI0RERERENBEMRoiIiIiIaCIYjDxTOZTvCuUXcOmZKFYhRBWmOp2IiIiIJobBCIDcah3ibhnaEKFYDZ9HdBzyZdSFgPD9RQROuuVZR4mIiOgMOrPBiGEYuHbtGq5duwbDMNTZRGdMH507JkzT/mvuGyhoAgxzXUCsTGPXWc7+20QH07ikLHsSIgN3IiIioiGdyWDk2rVruHnzJl566SW89NJLuHnzJq5du6YuRnRmiWYH/Sl/gJFbraNwvoNNswIhTQfaqN1QpxERERGdfj/12muv/bk68TQzDAM3b97E22+/jY8//hgAcPHiRdy6dQu3b9+GZVnqR2LlVusopXvYvFFDW51ZrELkD33zcqt1lOZT3iL9vU0sb0ifLFYhFqXemv0mzDXhjBkpId3bxO6FEgpzzvyjTmDb6jasHROVRvj8wD4ozHWBApowuxlp3/ro3FlGrSUtmC+jvpKFt2Z136Lma4/7oXfMg/0zURUFzMj7nC+jvjKNXa+hbZdVdmqwOrUM3GNqooDCnL8MzHUxKF9YaO4AhUWgGWjI+6nlOjh38PZ7cIRq+SU/vz75MuorafTkdRWrEL79tbcNpQyC3H1oopcuIDsFWJYFwwgeu6/ee9vrIiMd46BMg+cj9riIiIiIYpy5npE33ngDrVbLC0QA4OOPP0ar1cIbb7zhW/ZkmLh6YXeQInOnA8yXUC06s/Nl1BdnpJSbJtTwKDVfQqYrzZ/KYkka1O41EqVtzCyKwTbi9iHMXAEi0/U+t7kHZFfqKOcHi5gFOQVoEx1kUVp3Ry+YqK5kcbAjzX/izAo97jbu9/pIpa8MUnuKGRiAb1ruchqpo0M8BJyGdwnZJ03fMc4sagb/zxW8svQFIuc7UvkdYkEOkkKY6wKl+QM0veOXzl2+jLoTQHn7tHOA7Ip8Xmxx5zeeieqiAWtHCh6KGRiw0I0MRAZS8wtAw96HSqULCwYyvv3M4Uo6hX7vvhRMGCiIDLpKvbLLvI3aDRObe307CDFNmAxEiIiIaExnLhg5MVNZlNRBwUL4n/QDAAQq3pNyAK376B0BM684jU1jGikc4JH3tFxZHvbT9sHTbYF7e3Jj3cTVeaDTkBp6rRp29wEj4wYFMfsQ5qiDTelz7Y0tdI5SSF8efE6syU/P7UAC52ftfcvPYgZ9HHot9DZqa85+Rhx3+/2eL+XIzBjo71u+aZcuDBrGudUFGMq+olXDlq+cHEcd3JMb6PkyFub6gfJb3lFDQoX7uTvy8Q+OwSxkkdpv+nufGhU0fefFEXl+w6SQXXHrXQGGelwA4AVrCezvSj029j749jN/BekpC7u+3jTl+MPKnIiIiOiYnLlg5MGDB8jn87h48aI37eLFi8jn83jw4IFv2aG4T3vVP20j1kTVC1iU1JXGPXSODBSE5im+o/84okmZn8WMr2Fq/w1SjlwR+xDmySPlSXYbj54AqQv+oc/m+mC7vpSlVg27+86+eb0ljqjjbj3CgfdkPofZ8330mvfQO3KnmcjM9dF73947OTCRqUENoDkmYxqpox7uy6lnSUR+LofZ84DVDSZ4ia41CNYckec3lH8Au9maRkn4e62gHnsEdR/a7/fQn8t4b+jKXU4jtd9VUtbkYNLW/uhgqO0SERERDePMBSOWZaHZbOLWrVtew+3WrVtoNpsjjRcZVm61DuHk7tvb30TnSF7CTmcxzSYO5ksQusZ5LEtKFZL+nKf08fswIueVsQUM0qM29/q+RcSas73zBTtg8YKSqOMW6Lo9CPkrSKOH+y2718XImHYKUmgg8IJq3PP3WlmH6GMGs3JwMozWfSn4y+FKGug0g8EVERER0bN05oIRANje3sbt27fx6aef4tNPP8Xt27exvb2tLnYCnDz7vc2YQcSwU3ycxvxQaS6+XgSdYfYhjonM3OCJvz1uQ0mP0nICjx0LkJ622/TH7fYgmJfTgNPr0X6/h/75WZivzPh6Qh4+1peZf1xJhKk0riiN9twrM/4JKusQfc3nbHYPUiAdy0k5C/TOnITWffSOUsgWgvuQTBu1lqUEhOoyQWbGAAI9KERERETH40wGI3B6SLa3t7G9vf1MekRswbSm3OqSP0WqWA0MaB6O04uw6P/Ru9xq1UnZSbAPYeYKvl4ac73gGxQdSMnJl7Ekp2nly6iG9fLEHXejC2sqi8I8vHQstB7hYCqLwnwKBx8NmvPtjV1YU/LA+cG+WK2YQdNOj0K2KP0WhnocOl4KmlzuJqrOPohmB32l/FCsojDXP5kehuJVZKcGqWt2ANiENVfQ/M5HDuW7ET+S6Gp0Yc1lUJYCQj/lt02KVRSkYBW6OkJEREQ0hjMbjEyKWHMahM6YiiXsBlKkjEVpzEXYK4MjiDXnR++kMSOlC11vQHKSfdDab2L3gp1CZY9Dsfyve21U/NstArtKmtaMk4IlhFBePRt33HaQBV86ljMt8JYogYrpP0axkkbvTtxrbeE02p23gEnHsaUd++MXLPcC4DbEWzUsO2+X8h+/8mrkkSnjhLTrtnudmk/Uly2UkO7dS9B7IdDdN5CdP1AGrrssNFvTg3UvGoHXKctjg4JBEREREdFwztzvjNBovN8ZiU3BoudZaD0I/K4JERER0cljzwjRC8M/RoiIiIho0hiMEL0g3N9vCfx+CREREdGEMBghet45r2wuzR+gOeT4JSIiIqKTxDEjREREREQ0EewZISIiIiKiiWAwQkREREREE8FghIiIiIiIJoLBCBERERERTQSDESIiIiIimggGI0RERERENBEMRoiIiIiIaCIYjBARERER0UQwGHleFKsQogpTnR7H+XVuIQSqRXXmiPJl1EUd5bw641nIoXxXQKwPXRLPMZbJC825xo/t+qYIIddasQohBISoo5wPWeaYmesnvw1APTZ1ZtAz2y8iOjMYjDhyq3Xnhur+Jbuxnm0mqitZHOyYME0TlYY6//Qx1wXE3TJy6gyaLCmojb2GnMZLVOPYXFfXFRJoJ1gX3Otbrjfa/RWor7pLmKhGzld4DbIEy9KLJV9GfXEGnTsmTHMZtZa6wBk2yWMrVsPvMUR0ppzZYMQwDFy7dg3Xrl2DYRjq7KGY6wKldA+bpt0oN00Tm3sH6mIx7MZLXKPoVMnPYgZ9HFrqjONmPwkcu3FWrKIwZ6F5o4Y2EFLmbdRumDDXhDzxBfesyqTvNErcawjIrqiNhRzKeQP9oz6MjC68sOtKAU1vPaZpormvLocE64rj31/TNLG8Ydcsl+UE6qZpwrzTAeZLSj12nnIvAk1pPabZxMF86dkHzroe0lYNy5N+2KDbr+eS5lozppHCAR55DXXNMmdV4NieoUbFvscUn/E1RkTH7kwGI9euXcPNmzfx0ksv4aWXXsLNmzdx7do1dbGETGTm+ug03Aaurb1RebZPeSiWmTHQ37uH5+Ar/IXQ3thC5yiF9GWpqZC/gvSUhd1GD/25heBTTWd+U2moibVK8LzHreu4tWrY2usjdeGSNym3uoTslIWmqe6fQMXcRAdZLI0bhBORVntjF9ZUFlfP0kNAIgr4qddee+3P1YmnmWEYuHnzJt5++218/PHHAICLFy/i1q1buH37Nixr2Mf8JqqigJm9zcBTUZW5LlCYc//XR+eO0y1drEIs+ntnrJ3Bk8jQzzn88/2fDeP/jIXmDlBYhNIoso/N27OjDjadXoXcah2l+ZS3JOA2qJTPeNNtudU6Shd2/U/18mXUV9Louccl/x9l1FeykLfUd8s6r8yT9i/IRFUs4DC2zHMo3y0h3ZO3kUbvzhZQLCE75Sy839Q8mVSPPXiuQhWrEPlDZf/t9SG0LkjnOuHn48rMXLd7FZoooDDnljX8ZQI4T/Sl8khY70KpdcDh7o9b1nL9MdcFFh4r151zfAcJ9iV2XZLcat3u/XTLKmR/BzRlHzge/TI+xarTa6IGK+FC64hHf+66Gf/nvGs3cD1qjjuwn2NcCwr1eAL7tdNDejGLlDP9YZJ7jDdNuha017SOco/wqOcz/P6JhNda4NiPOti8cR9XNNsP3JOl41HXE6wTyr7uO/slXXuA5r4Zec+Npu6Tty71vISUm7dfSZaP+/5Uj5OIzpQz1zPyxhtvoNVqeYEIAHz88cdotVp44403fMsmI1DZsZCaL0UOqvNueG4axs7BIAWlUYFpNmFJaR2+xmfY52DfiDOPN6X5FoxFNbXFz1wXKJzvDNLK7hxiQWmYy1+s7rqbT7IoOWkj7Y1lmHc66HupKnYjJLeawaGUutLcN1AYJ9WkVcOyuYnOkf1lbXqpMP7xKqa5ic4T9cOSYgbGUQ/33S+hiDIPSiG7sgQ0Bik01lzBf77zZdSdoNR/rtQ0sNHlVuv+87YzbOAMmIVp7Lqfd568l9R6O1dApmsvo2+cm6iKErJPpHp5p4OZRSWVLq8fV2H/RddRWw6z54H+44fO/01cnU/B6tqNBtG1kJq/Gkgp2trrw1D3JSDBuo5bsYrCXB+dptuISpDmaB2ijxnMxpaVI/Z+oDl3Tj0Sa+6/LSdlTBMAte6jp/ZWuelubq9j0mtBM05m8DdIyYrerxSyeWArMD2GF5xI18J55ZoO1cb9Xh+p9BXffS23ugDjqIN7UiASdv/0xFxrgWMPafib6wKl+QMp1c++twFJ64T/fG0+XlACQGfclDe+QzomJX3ODIzXkv6k8g07tkT3KE/090Ds9yeAh4/7wPnZ0b+jiGjizlwwciLchu1cIXDDBewvg4U5JXWkcS+YgqJK8rlWDRX5S6zRhYUUptXYwpUvY0FNK2vVsKw0bHOrCzD2m74Gumh20J9K40pEw0hNTxNdC5iaxiAx5ZgEGnJt1Nb0X9QAkHtlBnjyKHR+HGtHfppmB6CYy3hfwmYhi9R+09+gaFTQ3MeI4xGCLl1I+Y+hUYkIoPT86Up2oyrwRew1qPTcRtemXC/dFCS5geaMNfAaAr6/+Kfk5noJ2SkLu26ZFjMwYKHr7lujCwsGMkqw5wbKmC9BhA0ET7iuaClkV6IDLGNRmp/pao47Jl++9QhDjT6LuR9oz91Q9UjTEM9fQXqqj9779nYTXwuNiqZeuH/JAwurFX7dhzELWWBvSzoXbdRa/ms6Svv9nnIvzOFKOoV+7z7aw9w/Y661RNx7+h25zAQq7jlOWCe2pGXaG8vKOCsnePfdBwGx1gxcN2JNPZfSX4Leh0T3KFfU90CS708A7Y8OTuY7ioiemTMXjDx48AD5fB4XL170pl28eBH5fB4PHjzwLTscgYppSkGJ9LTImEYKBgq+p0T+NAmtpJ/zPYGWUyM0jGmk5B6CEJcupAA3uHL/lHSpML43iwV6XI5Jq4bdfacxqAZ/x07z9Nr3xNp+gu8+ZZeJrhX+RTok0eygP1fQNnqHIT+59KfaOWKCtksXBo0umd1AG+dL3d+4t3uBBg0TM2MA+11fg6urNnBdbiDkBiXKE+mh1hVKHcCuBhrSAPYdC5graHrJYno98rOYUafFibgfhJ27Ydh59oNGde5yGqn9XefYn821MKC5NmPZ+5hygtWR7lXO/cdr1Lrjj5wGfeL7Z8y1lkiSe/q4dSI/ixk5ePfY183MK8d7VmPvUa6o74Gk35/WIfrKJCI6W85cMGJZFprNJm7duuU1Im7duoVmsznCeBEdZ+DpkYEF+YnskZReI/3puuZ9Yj5nrgsIX7qB1D0/Jjctyv8XbHANmKgK5c1iI6QSJWU/gXPSK4Tmy+h54zawnZSXoYMSp0Eipy1s7p3g1/DQaVpK415OScmXsTBnp7XI6ynMAYgafN6qYdls+gepjrqucTQq2Nzrw8hLQVHrEQ6iejEx/NuGTvJ+MCDQ9Rrido+ALviIlTBN66T43nTm/SXvkRFdy+shsgMyObgd5f55Mp5NnRhImqalNcI9KvJ7IOb7k4ieD2cuGAGA7e1t3L59G59++ik+/fRT3L59G9vb2+piY2jj0RMM3ppjHQa755OI/ZyJzJyaQpSAZp25V/zPXx8+DuZEx3JSXwavzg2hPh01poNPDBNzXnOppE2dtNzltPQ00j7fuqfqZsZI/vRT7VUIeyreqNhfvmqaX8zn7X1WUnRGEFY37PUfwh3hMW6alszb98B6mrAQk+6Ihzg8Gjy9HWVdgRS5Ebhv7hm8HUvgnhqg+ChjMWLF3w/Czt2wvIa40yMweGI+xLVwTGlaWpH3mPB9HEqj6/QQBQOy4yrnRCK/J+LrBADNvtq9R57WIxxo0xjt9R98NLgyxknTGv0epfkeiCwXyVjfP0R0GpzJYAROD8n29ja2t7fH7BExUVWf9jhPXr0vJ2fQp/o+c3NdfvrnbzABST4X/Iy5HpOm5eTM+taZL2NJ6Qq3U27U14pqjlUWGGxroqqkPrjrHbxKMbhMkBLcwd7nqm4sQIj2RwfBBoqm/PRSyK5I58opLzm1wU2h8o1PUAcsR3HGLAx603IoF/1pHf76okjw+UButOa8J+E2qn2DSp11jZK/H8+fj+9nN+i9xpSuXhSvIuuNaRhiXR6nQTfK038f92UXS17vS3tjyx6gG+gJcAaaw5/Ln1utRzxdDtZn9X6gPXfF6iB9LHANh2jcQwdpXC2kASVYGvta0Em6XwnvMaKrSZvz1R0TVW3vnUzg3h6QLlxFGv6xHyPdP0flpSrJdcjdVnydsMey+PfVfuW0tJAbOCsvRzHXC9Kg/fENfY/SXe+u2O9PW+6VGUB+iEJEZ86ZDUaOVSA32O4SHwxebKN2w3kriLTcwmP5S9weQOnmMdtfknGfa6PWGAzUFUIg043rgtesswhsqelUrRqWpUHA9t8CDqMaE60atvYg5f1n0NWs133bkbfMnU5szu5gvMRgQPKMvG9xrz/VPiXTlblOH52dQyx45zcLqK9y1pXXItBM3AMgvZVNCAixBDTUcynnP6uv9kzw+UbFfruZdN53Y1Ig9AQq8gsbhK7OHyNfMBGkNj599UI9D8Osy0sjCnv9rjqAXQTGpgQEHgbYT3Q392aU3HbnTUy+XsbgE3i/JPcDzblbxKBnQ87BDwRIsjbu9wBjDsGyHPta0Ei8XwnvMY2K81YpqcxXptGVX5YQNw7DqS+YMwA1uNWVQdz9cwxizXlzoVx/uiJZndDs6xK2Aj8U2t5Ydn6IdFBmBTRD3/A1khHuUeHfA5rvusD37vH0ehLRZJ253xmhF1XYbwPE0P0+AdFEmKiKDLpRQTcdi9xqHUvYGu5eQWeQ+tswRHQWsWeEzgi3F+SEf0siTMRgbu2rZ4lU+VnMKIOk6WRcuqDp8aHnjv+3YYjorGLPCJ0p3g8+Jk0tYM8IEdHzp1h1fsSR93ais47BCD3fGIwQERERnVoMRoiIiIiIaCI4ZoSIiIiIiCaCwQgREREREU0EgxEiIiIiIpoIBiNERERERDQRDEaIiIiIiGgiGIwQEREREdFEMBghIiIiIqKJYDASK4fyXYH6ak6dQUREREREY2AwAiC3Woe4W8aZCzfyZdRFHeW8OiNm3jEy1wWECP5FB292gBdb5sXqkOs9w/Jl1IVAtRhz7qLmHQvn3Kyb6gxKoliFEFVoSy9qHhER0QvqzAYjhmHg2rVruHbtGgzDUGfTs7TfhGma0l8TB/Ol8IZX8Sqy6KM/lcYVbaPaaRAvAk3deuOCmAkZPajNoVzMAnubqDTUec9aG7UbTVhzBTswOhXYO0lERPS8OpPByLVr13Dz5k289NJLeOmll3Dz5k1cu3ZNXYwmRqBibqJzZKCgecJuZgz0e1vY3U8hWwjOz60uITtloWlWIHxznPUii6XnqWGav4L0lIXdjbY6Z0IE7u31YeRHCayIiIiIkvup11577c/ViaeZYRi4efMm3n77bXz88ccAgIsXL+LWrVu4ffs2LMtSPxIrt1pHKd3D5o0ags3BHMp3S0j3NrHsNBZzq3WU5lPeEv29wbzB8k300gVkp+yp1o6JSsNEVRTg9uPY09y1OCk4K1l4az7qhOyTI19GfSWN3p1l1FoJ5hWrEItSL9J+E+baoLlvrgsU5tz/9dEJfBZo7gCFRcPbt0vrAgX41+NxP+MLKkxUxQIO7yyjhjLqK9PYDcwvAGrZyLTr9VPPkXesIcfRjjv+wHz5/Nnn3D3XgHLu1POqlHtutY7Shd3BNN25c+nmRZ5Xf51T65TpnL8mCijMSXVZtx2J+zn/eQ9eKz7uOnd6SC9mkcIg4FTPl1e2atmp15t67Oo1E7ZNtx7cOcSCtH71mlT3y3+ta0TVzcA8td4odU49dt95Dd5n1H0nIiI6C85cz8gbb7yBVqvlBSIA8PHHH6PVauGNN97wLXsyTFy9sDtIHbrTAeZLgZSW1PwC0LCX2dzrw1gUEGIBh3fkaf40JrMwjV0vJcnuAShpehZGki+jvjiDjrN902xCDtu8xqW7/Z0DZFfUsQkGCpmuPT8qSHJZh+hjBrPSOnKrCzCOerjfAtC6j96RgQW5lyM/ixn0cRgVU2rWKzPXBUrzB1KKl/9YdccRe/z5MjKPN6X5FoxFd34btRv2OcVRB5ty+XiNeum8ni9IYzJyuJJOweoGmq7JRJ7XQWDn7nfzSRYlNZVsroBM157vNbRbj3CAFKZDMiBF1wLmMv40vPwVpKf66L0fVTNSyOaBLdOEKQci6Z5dbqZ9Tc0sOuNnWjUsm5voHNmBgLyPudU6hO/YneMLpAcGt2kzUCi603XXZLJrfVTmegnZJ4M6t7l3MJgZW29s8n2GgQgREZ1FZy4YmTyBivw0uHUfvSNg5hV/Qkt/b8t7wtne2IWlnWYgIzVsxJrcUGrjfq8PnJ89nlQZYxopHOCR95RbOo58GQtzFprycTXuoXOUQvqyvPU+Os0hGs2tR5CaV17Du9+77wQy9jGm0leUY5T3UyOwXkm+jIW5Pjp35LJUzpl6HEmOv1VDRX4i3ujCimisu8xCFpDOO9BGrSU35C9heiom+IoScV5zqwsw9pu+RqpodoJjdY46uBdoyD7EoaZeexr30Dny19/c5TRS+7vanhSZ1ZIDWRNX54FOQ5rWqmF3HzAyUYG4iavzKVg7/p4bsdYMXFcIbNPV9203eE0mu9ZHk8PseaD/+KE3pb1R8Y4lvt44EpQ3ERHRaXbmgpEHDx4gn8/j4sWL3rSLFy8in8/jwYMHvmVPjomq94YnJT0nwsFHweaQSn47lS/NaFxO47GgeyOVMY0U7HmDN1fpjismSFDlZzHj+3/wyXn7/V6wcRzR6wFo1iszppFye15CKceR9Pjz9huv7PlS6lMou8GZmi/53wompxWNK+K8XrqQAuYK/m0rKU8AgCePNA31Nh49UafJ7EByEDAk7eFRAq/8LGaQQnZFLnt/OpxWfhYzsNANBFEC3X01YAgL9pLU59Gu9Xh2cGHXDbUnJ3m9kYMZIiKis+jMBSOWZaHZbOLWrVteesOtW7fQbDZHGi8yrNxqHcKX+mKnkIzNaejKqUKbe311qTHYqUSDN10pjVc3vUj5i8yPj6MEBmYhi5Ta8FxxprkD2WPSgwBdb8AxiDl+c11A+NJm1NSvcJaUJjX404wpGEn0eXVTm/x/+nEgw2q/30PffVKfv4I0dD0sSVjKW9OcP904pGfoxK51V6MC0zSxuTfjBML+oORk6w0REdHpcOaCEQDY3t7G7du38emnn+LTTz/F7du3sb29rS52Apw0oxN4BWvuchqpow42h2mAOQ13fyqVzV6frodAoOIEOl56lHWo6Z0Yl4nqoiGlx5jIzOkbWJt7fSn9JO5NTjmU8wb6e/f0jbJRjiX2M+6+D9uIt3sXotONNI7pvD58rEuBS8p+Oh+pVcPuvp3WlLucBrz0uyG0HuFAk1YVK/Rz9rlK0gsZbcRr3TpEX7tf9lvksN8N1Nv2xrIT3LqfG7HeEBERnUFnMhiB00Oyvb2N7e3tZ9IjYrMbCakLl7wp9mtofQuNpP3RATA1DW/N+TKWYtO07IZ7an7JP9Dc+awvT75YDR9427qP3lEK2aI/ADDX1fSRhIpVCFHAjNyQK2ZgaNNqgrn67Y0te/B+IH3FRFWUkEUHW1KPjbku/YBiq2a/MnjFPxC5GvUigNjjD46fMNeDaVqBc+gN9FZ+syNfRtXrvXiIwyO1J+h4zqudAqe+BjmmLDyXMD0V36gXXQtGpowracQMXA9jp1WpL3PIrValYw9ed17Q6r1EwGauF2Box8AMK7jNRNe6O95FOR4UqyjMyWOVciivhwXcSeoNERHR8+HMvdr3JKiv73TZr8pUX1fqf1Vqf89+teZgvro8vM/4X1cbnOZ7dexRB81eGoXQVw5L1Nebqq8I1S2jvgI18JpR3StUg68sVV93a1N/I8RZ9xP1VbAD5rpA4bx/n3TnRff6Ut1n1f3yPhdyHLHHr7xm1dppAovqOZXWIZevWvZK+ehfk6v73AjnVX09rLKO0G3HvNp3wLkelNcVa0WsUz1f6uuP5eOQz0ugjmg/p9mmth6o12TctR4usF9h14RU3wJ1Wz23vnXo7jNERERnD4MRoknTNownK/q3d2RqA56IiIgouTObpkX03HDeiOX7vZWJcl6bq30driIi/Y6IiIgoDoMRoolro9Y43h/UG10O5bt22lV8T0fMywSIiIiIYjBNi4iG5o2JUMdoEBEREQ2BwQgREREREU0E07SIiIiIiGgiGIwQEREREdFEMBghIiIiIqKJYDBCREREREQTwWCEiIiIiIgmgsEIERERERFNBIMRIiIiIiKaCAYjREREREQ0EafqRw/NdYEC9L/oHDXv2OTLqK9kkVKnw0LTrCB0y8UqxKIBa8dEpaHOdJmoigIMedJRB5s3amjL04iIiIiIXhDsGQnoo3PHhGkO/jb3ZlAQAvXVnLowgBzKeQP9oz6MjKnOBADkVusQogDs+NfbfJJFSdRRzqufICIiIiJ6/o0djCwtLeGdd97BO++8g6WlJXX2c6G9sQxzx0JqfikYOOSvID1lYbfRQ39uQTO/jKX5lLbXRKyZ2NwDssUydGEOEREREdHzbKxgZGlpCW+99RY+97nP4XOf+xzeeuutZxiQ5FC+KyCE++fvYbB7Iwbzq0Xpo/ky6qKOcrGMuhAQogp9n4akcQ+doxTSl/1hQ+5yGqn9LkSrht394HyzkEVqvxkIRFztjV1YU1lclfePiIiIiOgFMFYw8oUvfEGdpJ12Esz1ErJPmlIq1YE3L7daRyndw6abEnWng5lFJSBBCtk8sGWaMKPGg3jaePQESF24JE0zcXU+Batrf1p0LaTmr0qBTQ6z54H+44fSZ1QPcXgEzLzCvhEiIiIierGMFYxMTrCR396ooNaCEyAAnYY0MLxVw+4+AmM6rNZwg8cfPu77JxQzMGCh6/Z6NLqwYCCj9HIcfBS1FTvIISIiIiJ60YwVjPzwhz9UJ2mnHb82ai0LqflSMMUqP4sZpJBdkVO4BApz8kIA0MehpU6LdumC/z1bZsYA9rtSr4pAVxP0RPd62IEVEREREdGLZqxgZGtrC++99x6ePn2Kp0+f4r333sPW1pa62MloVHxvuvIHJRaa0lurvL+xXgtsBw1uShbyZSzMAZgrBIMebyC7LrVLdQnTU3G9J0REREREz5+xghE4Acn169dx/fr1sQORh4/7wFxGM5jcRGZOCgQk7Y1lmGZzkB7VeoQDTarUuHKrS8iig3tOSlbuchqpo85gXIr314SFwUB20ezo37LlyK0uwDgarJeIiIiI6EUxdjBynNobu7BgoLDuD0fM9YLSYM+hvB72OlwnVWrRn76VW62GBgTR7Ld2leYP0PR+oDCHK+kU+r37mjEnAvf2+kilr9j716phaw/IrqgD6O0fciyp41uIiIiIiF4Qp+oX2G05lO+WkJ2SJu2rv7weXEb9HQ9zXRknIq8jX0Z9JY3enWVn0Lsj5BfY+3ubWN6QwoViFWJxBh318y5nPQfyPunWHTguIiIiIqIXxykMRoiIiIiI6EVwqtK0iIiIiIjoxcFghIiIiIiIJoLBCBERERERTQSDESIiIiIimggGI0RERERENBEMRoiIiIiIaCIYjBARERER0UQwGCEiIiIioolgMEJERERERBPBYISIiIiIiCaCwQgREREREU0EgxEiIiIiIpoIBiPHwFwXEHfLyKkzXng5lO8KiHXT9//66iktqXwZdSFQLTr/L1YhRBXu3hMRERHR8fqp11577c/ViTQcc12gcL6DzRs1tNWZ48qXUV/JIuWbaKFpViB80yJo1wH09zaxvHHseyzJoXy3hOyTJsw14f0/3VO26+zfwY6JSkP+/DOm7kexCrEIu6yLVYjFGXTuLKPWUj8YQ1P+ctmb6wKFOWkm4DvHudU6SuleaP2K+7xHsx84suvtJe06XP0Ex22iKgowfNPUfXDqw1TUMgivJyHzcqt1lOZTIfXZv7y+rFz+47TXe+DbP3NdINOV6uk49YKIiIjObjBiGAbeeOMNAMCDBw9gWZa6yKkU17AMyJdRX0mjJzV2hg5+NOuYjGBDUj/tlJCDkVHOHUIaq/kyqpfvoyIHI3ADtqC47cZ9Hl7Aojb8cyjfvYpHN/zBQNz2VHajHYEGublex2zTmVasQiwagYDBDSQsXyAaVSeC89x1qMFE2PLenKjj9F0zg6B683EGV97vYnqlgBnnWCLXQ0RERJHOZJrWtWvXcPPmTbz00kt46aWXcPPmTVy7dk1d7Lklmh30p6ZxSZ1xFuWvID1lYTfQ6Dx92hu7sKayuOqmcSVgZgz097b8DeRWzQtEnoXcat0OXgM9EG3UlEBkaMWq03ugBgGAWHOnmahqAhEAaG8sw9yxYCyOmQ531EFnP4Vs8XjSJXOX00jt7zr730bthgmzm0Fp3kB2JYOuaXrHMkq9ICIiItuZC0YMw0ChUMDbb78NIQSEEHj77bdRKBRgGP4kkWHkVuve+oQ8bgAmqkIe9zCY5o59MNeV+c7YA299d8vIOeMlSvMpYCqLkjcdztNbaXlRRzk/WF2AMT1ItcmXUdctP8x4B3cdRXm/nc8Wq9J+Bdenlpt/PEj8GBG70dcNNIjN9fDycMtbXsbehr8cg9t1zmXY8YSVpUeguw8YmcGnkowXSqWvRM4/WSauzqdgtU7iqX0O5byB/t69wPmT5VYXYBx1sBUWgDXuoXNkYCFwvoZzf60JayqLpTHXA+RwJZ2C1VWSx16ZQX+vic7RDGZ9dSRYL4iIiCiZMxeMvPHGG2i1Wvj444+9aR9//DFarZaXtjUsL83CNGGaJsw7HcwsugGJQOVOB/25Ba+Raq4XYOw3A095nbmoOuMOTNOEaW6i8wTe09XNvb6dp2+aMJ20DnPdGVfhbH9z70BdqcR+ymztOE+0W/fRO0ohfdnfADMzBqBp5IdLIZsHttx9PjJQEAIif+iUizNNCcquXtj19tu80wHmS1IgF0ff6PPSjtz17hwgu6IECXMFZLrufAup+RKEKGG6JU9b8n0mt5rB4R33vJho7hsoxAQSqoeP+8D52cSfEU4DuaQGPs9KMQMDFronMRYnfwXpqT567+uug4FLF1LAk0cRwVAbj54AqQvj9vUJVDTnfWhOb52vzPJlLKV72NoQqDV6SCs9MMPWCyIiIrKduWDk+Jm4Og90GtKT41YNu/KTzlYNu/spZAsmUKzaufdh+fn5Wcygj0NvCEsbtbWop9I5zJ4H+o8felPaGxUl5SWF7Ir7NL8A46iDe15DqY1ay1KevpvIzPXRacr7KK8j2NsA9KUysNepnTaXkRrVAhW5HFr30TsCZl5J2iS7hOkpuazsRt+CWr6Ne+ioAdd+czDGoHEPnSPdNP9n1HIVXQsYMt2t/dGB7zNibRBU6glU3MBH1xvjmiv4epj8PXEJRH3+6BCD2nXcDvAowTgkuX7rPHzcVyeNplFBc9x0LWMaKbXMWjUsu+dZ/rdDrRdERESUzJkLRh48eIB8Po+LFy960y5evIh8Po8HDx74lk0kP4uZQEM9+MYdsdaENVeAkHsldNzAZSVpg9IJJuZL4Q1V9NGRnuibrWmU5GCi0YU1lcYV9//FDIyjHu77GonKOjQ5/kFJGppy6pP6pqQRGNNIwW24D7feuAYv1LSyxRHS+qxDjNJsFmtSb4wvDdCxL/UEmWbkYHStqM+faCNZTVnSi+v1uHRBfdfb6NzeqPHTtYYwYr0gIiJ60Z25YMSyLDSbTdy6dctreN26dQvNZnOMN2pZaMoNOV2DDg9xeCT9N4Ld8NxE57zztDouKGlUYJomNvdmop+euwJP/QW6+4P/mxnjhMYI+NkN+wIgp6QlLKNIbhqb8qdPi0vKDpp86Xg7o9aX0Yk1O1XPyI/x5H4Y1iH6CQOGobUe4QApTMfEdPEpTMHewfEcU7oWERERnbgzF4wAwPb2Nm7fvo1PP/0Un376KW7fvo3t7W11sWRaj3AAAxn1SbUit7pkj+tI/OYf5w08O2pqU7j2xjJMswkrwf6oRLMDpK8gBxOZuRMaI+Bjj/fo720e72+DWIfoy708x8UZO9GMTKlKQH55wIieaUqPM6YoW0hSA4flDNyOCaxi3zZVvIqs741qzhgS3cD/hONUBulaV4An6swTcAz1goiI6EV0JoMROD0k29vb2N7eHqNHBIMGlRJg5Farg6eqxar9OwpN4b35xz+QW5IvoxqRHhJsiOZQXo9uzAUUryKrNsha99FDGldWMzCGGrg+quCg49zqUqJ0qoGHODxSnqy7jWcl599cTxIARgj0ENgvAhhW7pUZ3xiMuLdpBffbfgPVcC8XGEcbtRtOimFgP3Mo31X3bzhibRMd6Afom+tuKqHdU2EsBt9wlluta1Mf7ddXq6lWOZSLWemVu9HcdK1s6I8chrAOh351tloviIiIKJkzG4wcJ7EmDzC2/0oXunaDJ19GfVH+rYg2ao0O+nOFQMPKNTNfksYlDH40Dxi8xrQgpEbseedVv0J4aU/+3gZlTMsiNL/r0Mb9HpCdn1EGrruC42KCjdPheONonPUtYXfINC07oPG/ErWN2g23gTvY14XH0a+PjdWqYWsPUhlk0B0hTSv+zVCq4PiXdG8zOCZEHYCujitxXwcdNj/y884g+ifqOkpI98YsV+8tcW6K4eCvACloaFRgmk0cyNeGlDYX6F1r1bAcWD6k7ELZQdDQEvaWyoavF0RERISz/AvsFHQmfwla+ZXz081EVRss0vMmya/aD7BeEBERjYo9I88NZwxH7/7ZCURwfD949yy4P943eK0yPa9E0//bQlFYL4iIiEbHYOR5ERgEfFbYaW/D/VjiBLjjhuTfo6Hnl5fWFxwL48N6QURENBamaZ15doqIgT46d9RxJEREREREpxeDESIiIiIimgimaRERERER0UQwGCEiIiIioolgMEJERERERBPBYISIiIiIiCaCwQgREREREU0EgxEiIiIiIpoIBiNERERERDQRDEaIiE6NHMp3BcR65O++A8UqhIj5dfjnmLmeoIyIiOhM4I8enln2L6/P7G1ieQMo3y0h3dvE8kZbWS4XMe94mOsChfMdbN6oYZgt5FbrKKV7g8/ly6ivZJE60q8rsDwg/QK9ZL8Jc00A7mfmU/JcQP61enebyhLWjolKw2n0LfrW7tPfO7lyfWHky6ivpNFzz0nSec8l+3rNPhnUYa1iFWIRaJoVRCz13DLXBQqIKSMiIjoTzmzPiGEYuHbtGq5duwbDCG8snmpjPN001wsw9punoiEs1jbRQRZLqzl11mimEq4rX0ZdFIAdE6bp/jVhqcsddbDpzTdhmmrDto/OHWn+jgVjUaBaBNCoDKbf6aCvLHsayj/UGPWLJqWN2g2TjWwiInphnMlg5Nq1a7h58yZeeuklvPTSS7h58yauXbumLvYcM5GZ66PTPC0NljZqLQup+avH0PDto7NnITW/hHJeneeXu5xGar9p92B4BCrjNuQaFTT3gZlXEgRERERERDSyM5emZRgGbt68ibfffhsff/wxAODixYu4desWbt++DcsKPBdPRk3HcVOF3DSRnR7Si1mkYA1SI9QUHyk9CLr5UvqRuS5QmBssCnm9auqRmrZUrELkD6VpUalYmnkR+wVNapOXsgQpbSZQHvY+w1tWTiNT98kWSLuSUnIeFYKpX+ry9n4eRKaqqJ8J0KYBacosdNkxOefiQC5jH3dfmuilC8hOyecjvJ5E1y8nFWhKmqts302DaaKAwpyTjvb+Fef4dzG9MthuIFUtpn4FRJWrbp56rfquu/AyQdhxhdTPwLrk9D7NdRK4/t1UqjuHWJDKQy1rP33d859PC80doJAgTSvR59Tz5TuOwf7sXigN1qU5p2p5JLtvqPuoKx/lPOw7509N01LrhWYfiYjo9DlzPSNvvPEGWq2WF4gAwMcff4xWq4U33njDt2xSudU6xOKMlH6zic4TeYkUsnlgyzRh+gKRNHryZ84XfIMqzcI0dr3UIDuVqeTMF2t2OpDdSJTWKzXq3VSg5pMsSnfLcJ/TmxkD/d79Eb9kTVSdxq/uWL3Gu5SaNOOmLHk05YGHODw6vt4EsdaEFZOu1d7YQufIQEHUY3tRhpFbXUJ2ysJuaCP12UvNLwAN+5zIgUhYPYmuX86YBOUc19Wynisg07WXGTSMU8iuZNB1P7sT7MWKqvdjy5dR912rclpedJl4tMelyNspgDN7m966NvcOvNnmunACYek4zxcg1G3BQKHoXismNvf6MBaHS53zxmR55+sQCxHjmFyJPpfgPgYAqfmSV2amGbw2R75v5MvIPB6UsZ0iKV/Pg4ca3nl4vKAE2rp7uHPumaZIRHTqnblg5PiZuDqfgrUjP5Vto7bmf6Jmtfz/NwtZYG/L/5mWBcxlvC8/sSY/tWzjfq8PnJ9VGit+udUFGErqkWh20J9K40oeAHKYPQ8cfBTSiIqTn8UM+jj0WnDysZq4Og90GtKxtmrY3QeMjP8rXS0PoI1HT4DUhUvO/wUqUY29WAIVTUPXz86v39wDsisCIiwomcqiJASE+xdoMKacz9t/S9iSGu8nrFXDshdgRNjf9fUaxNcTvdzqAoyjDjblJ8qtGrb2+kilr/jL5aiDe5r9snaksmncQ+cohfTlwSdHqfeJGdNI4QCPvLIYpOUlLpOQ45KZhSxSypis9kbFe+nBwlwfnTv+46w1NNtC33c9tTd2YcFAxtdIj+BuS7kml3dieoATfi7JfQyweyMG5Spwz1dfxrhvtGqoyPeIRhcWUph2Yia3vm75zsMymvuDj+jv4c4DjWHKmoiIJuLMBSMPHjxAPp/HxYsXvWkXL15EPp/HgwcPfMsmkp/FDCx0IxsncuMdXkCQmi8NGrhCaN+6ZK4P5gff6hR06UIKmCv416t529PIWjXs7juNb/VpdX4WM0rDXAg13Qea8rA9fNxXJ42nUUFzP4VsUQ0e/Noby85TZzsoCTzhVwewB1I3BoPSN/f6MQHQZPQfP/T9f9R6culCStur1n6/h/7UNNxQEgDw5FFgubBzrxq23ifWuOf0hgXPc+Iy0R6XzL6+rW5IOGpMI3XUw301pax1H72jQUPaJgdOIwjbVpxEn0t+H1Prn8+Y9w27F8r9nP/NeGH11Sf0Hi7Q5dgvIqJT78wFI5Zlodls4tatW17j8tatW2g2m6OPFxmR5XuLk/snpXEJ5/WTbnrBXrLGel9KSRj8afLpRyTWzEE6hlCDEjetR/kbd1D4iJKka7naG8tO2tDoA+ntp64pZAujruHZOel6MpIx6n0yztumzCYOnEa0HJScyjI55SLvY4mNdt8w1wWEL01M8zY8IiJ6rp25YAQAtre3cfv2bXz66af49NNPcfv2bWxvb6uLJdN6hIOhu/LtlCQ1BUGWu5y2fy8j5stY9fCxJl0mlpMipftc/grSU3303lefLTqNuh0pJWOkshi4dCHwDPoYDNK1rmCQsx/KOkQfM5gdo2dDNDvozxWUfPfTZbR6Ev45u74eIuL5dyIj1fvWIxzAn+rlstene8JvpwFuSulCYcc2vJjr2zrUpGMNrjXt0/9xaLaVe2XGP0En9nMxx5nUyPcNE5k5BNKrVMFzavfoeEK3b69/5JRWIiJ6Js5kMAKnh2R7exvb29tj9ojY+c/+QZM5lNejU4NE1wLUBmu+jKrzlLb90QEgp73ky1hS01U0DWc7XUbtCTBR9Xov7AaEmnpg58arn8uhXMwiJY83kPYxyE5rUAfY5larCdKW7AbCIJ3DRFWTSjMSN11r3p8+otsvs5ANabwOwRlDoZbDMMx1aWyK01vg1hXfPJioho11iRBfT0Lq18YurCllQLlTNwP5/CNIVO8DnDEIanqcbr+K1dAgMVGZJOQGpHL99eqbl+oo1w/NtXYcnDE5vlTFJGWa8HNx97FkRr1vBF96Ya7707R09zX7BRPSQtp7uLOuBOODiIhoss5sMHKc2hvL0iBoASFKSD+OyVNuVLwfxxvkp0+j6w60bFTQ3Ldz24UQEEVgV01XkcdvuG99adWwfKcD+PK4F3Ao/aaI9glwq4ZlKXXFO47eZiBVYkZeRnnNp1gz/fstBEoXugkaWJcwPXVyTyHtwaiqmWCeOprBMSHqAPYEQZI70LgwQkN2KMUMjFGCpwT1RFu/IFAxm7DksRVOmkzsIPokktR7DTvF7sB/PkP2S77mfK9tTlImSWnWVUofeucpeJ3or7XxtVG74byRTCrTrbgB7Ek/F3cfSyhYHknuG/agf7mMM13lOtechyVsKQPYdffwkHsBERGdOmfud0bIedKu/vbCpLm/qTB0rvmLLbdaxxK2xnjrGNEQeJ0SEdEpw56Rs8h94n1qBlnnUM4b6O/dYwNnSJcuQDOeh+hkmBkD2O/yOiUiolODwcgZJdbsVJu4dKNnwVwvIQv/bwFQMmLtFPVu0XMkh/JddQxHHYW5PjqjpK0RERGdEKZpERE9h8x19bc++uicptROIiIiBiNERERERDQpTNMiIiIiIqKJYDBCREREREQTwWCEiIiIiIgmgsEIERERERFNBIMRIiIiIiKaCAYjREREREQ0EQxGiIiIiIhoIhiMEBERERHRRDAYISIiIiKiiWAwQkREREREE8FghIiIiIiIJoLBCBERERERTQSDESIiIiIimggGI0RERERENBEMRoiIiIiIaCIYjBARERER0UQwGCEiIiIioolgMEJERERERBPBYISIiIiIiCaCwQgREREREU0EgxEiIiIiIpoIBiNERERERDQRDEaIiIiIiGgiGIwQEREREdFEMBghIiIiIqKJYDBCREREREQTwWCEiIiIiIgmgsEIERERERFNxDEGIyaqQkAIgWpRnfccSr2OX/6Nb+Fbv1FAWp1HJ+xl5H59DdW//1V8PqXO08mhfPcFqptEREREZ0SCYOR1lL5jN+SE2MLaojr/BfUrfwtfuZxG+rKJpV9VZ9KJyi9j6Yuvw/jFL+HXv/Z5dS4RERERnRHxwcj8W3h9xv3POfzC//4rSPQw2pPFV1ar+E79u/hGXp132r2KN6+v4dvf3Qo+UbcO8MlPADy10P0DZR6dLOsRDp4C+Mkn+Hf/uqvOJSIiIqIzIjYYyf21DF4G8NlHB+gDODeXwdWhopHX8UvzBmZSfwHn1Fmn3hw+//nX8erLmj1vfQdf/zUT5vUKxB+pM+lE/Uigct2E+Wtfx3d2++pcIiIiIjojYoKRL+HN11IAPoP1w3dhPQVwLo3/9CuvqgsSEREREREN5adee+21P1cnen7lW9j6G2mc+6yH7y99C/gHW/jKz58DHr2Lb5a/hw99C5uoigIMANaOiUoDMNcFCnO+hWz7TZhrwv73z38JX/vql3HFeBnnfhrATz7DJ9b/gMY//h7aT9wPyOv+Fu7/J38P5i++DHzyB/jO17+DX3C3s9/E17f/Ar75a38NhtOb8cmPfoDv/8PfxA+kB+gv/1UTy1++gtdfeRnnnE6Pz44+xAf/6jdR+1c9AEButY7SvKYL6KiDzRs1tPNl1FeySKGPzp1l/LP0t/HtL74K4AA/uPkN/OaPpM9Iy37wW8tY//0UXv/S38J/Xvg8jAsp+7gBfPaJhf/ht9bxvT8Y7OzLf/Wr+Ht/88pguZ98hv7jDn77G9/Bu4MtBHhlv9/Et9pz+Ht/83W8/NOf4A/+q6/jO+8DSH0eX/mN/xxffO1VpJwy6D/q4N5vfRe/2x1i+8UqxKIxKBfvk4N96O9tYnnDnuPfr1l87T/L4tUUgJ/08eEf/Daq/9W7+A+f/yrWfn1wDvuPOvid/6aGptcDFaxrrtTnv4qyeQXpGefcfWLh3d96D3/x+teQnVKWP5+D+etfxpXMX8TLn3MrQh8fPvgd/OZGE3ZNAIAUXv/Pvoav/h+zg16yn3yGT/74PWz+lwIfeMsRERER0TAiekZS+ErWwDkAn+138fsAfrdj4TMAmP3L+PIvqssHffb0M3z29LPBBOf/3rSfN1H9L76KN//Syzj3Z5/gwx8doI9zePkvfQml/1sZb2pigdR8yQ5EAOCnz/lTv85fwT/621+C8bPAZ84mXv65N7H0fzEx6MvJYfmrBWR/7mXgz/o4OPgEn/0EODf1KrK/WkbZGdfy2f/6Y/++f+bs+49/bJeB4sPv/yEsAMAMXv8/+HuOcpfT9jibJ100fx8Avoy/9dU37Qbzn36Cg4O+vQ8vG/hSaQ3mz9mfSy2U8Y/+9peQnknZ5fPHH+KTPz2H1MwMvGE8cT73eZR+9XW8/NMA8Bfs4Cv1Jsq1b+CXf/FVpH6mj4MffYhPPgNSs1l85ZtrMH/e/uixbD/M+Sv4e7+axas/8xk++wmAn07h1ctfReU3voa10pdgTA3OYWo2C/P/9FXpHOqlFsqofcPeX7j1b8rAl0p/C2lNpl3u15dQmH8VL/8M0D84wCdPAZxL4dV5E+XVnLdcuriG8t/8vB2I9A/sevpn5/DyK7NwaiIRERERjSA8GEl9Gb/08+fsFK0H99AHgHe7sD6D3eD+61n1EwHf/4dLWLr+ntNI76PzW0tYur6EpX/4fQBZlP52AcY5oP9vBb619HV88+Y3sHzjN9E5AvByFl+5HtzGzCvTsH6/hq+bJkzlSTymfhb//t11LC8tYWnp6/jev7Gf8J/7S59HwWngA8CPH3Xw/eoylq4v4xvf+DqWbgh80If9BHyhAAD4g3/6DSxdr9v7AsD6fWff/8+b0I5X7/8O/vCP7NbzzP/ui1LDOYu/YtiN4096P0DHmXr4x+9i8++YWLr+dXzjG8tY+gc/wAEAnDPweSeY+eJff91u7H70A7t83v4mvn59Gev//D4eeuuP8coMpvffRe3vmDDNZdRaKfzyN5eQfRn47KMf4Ds3lvGNm9/E15e+hXd/9BlwzsBbv2a/pOBYth9m6mfx73e+BfP6Epb+7vfwgVPOr15+E68+ehfrN5awtLSM3/xDp5dm9i/7zmFQFl/7G1l7fz/p4Ht/x7TP1699C6L3H5D6nLo8gB8/Quef2/Vl+RvfwNevL0M4vUKpzJuwa8Lr+NJ/6gTl/1Zgefkbdj1d+jo2mx/gE2WVRERERJRcaDDy6ld+CQYA4EP0dpwGYf8eeo/sf76ceQuDZ8cjyL+FX5oBAAu7ckpM/we437O397Lx+cDT8M/+7fex/lsdfSPwo/v47vc+sAMnfIJ3//uus9zPYto+GABtbP7Dmi8VCf0mOvt2IHEu9R8Ppg+lj+97PUe/MOjVmX8Tv3AeAD7E+//CDUUEam/LaWgA/qiJDz6y//mz03Zu22d/6sw7n8abf9V9Bt/HB7/X9AdhUZ728P3q99Bxt5X6Mv7Kz5+z1/MvfhODjLAevvfATrw793M/j4Xj2n6Yj+7juw3nrD95F7/7bw6cGZ+g89vfc4LDPn6wqzuHGpfdcu7jg39Rw7te2fbQrP4rfPDUtzQAoH3nW6j9nltfAKCP5p5zDj+Xgl0TDvGnP7HnnvvfZvHFjHtiP0H795pM0SIiIiIaQ0gw8jq+/EtOGLDfxe94rbU+fqdr93NgKo03v+hOH4Ex7bwi2ECh7v6Oif3njdX42WmoQ04+/OOm1HhUPP2xfxzL+wf49/L/XeezKPx6Gd+69W185+4WtrYEzIwmj2dY//J/wr97CgAGMr9iH0M2/wv20/r9P8RvS+NIUrNv4pd/Yw3VW9/Gd9/ZwtZ/+228+cpgPgA0//l7zksDXsWbf/u7EPXv4Fu//qY9xiKpj3poygX2l2edFKsUsiv+cheLTmvfaYgfy/bDKOfqg0NnJ5/+CP9uT5oRdg5V6Rm7nD97hA9+X5156KV8+b2M7OJXUf6/VvHt79Sx9c4WRPF15a1vH+Kf/e4f2K9xfvl1fKVSh/jut/ENtxeGiIiIiEamD0bk3xaZK6AuNVjrboMVKfzCZTuRZSw/6ePDP7Zgaf8e6XtAxpEv4Tv/jzLML2aRNv4ipn/yJ/jwf7Hw4Sfa1uqQmvif/8huVL+avooUsngz/TKAz9Db+x0viHr1V76Ff1z7Gr5y+XUY/8lfxF84+hN8aFk4UKOsPxKo/MY6vrfbs+elZpD+4tfw7Zp+PM1wPsMn+2p5D8r9ACe9/RCffYZDddow/uxPtWN6gnIofeefoFz8ErKvGfiLU/8Bf/LoQ1iPPgl8vr/7HXz9726iufehE5S8is//Shn/ZN1EWlmWiIiIiJLTBiPub4tAGoTu+3PTVtJ/BV8ZtVH6vxzajfOf/jF6/00Flbc1f98+/jcV/fJbn8fMOeCzH72Lb/3aEpa+/k1U3q7gB/5Xg43s3R/2vN9j+eIvXoFxHkD/36H9226k8Tq+vGAPaO//4W864xW+icrb38UH/z9lZQDQ/wDv1r+Fbyyb+Ppv/QEOPrPH03z5119Xl0zmX/+J19j/0Q81Zf52BZW3Nwdv6kq6/alpXPJNeBOz530TTtbjvpNe9XP4hXll3s+lMTOlTPuVL+HzM+eAzz7Eu/+lPXbnm29XUPnv5degSZ60ITa+ia//2jLWf889x2/B/BV1QSIiIiJKShOMuL8tYr9+tXTdGbgt/ZV+t2c3/M4ZyCwmjUZSePU16Tny7h/C6gPADK783a8hJzdcU6/jl/9+9UR+sf1/477Lt38AZ/gLUpmv4k3d65YkM3OFZL8833oP3Sd22fyVv5XGDID+w/9Zeg3vy/hZZzD1jw8/9HpLXv7iV/F5JU3rS8Wv+srlk9/v4ENn7MN/9Bd+djBjGP3fxwePAOAcXr+2hl/2xkAAwMvILX8ba79q/y/R9i0nqISBzy+/7pRRCp9f/jJeVwOAk/Q//pHzcoWXkf3Vr+Hz7mGlXsdXv/7XAmOPkHLexPZnP8bB/9ed9jq++uYvKGlar+OXv/rLeN0rpj4++FcPnYDuHM7pBsYTERERUSLBYORXcviFFAKpRbL+b7tjI84hfflvBBt6Pg9x6Lwpaeavfwtb72xh65YJ4F38k39pDx4+N/smSv+1sOe9swVRX8NXfnHmRH6x/eFj+4jOvWai7myv/vcv47OPdEf6h3jkDIROZZzl/+tvxAzc7+C9f3sA4BxenZ0G8Am6/2/5F0H28eiJ89atBac83tnCd4spHDgD2F0zmS/Z5XL3O/h27bvY2rJ/KwM/OcAH/6P2nQqqXX8AADSjSURBVF4JfIjv/Xc/wIefDcZAuPuw9d9+F6WFV5H6GXvJRNtvvYc/dMaezyys2WW0Vcc3cn+KP1GO50T1v4/fed/ekXOzb+Ibd51juruGL01/CMupgx43iPpcGqa07OU/+xOlzr+MX/irX8Ha3S1sfffb9tiSu1+y6/zTHv6n3/MtTERERERDUIKRwW+L+FOLVIOxEZh9HV+MfOVqG9/979r40Fn83OfO4U9/bOcj9XfWUf6n76Ln/s7G587h3OfO4bNPPkTnX22h3vKv6Ti07/4T/O6/OUD/JwA+dw7n/uxP0Pnn/xj3/kRdEgD6EP/P30XPHU/yuXM497QfO47lg9/5AAcAzp07B3z0r/H/kgdk40OI//s/Q/tH9lrOfe4czv2vH+LdzXV0lTc+Pfz/fIhPnn6Gc1MzeHX2ZZz7mc/wyY/+AN//RxVs+tY5pL3fxD/49vfxBz9yfmPFKXf0D9Db/R7+2b+0F0u2/Q42/6lA55Fzgj93Dud+bOHdzX+AP9S8weokde5U8J13nfEtP30O5/4j4MfWu9j8L+4Fx6G0vot/8nsfSMv+Kf6kI/CPm+5bvVz7+Hd/fID+n57DuZdfxaszKZz7sz4O/u272Cx/C78bdokQERERUazoX2AnIiIiIiI6IcE0LSIiIiIiomeAwQgREREREU0EgxEiIiIiIpoIBiNERERERDQRDEaIiIiIiGgiGIwQEREREdFEMBghIiIiIqKJYDBCREREREQTwWCEiIiIiIgmgsEIERERERFNBIMRIiIiIiKaCAYjREREREQ0EQxGiIiIiIhoIhiMEBERERHRRDAYISIiIiKiiWAwQkREREREE8FghIiIiIiIJoLBCBERERERTQSDESIiIiIimggGI0RERERENBEMRoiIiIiIaCIYjBARERER0UQwGCEiIiIioolgMEJERERERBPBYISIiIiIiCaCwQgREREREU0EgxEiIiIiIpoIBiMAkC+jLgSqRfn/dZTzynKeHMp3BcS6qc44Nua6gLhbRk6dJm1Tt0xAsQohqji5PX3BPOflmahODUO9tkKodfu595zXIyIioqROVTCSW61DCKH8RQUFz6l8GQtzFpo3amir8ybCRPVFPA/0QjDX1XsOg4TnlS7oDX7vyPc6E9XAd1J8cE1ERMmdqmAEAHDUwaZpwvT+llFrqQsds1YNy6aJSkOdEaaN2g0T5ppQZxyDHMrFLA52Kohbu1gzYT6DgCW3ugBjf/fkzwNN3LHXqaGvrWfJ7uEsoCndb0w099XlTofcav14e60UJ73+08hcFyile77vnM29A3UxWDvSd9KOBWORAQkR0XEZOxhZWlrCO++8g3feeQdLS0vqbBqaHeicnsZbDlfSKVjduNCI6IzJX0F6ykJTeagg1uIfBNDzwERmro9Owx98tzcq0Q9eGhU09wEjw/4zIqLj8FOvvfban6sTk1paWsJbb73lm/bee+9ha2vLNy2p3GrdfkoV9mS2WIVYBJo7QGHRsKcddbB5owas1lGaT/mmyesw1wUKc4P/WztSgz9fRn0ljd4dpxdG/X9ADuW7JaR7m1jeaPv+v3uhNNiOtB/muvME1tfwUdaTL6O+koVzFIHjUNeh/t+b5h2n5ZQV0DTlBpa93eyUN8FfHrJiFSJ/ONgP9xyYXWREAc5ZQH/PLQtHzLFEzg+ZdylwvM5xPJGnmaiKBRxK5y4n1w0A2FfOg1qv1PMWU56Rdcsnvp54ilUIt46HLaMT+bn48+6vU8ewv9pryURVqjvYb6KJQqAuq+dNf83uYnolpB469egg7HzEzXep9dFXf9wyaqKXLiA7BVh/2MHML6nHLF87FQj53+780O0Ez5v2HAD6/XGPb+T1K+cLfXR8xxayTSvBOYJmv0KPbUCtG4F1hvDXb/u4ZiI/ay8DpY7EflcBseWmHkPofenOIRak8lGvWR3/PUk5XyH3O/f+2kQBhTm5TIP1I7APIesMLxsiooGxeka+8IUvqJO0046XgUKm63SZN2FNZVESAqULu75pS6tSskG+jMzjTaWb/fjHQKTmS8h03e58/36IrgXMZfy56MWryE5Z2HW+CM3CNHa9dIFNdJBFaYhBvea6QOG8lOZ25xALcgPRXgpV4TTgveU6mFkUqMtl5i6dMdDv3Ve+VAwURAZd6fOYL/k+H30sJqpOI9Cb/8T7ZOi8QBnmryA9Bf+0YgYGDvDI+eI11wVK8wdoyvtyvqBJR5HqlRyIxJRnbrXuX2bH8s3XiaoncNYpFmfQueMuY6L5JItSzFiG4OeUch3ivMuG3195u6pBA9Ddj83HC75gDnJjT9lXf2pMCtkVqR7uWEjNLyW/rls1bO31YUSVgRf0SMd2vhAYd5CaXwAa9jKVb99H7yiF9GV5nTmU8wb6e/f0vS6R27F7Szf3+nYjz4xPpfPtjxeIjLD+fBl15XyZOwfIrqjnQrNNe2rsOYq+V+iYuOrd7wf3H3V/4glUdiyk5kuB8xnn0oUU8ORR+DnQlJuc/jXUfakIbHnr6MNYjL4PeAGX73yp33fB+x0AYK7gXet2IDLMfSNknUREMcYKRk6EE1x4gwUDN2c5rULg3l5fOy2VvjL4XKuGivzkq9GFhRSm1Xb6uPab0pewsh+NLiwYyEhfmGbGAPa7XuPEnx7Sxv1eHzg/myyHO1/Ggppy0KphWWkc51YXYBx1sCk/gXMaZb4yg7vOQbA00EfnjrSvms9HHkt+FjPo49DbtTZqa27jJ2JeowsLM5h1vlRzl9NI7Vv+aa/MDMrULRN5X9FGrdFBfyqNK74v5z46TalMEpZnoFHSqMQ+tYysJzBxdT4Fa8f/VF2sNQP1x0/3uUHZDXXeVUPvr3TOFO5+bEl1qr2xrIzTMHF1HoGy39Wkxljy2KrGPXTkICDBeJX2xrLXmBUi2MAyC1lgb8t/bC3NgwXfmCq7vvvKNX8F6ak+eu/rSmWI7SSljPEadf1mIYvUftPfcxCWphQyrizyHMXdK7QEKr56fB+9I2DmlfBPhGpU7AB7rmB/3yQISnKrdRTmlPuFQlduXvrXsPcl6Tpob+xG3wfcl5/I5aMp88D9znXUwT1fD9Aw942QdRIRxRgrGPnhD3+oTtJOG4r7ZM79S/KE5egQD9Vpqrz9ilE7yJG7zo9P/3HUXtiNuMEXuJOvrNy8TenNPr4u/DjGNFJHPdzXNAZkly6kND0dQPv9HvpT07gkTbMb+4NgaWDQ8+Bqf3QAKJ8PPZZWDbv7KWRXNF/+UfPwEIfSl+qlCylY3Qq6++40ZXxLWJm07CfX/mBUOaawzypEs4P+XGGot75F1pP8LGZgoRtoQAt09yMaXKGfsw1z3lWj7a9e2H745GcxA6cOSA8m1N4T+ILWMThBixeUeA9Acpg9b/cM+d6mFOhtDJZRe2MXltSwtK8lfWN9mO0k5d+fUddvf043Xkx0rUDAoJaBMzXROQq9V4SS33KlpJgNTaBimlJQEux5MBbl/TtAM/LFKuHlBkTcW5Lcl+IY00jBQEE+z9ryCVmv0tsTdr3q7xsh6yQiijFWMLK1tYX33nsPT58+xdOnT8caL3KSzHUB4UtRaCLB9+Oxa7/fQ999ElnMwJC/kJxgSe5e39zr+1fwTDlPp0d50pXgWMSalJog/IFH+Dz5ibOJzJzdCBZdy57mDEhO2jA+Fm5D1kldGSYooSiWlMIi/clPaI9bq4ZlJw3tqvTk2fcmJe8vbpC7CA+SQ4y2neROev0jSXCvUNmv4rXHcdif2UTnSF1qFAIVcxOdIwMLSg+Zv+wmXGZx1Ad6zl/4uBgioskaKxiBE5Bcv34d169fP5WBiN0DgUDay0S07qN3ZHexq2MxcpfTSKnd4cMKdPE7aUuSh4913evu9qUeJjVYiiGnnCU/FucVyTu6dBH9PO+JXDEDw+21aXRhTU3jkjHt78mxDjVpD4OUmdgntprPquXpaVScRpGaDjGk1iMcaNMw7Hp88FFIgyL0c7bE531YMdvVCe6H/STZM8I6j89DHHopP208eqJJR0ooeZA83nbijbr+8M+ZGSPwFH0Uye8VLjuw6+9tRqbf6dn1TN+D47KPOXUhqq8wTni5AcdwX4oStu4Rndh9g4hIMnYwcvrJjQubuX4yaVrx7DxtI1NFRhmLEUhzypexlChdweHkBWeL0hgbzTrs9BFlgKiznNVyU+LswbaD/6sMFOSxPMUqCnODtITYY8mXUQ0MfnREzcMgoCssGtKT5oc4dKb5GhpeypecdmH/jkt4yowjYXma68GUjvE46XzKCxbM9QIMJZ/bT/e5HMrr9v4nO++jiN6uSjQ76AcGwC8paSR2Spo6UDe3Wh2u18l56h46sFlX14pXkZXGdtgvTSj416H7nE7jHjpI42ohDYQNXHck2U7guhrCqOt30xB9Y2mK1dgxE0kFtqm5xvyCwUKw/oQIjNsxUVVTQfNlLEj3slHpys2rv+Pcl+I4qV6++9YY96mTu28QEQ2cvmBEHcCuGVQ6HHtgoDtAVQiBTHcyaVqA8xR/zhg81femV9Dcl3J9i8BuTLqCXxu1G86baKR1bAXe7iRQkQdsikEK2+C1qXFPci00W9OD7Swa/lc9JjiWGTl/XXnFadQ8b4Crb5yCOy04QFismf59EfarauPTfZKWZ3Dd46ZDtDeWsbkH35iJApqx46eCnysh/djtfUtw3kcUvV1Fq4ZlacC4EAJL2Ar80GDwvAmULnTHa6hp+OqacOub1IvaqHg/cjcot2l0E53jNu73AGMOgXoZkGQ7jXvoHDllEnixR4xR1685X4EyGkeCe4VKrPnr8RJ2I9O0vF9YD7xi2n57lO/8H9M1oSu3UvrQ62kO1u+k96U4mvuWEFh4HB0Mhzu5+wYRkWus3xmh55O5LrDwOKRRrft9BCIiIiKiEZy+nhGaLOe1k7FPcomIiIiIxsRghPxaNSwfVwoGEREREVEEBiNERERERDQRHDNCREREREQTwZ4RIiIiIiKaCAYjREREREQ0EQxGiIiIiIhoIhiMEBERERHRRDAYISIiIiKiiWAwQkREREREE8FghIiIiIiIJoLBCADky6gLgWpR/n8d5byy3GlWrEKctX0+jdRzr/7/GJnrAmLdVCeTw1wXEHfLyMn/P67yUq95enZ4rxrOCd6DgMG1IM769VCsQogqjukOQUTP0KkKRnKrdQjnpjj4O8GbMJ0Yc109j2f8i+6FZaIauCaPMSgYw4t9vzi95+V5FqxzZ72+maiuZHGwY8I0TVQa6nwiopN3qoIRAMBRB5umfWO0/5ZRa6kLHbNWDctn/UbcqAxRVnZD5kSCA+cp28LjTekcmjB3LMy84j7jPkZ8GvZMWE5jxftbE+oix06smTBv1NBWZ8hGvV8Mdc3nUL4rUF89gfo75roncV6GkVut+3q3gGHvVaeHuS5QSvd89W1z70Bd7HRIel/Mz2IGfRxa6gwiomdn7GBkaWkJ77zzDt555x0sLS2ps+mFMnjKtryhNCEbleA0IqIzwURmro9Owx8ctzcqZy6oIiI6bX7qtdde+3N1YlJLS0t46623fNPee+89bG1t+aYllVut20+ewp6GFqsQi0BzBygsGva0ow42b9SA1TpK8ynfNHkd5rpAYW7wf2tHeiqaL6O+kkbvjvO0Tv2/Tw7luyWke5tK49pEVRQAd735MuorWTh7pN2nIHsdzpH5PpNbraM0D3SkfbKnHaBpViDcsjErsJ+N2vuZnXJX1rc/a1Qh3LJzyGXhLyfnM872zHWBwvnw44g9fz7KsSrbkst590JpsE9SmajnFLDs43fP304P6cUsUu50uHVIOn71vKjnXv0/ENx3ZR3mukABTTRRQGEO6O+pdcW/3OBptlom0n5Dqv93DrEg1a3B+VPP+YC3zND1UqnXAe55aqKXLnjbtrfnPx7fNYf4fVHLR/1/VH2LvV4051WtT9aOiYql7CP859Ne52Cu/r6yi+mVQTl4n1ePf5h1x5wX+1j89Sd4/ar1TXO9h9wLvLpodpGR1jHYf01ddM9v4F6F2H1Jcj84Wfb+zYRcywPD3hveQy/9VvT3iRWsq1HbUetx4D7iUOuXb7mk90n5HrsDFJTz6rvmnGnmut1zbh+vet5D7nnud37oceq3rxM47v2oe/Bx1sPwcwZt3djE8gYC99fBfSDpvuo+S3S6jNUz8oUvfEGdpJ12vAwUMl2nm7wJayqLkhAoXdj1TVuS0x7yZWTktKEdC8biqLm+bdzv9ZFKX/GnHhQzMGCh6zbqC9PY9brzN9FBFqXIfO7Bl4+7n80nWZScFIf2xjKa+ylkC8468mUszQOdO/obr7leQvZJM5hO0KjYZSSlePgCEQw+Y+4cILuStJxyuJJOod+7H3NDdlO57C92/7aCqWOp+RIyXbdM/OdWrNnn0v4CM2H6voRSyOaBLWl6brUOsTiDzh2ljJOkM3iiz5NnruDtd3TjZSC3msGhvG/7BgrqemGgUHSPy8TmXh/Gorv/bdRuDD5vmpvoHNlfat45HrpeJpOaXwAa8j4JCLHgHY9/P20ntS8Y4XrJrdbthrpXH528lVYNy1I5yufTC4bcz9zpYGZRrcMpZFcy6ErrTc0v2dfU2OsOJ9Y20TkysODeB4tVOzhxGz+aa1BOOUp2LzBQENKx3ekA8yUn5cyui5t7fbvRZUak3Gn2ZZT7wciK5QT3OIHKjoXUfCliXM4o94Yt7fdJbnUBxlEH97QNx+jtRN8XB9obyzDvdNBH37knDnufVO6xjS4sGMh458z+ToBvmonMHHDwkVvPE97z3O98ORCRr9c7h1hQHrLpmOvCCY6kOuTOPNF6GH3OPCHfG/L91XuolHhflc8SnUJjBSMnwgkuvAGC6sUKC03vKYbAvb2+dprv5t6qoSI3CBtdWEhhOv7epdXe2IU1lcYV6QvMzBjo793zbvpiTf4CsAMYnJ9VjmUgt7oAY7/pu1mIZgd9aTui2UF/bgHlfA7lYhbY29L03ABADrPngf7jh96U2HSCfBkLc3I5AmjcQ+cohfRlqfEf1qBwuF8yUcxCFqn9pr+R3qiguQ8YGeWL3lcmmnMbwWrJ+2ri6nwK1o6/t0usNZUv0GhJzhNgP/XSNyTCqedIdC1gahqX5IXgTxVpb+yG7r+5XkIWHWxJ5TxsvXTZwcXgT/3C60t10d4n3TT/fo66Lz4R94vk1wtw6UIKePJoUF8alZgvbhNX5+FP22nVsKupw9aOdJzKNaWXfN3h56WNWstCav4qTJioLhq+/dBdg179S3AvsPX9wV2rhq0hrk+Xbl9O4n4QqvEI04FAS8N9kDNX0L4sYNR7Q/v9nrJM9IOdxNsZyXD3Sf89VqC7j8HYwPwVpKcsWL5ps5iRHtolvuc1pbqYL2NBTZlr1bDsPkAI437O90BCoOL2vJ5gPUx8zsK+N/Z3feU03L76P0t0Go0VjPzwhz9UJ2mnDcV9iub+xTR+AQBHhxg0u0PkB68vFL6uzVEIdPflL2Y7n7j3vn9PTemNUv7u8KBLF1KA+yXn/ikpHPaXPZBdCTYy/dyGSCnZIEYAMKaRgoGCvH2hT/mJEj9I3Q6UrG7wWZ3oWoHGqBxQDUcZlKl8CQ4oX6AxEp0nwN+wHUJOfluP9knfAR4l+WIpVlFQv7Adw9RLlzpQOrqhbksUmI6wLz5R94vE14sbuBSSvx0pP4sZpJBdka8XNT0GwXqYROJ1x5yXRsV+0iwKSkMo/BoEhrkXBOti+6MDTWMySvi+HNf9QK5j+r8CDKQ0PT86AhX3afhcwXd/Hfne0KphV/4+cRrxuyH1NfF2RjHUfTJYtx8+lhrlxjRS+11UupY3LXc5jdR+19dTM/Q9z5hG6qiH+0nug7LIz51sPUx8ztS64fBv72T3lWgSxgpGtra28N577+Hp06d4+vTpWONFTpK5LiBW0uh53cFS1+yIhHSDRTEDQ3764AQ+cprD5l7fvwINN1XD/+d/QtX+KOHbWxoVZ7szTqMiQVCiNuycv2RpRm08egKkLiRvhpxVSc7T8ExUhfK2nrgnfaHcJ+HKPo1YL0/EM9qXxNeL83YtN9UhWVDipsEof8fyRqvjWffDxyOW6Vj3gtNFrAWPw//XhBXIt48jUDGVVLgx7g3y94muwa4adTsnTe7lMTOG3WBudJ1MArvHZ9CIPs573ul3Ws8Z0WkwVjACJyC5fv06rl+/fioDETdHNdAwG1fjHjpQbrqO3OU0UkcdbA7RcPA9UQploro4g84dO78+OkfV1t5Ydr5sg13sPtZhsMt4SKJrAXMLMY04O2gJdCXDLsewJ0Njaz3CgbYM/DnMcZKdpxE4Y468nP4xmOvqk3DbKPXypDybfRn+erGD+E1NSpIitD4dg+Nad76MpfkDNJ2n+HIKV9g1CIx3LzAzBhDTkPYL35cTvR/IirM4HCoQcfkfwIx1bwhtsAeNtZ04oXUv4X2ydR+9oxSmDROZObeHxc4kmDYuYXpK6nUZ556nqZ+5V2b8E1SR9fpk6+HxnrOT3VeiSRg7GDn9HuLwyN+9bK6Pm6YF2DnuQPpyWbrpOnPUVIV8GUsxKSj2EyW1wWSi6uUl51C+W3B6YNw0LGcgbEAO5XV1rI0sWCbul0i26P+cuT7oUTGVX8QOaFSwuQftIDoUq95vKbgpMb7fVnDTiuTc4CSsQ/Qxg1ltOcjsvF71xQXmeiFioGhQ/HkaUeA47N6NYeVW6/ZAZU0jf5R6eVJOfl+GuV789TxI1+tnp62og/Jzq9XQbeid1Lrt12xj7x6EV/cH69Ndg976E9wLbMpg42IVhTl/+kjgPGvo9mXk+8EoGrUEgYjmGs+XsSAd73j3BoF7e0C6cBVpRN+PEm0ncD9Jatz7pD32y1gswJCC0oePnWlySnVgHxPe85zxS776meT+4aTDZVfkejwot5Osh4nO2RBOcl+JJuH0BSPqgFQx+g+C2dqoNey3vLjry3THT9OCc4PBfBYz0sB1QM7Vdo6hCOzGpaC0alh23kYzOPYFHDo3FnO9hOyU1MhsVOy3BflurJLzcjmqrwCVx5S4gUMbtRvOG42ksl94rBxbDPcNLTPKwFqxiEEOtO5YF4HmKF3W3heMiE1Fa28se8GSu90CmsnGJbl0+y6dp5F54xvcdWbQHTZlwftCVvP9nXM8Sr10qAOl48o61hj74hNyvxj6evGVWfDV3YMxJYP7kVhz3v4jbbt0oTt0HR5n3frz4gRiR4NxMu2NLXSOpOBBU49L6UMnnz7pvcBCszU9WGbRCL46tHHP3q6IeJCh2ZeR7wcnKZDzb6f+eserO44h7g3t93vAnAGEDFz3JNnOEPdF1bj3yfb7PfShBKXONN+g/JHveZr6WQS2Enw2eF0VAHc/deV6XPVQt271nA1Dt77j2leiCRjrd0ZeeJrfKiAieu5pfyuEiIhoeKevZ+QMsfPew97OQUREREREURiMjMx5H7vvPetERERERJQUg5ER2O+tt3/9VH1jERERERERJcMxI0RERERENBHsGSEiIiIioolgMEJERERERBPBYISIiIiIiCaCwQgREREREU0EgxEiIiIiIpoIBiNERERERDQRDEaIiIiIiGgiGIwQEREREdFEMBgBAORQvisg1k11BgAgt1qHuFtGTp1xxpnrInBc5rq/HHTLBBSrEKIKfem9uLRlGVLHxpIvoy7qKOfVGWSLvr7PIrUu8TpV5MuoC4FqUZ1BWid9D3HOhzjr5+RFuoaInqFTFYzkVusQzg1r8HeCN8gk8mUszR+geaOGtjrvLMuXsTBnnf7jkr7EvL+4RhedSqfy+h7XSTfiJsxcV8+XYGPshAWvk7Nev0xUV7I42DFhmiYqDXU+Eb3oTlUwAgA46mDTtG9a9t8yai11oePWRu2GCXNNqDNgFrI42KkgOOcsy6FcTHZcYs2EOaGAxVwXECvT2PXVh010MI1L6sJjs5+e11cZ5pyoU3Z9Py9O9Drdb0rny4Rpxt83nind0+pWDctnsOFrrguU0j3fNbK5d6Audjroyl0nP4sZ9HFoqTOIiGxjByNLS0t455138M4772BpaUmdfcbl8LB59r7Q4tmNs9N8XLnVOgrnO9gMNHzaqN1QpxERnXUmMnN9dBr+oLK9UXkGATsR0eT81Guvvfbn6sSklpaW8NZbb/mmvffee9ja2vJNSyq3WrefCoU84cut1lGaT3n/7+9tYnnDv6S6DPab0hNRE1VRgOHN7KNzZxm1Vg7luyWke/L67GnZKW9hWDv+Bry5LlBAE5uPF6RtWmgGGtCywbZ2L5RQmHMmH3WCx12sQiwO9la7jMTdH/8TYOXY8mXUV7LwSkhZp7oO9f/eNHe/YaG5AxQW4Ttu9Tz4zpWzDwdKeQ7Y5wmh8/3UbfnPuVuOQPPOIRakY/fOp1om0v66x99EAYU5+TiS14+oslT33beOfBn1lTR6Oz2kF7NIhdUtd7k7g14Gdb3+ayVBHVTrnktaxl8PgsevOl3Xd9y6EtQb6Mo+vmx19eBUXqch6/XNm/PXSXNd2A8RvH0NOyfyOvTzvPI3u8hI65D3Ua2D3v03cF4Quy9Jzt3JsvdvRlPv/ZTjCKkbg3vWe+il3wrUf9991kpQXmod1pW7PElTv3zLqfcYtZx197/QOnwQqIcLj93jVc+7sq9uPdsBCotGxHHqt68TOO5E9ylvgncOh2tbILju2LqxieUNOPW+iV66gOyUfI+L21f3mtF9lii5sXpGvvCFL6iTtNOOh4mrF3YHqQJ3OsB8yTcYzlwXzk3J7eJuwusZzpdRd2708d3fJqqihOwTKT3hTgczi5o0nrkClrA1SCE6MlBIMFA2NV9Cpivt51QWS9K6c6t1iMUZdO4MuuubT7IoRXSLi64FzGX884tXkZ2ysOt+eRfktKdNdJBFKcH+urzGhlcuh1gINFrjz1WkYgYGLHQT3NCC53wTnfMFzbgSA4UisOWd+z6MRacsWzUsm5voHNk3Z9M0/V/acwXvXA2+3BLWjwhe41xZh7+cUsjm3f2O+yJyJSv/yDrYqAw+b5owdyz7y9D9YsuXkXk8uJbMHQvG4ji57fH7HDzXo17funWNUG8iRJXt83KdijX7frfg1pli1Q5OpDoSdU7chtGgDh0gu6LWIQMFkUFX2Uf3OhNrUt00zfBrRLMv9vbU6y363I2sWE5wbQhUdiyk5ksRL1sYBBDucTSfZFFS663vnrWF+70+UukrvmVyqwswjjq4p73PRm8nabm3N5Zh3umgj77zXWYvl/z7Tbn/NbqwYCDjnbMcrqRTgG+aicwccPCRfS3lVjM4lLezb6CglhcMFDJdexk5EIm9hoKC95bo+1RYPRy+bRF9zjyB7zNban4BaNjTvYd0Cfc18FmiIY0VjJyIqSxK2sHKAhX56VzrPnpHwMwrzmWWL2Nhro/OHfmmOPiMWcgitd/0XXxh3d/uTXrTt70atvaCN3QcdbDlrbONWkvT0NDZb0oXrcA937pNXJ1PwdrxPy0Ra03lRqwI3KgBM2MA+12vTMSaXD5t3O/1gfOzyQaEu2UspxG0aljeUZOBY85Vknzuo0M8VKeptOe8jVqjg/5UGld8X/7+/W5v7AbKKpTyhT1U/Qhl4uo8AmW5uw8YGX/tsVrDPpWNKX9XZB2U5MuoLxqw5DFGrRoqcsDW6MJCCtNx39Wn4PrWr+uY601U2Z6V69Q1V/APqPYaRPb9LjV/FSZMVJU6EnlO3BdoyNtv3EPnKIX0ZXn7ynka+jqz6fYFjQqamust8tyNqvEI04FAS6NRsRuvbpkrjc/c6gIM3/4Boqmpt8o9q/1+T1nGbsT3e/e195bE2xnJcN9v/vufQHdfvi9cQXrKguWbNosZ6WGWeh8QXQuYUscd9tFpSnUx8TWk0N5bou9TofVwyLZF4nMWFoDu7/p7Z4bZV+WzRMMaKxj54Q9/qE7SThuKOsDV1z1uoup9KfpTZGBMI3XUw33tBZHD7HnA6ko3mwiXLuhv0vYNXbmJPXkUWC6J/uOIprZyMx1QbsQB9hfn4Ebh5CDLN1nnyY3bsPB3oceILGNVxLlKQi1nnbD9ad1H70htGB/gkbpcUso5Hqp+hMnPYgYpZFfkt+aoqQ8ARh74GV/+kXXQY7/sIKV8yQHukzN3G3JXfoRTcH2HrusY60102Z6x61QdwO4LICr2k2ZRUBpCMefEmEYKBgpS3ddvP1j+7Y8Okt0fPOH7IrpWIMiLPnd68rnS/xVgIKXp+dERqLhP1OcKvkHily6kgsGhkmIKBO9Z9oMOKdBzGvFuT5wq8XZGMdT3W/D+9/CxFBwa00jtd1HpWt603OU0UlJgD7cnxj0Obe+GUs+GuoYkkZ8brh4GzmGMxOcsZL3+ej/cvo5yzRDJxgpGtra28N577+Hp06d4+vTpWONF4tg3E7kL0k6rIb/2+z303acnxQwM+cboNB7l1IjNvb5/Bcdg7HNlHaKPGczGfmmfdW6Kg/Knyc8fxtjlL8mtLiELpRfIbXytpNHz0h+kVIQRHOc+nwXPxXXqePh4xH1TA1PnL3q8xOkk1oLH4f9rwgrk28cRqDjpOV4qnDNmJrj++PWKmAa7atTtnDS5l8fMGHaDudGFNZXGlbzd4zNoRNvBti8dNq534ww7reeMKM5YwQicgOT69eu4fv36iQUiXpfy3mbw6azLOgx2R3raePRE07UYwvfkRZK7nEYqSfrQuFqPcKDprlZzYbVa99E7sj9rZgzfE3x7/4MNy6Foyjj3yoz8v/hzFcd5Qp0txJyvsHOev4L0VPCJ2nE5lvoReo7HdQzl78qXsaSmkgFePVTTLEaXYJ/DzjUw9PUduq4Trjc+z8N1CreOHKDpPMUf5JLHnJOwc5CAmtIWL3xfzIwR+qT4WBVncThUIOKy9z11we4HCrv3JBLaYA8aaztxQu99Cb7fIPdgmsjMuT0sAt39FKaNS5ieknpdnPGHI/2elqZ++q8hjch6fbL18HjP2cnuK5Fq7GDk2fDfkOE+sZW79J1u6OyKPADORNXJuRXNDvpzBd8A49xqVdtl3t7YhTWlDBjNl7E0nxohf38UThqHMiDYXC9EDDh02bmlRqaKzJy/Gz6Q3uAcU2JOTne2KA2IC6wjwblynvyqg+AG2qjdcFIU1MF3yKF8dzDwPHjO3bSiYXNYg/sd5njqh52SoA6GDquTyQWPI1D+idg/VIa9LU05PsShMrbAXE+YpqWVYJ+153q061u/rlHrzajOwHUay60j9yC8e9agTCPPifvAQd5HAOa6OoBZGWxcrKIwp6SPJOhJ1e2Lva5getyJaNQS1KtBffbky1iQjtfuFVAH1Gs+pyVwbw9IF64ijejvkUTbSVDueuN8vwFwxlAZiwUYUlD68LEzTX4gFNhHe2xTrETXkIb23hJ9nzquepjonA3hJPeVSHVGghFncJuUD7mE3UBKgVhz3pQh5enC/dJq1bDsvInFXUcpfRiS2ylQkQcRikFKylhPEYfQ3ljG5h58YwoKaCb7YbNGF9ac4btR29Pd/G5nnUVgd6j0jzZqN5w3+0jr2FK6vZOcq3h23rT9hhUpB1aUkO7dkwb6qufcfjXnKKlO7s1XiLi3Yh1P/Qjuu0DpQjdBoyXacZS/G1ykpOtFCHfAuT3YW76WMt3x0rSS7HOwvEa9vnXrGr3ejOysXKdqHroQqBZzKN+1G4/uINv2xpb9xh83eIg8J5p9FAILjwfXts1CszU9WGbRCL461GsAivAf4dPsi/3a4FF6K06QWtbqfUV3HGIBhwkbh+33e8CcAWjGvPkk2U6Scg8x1veb2/CGPyh1p/nG87Vq2PJtJ4NuojQtTf3UXEM6wXtL9H3q2Oqhbt3qORuGbn3Hta9EirF+Z4SIiOhEeL8zon9tLBERPR/OTM8IERERERE9XxiMEBERERHRRDAYISIiIiKiieCYESIiIiIimgj2jBARERER0UQwGCEiIiIioolgMEJERERERBPBYISIiIiIiCaCwQgREREREU0EgxEiIiIiIpoIBiNERERERDQRDEaIdPJl1EUd5bw6g14o+TLqQqBaVGc8n8x1AXG3jJw6g4iI6IScqh89zK3WUZpPKVP76NxZRq2lTH7W8mXUV7JQ9w6w0DQrEL5pJqqiAMM3LflxmOsChfMdbN6ooZ0vo76SRs/7rLtu3XYBFKsQiwjMM9cFCnPSBPnzIcfW39vE8kY75Hik+SGf9+w30URhcEzq/BjBepG8LEcWKHcan4mqyKBrVvBwtY6rHy2j0nCnB+sX9psw1wI1/Nly6vbBjuns6/PNd+9RZxJFyqF8dwloLOP+5TpKF3Ynf/0S0Zlw+npGjjrYNE2Y3t9pagz20bkj75uJzb0ZFIRAfTX4LNHakZcDsitVmOpCqmIVhTkLzdjGgIHCeuzanC8IgQKavv1u7qvLBY/NDkQG5OMx73SA+ZJ93K0alr3PNWGpy64JiLVNdJDFkqacopjrAqV0z1cnNvcO1MVOh2IVQiQ4x6eWXVd0dflYFDMw9rsQMHF1Hji0/LN9dcapNxPn1O1hA5Hcav1M9jCINRNm7L1HZaJ6Yr1HJ1wnSWPEMs9fQRo93G/lcCUNdJqn4PolojNh7GBkaWkJ77zzDt555x0sLS2ps5977Y1lmDsWUvNLkSk97Y1dWJjBbMQyAGBmDPT37gV7PBTWXgf9uUJ8AyB/BekpC02lYSfWNL0qw2jVsLXXR+rCJXVOiDZqLQup+atDNNZNZOb66DT8jaP2RuUUBaiUlJkx0H/80A5Kjnq4z3NI9NzIXU4Dvftoe0GJugQRkd5YaVpLS0t46623fNPee+89bG1t+aYllVut20/Bw57MuSlIO0Bh0bB7UW7cx5W7JaR7TfTSBWSn7Ces9pPMHMp3S8hODVYxmGcz1+1egyYKKMzJqUmKyLQdezvpnj+tCfK2Ij/vMlEVCziUlwl8brDue6/UUZo/8KdkqWlaSdJMAttQaY5HKjv/E2z9svp59v9nwso8dr5LSfM58qeZBM/xe+il35LOl0vaP0tXJuHbiUyDU6j7Ay/lDb766q+LmroRcg7UtDZtnZf21fKO159q525f3V93urqd0GsnllovVO71pVzj0N0PnPNerEIsSolfSp3w6vxOD+nFLFJh50u9Nrz/72J6ZVAXBscevOf4tq2mNPpS0UKO06uLYdt0Bbetnvs4an1y/7/5eEE611JZqeWsbNNf15T0SvdedecQC1KZeJ9Xy0o5ZrX+RR/r4B69e6E02CdfvbCXmW7516P9XlL3zTuP6neBy1/H1X33n8tgPYB3fP57kO6YT0+ZExElM1bPyBe+8AV1knba8TJQyHTtNA7pyyE1vwA07PSOQUO3hOwTKT3pTgczi5ru57kCMl19alIybTx6goheghzKxSywtxXS2HcM+cS4vbGFzlFMupbTg2HojnscxSoKc/0hu+If4vAImHkl6X4IVHYspOZLEKHHOPiSd89z80kWJTVFxneOt3C/10cqfcW3TG51AcZRB/e0X67R2xFrJswdy2momTB1DVuZtD92z1oJQtgNocG06N42Ha/hpNR5twctt1q3xwS483ecXKlWDcvmJjpHduMjcC0ErhETVy/s+q4tzJfie+rGELzGob0f5FbrEIszvrTD5pMsSoEUuhSyeWAryfnySSG7kkFXKsPBuWqjdsPE5l5/kHLqC0TS6Hn7tYnO+UKgbuuPM2qbGO5+N6y5ApawNdhn+Z7TqARSM32BiJweunOA7Ir6UggDhaJ7DuxyMxad8xRRJ+PqeZjUfGlw3ZlNWFPDp45Gn8d2gntLsmtHrgd2uQgIsYBDZ7u+snKcxjInIoozVjByIqayKAkB4f6pjUqENID3d30Nfffmvyk/tXdTi5QvCoQ2QJN7+LivTnK+PASEKCE7ZWE3JtDJvTIDPHmk7xXSaqPWiE/Xam8se194ImR8i93Ykcpd8yapwfEIiEx3hPE8atAmUFEbvSq3sTNXsLerNNxyqwsw9pu+p3Oi2UF/Ko0r8v4r57j9fk9ZJocr6RT6vfva8k+8naTkdTXuoXOkm5ZC+rLuXIWxx2L40tpaNezuA0bGLrdLF1L+OtaoJHuyGbhGBCq+a+s+ekMFmkG++qUbg6Bc4zb1fmDi6nwK1o6/boq1JiwYyCjrtFohvbAxrB0peEl4rsyC+kDCTl3EXMYfJGmPM3qbQ93vhnXUwZZ3jYbssypfxsKckh6qLSd/Gqadzho8T37x9TyU7xoWuDdC+cSdx/h7S7Jrpy9twy4X3TSprE5rmRMRxRgrGPnhD3+oTtJOG4o6gD2QsnWAR5ov6v7jh77/X7qgb1jaXxTT8PVhDBUA6F26EHyXlG9A7p1DLOgaWOPyej7Up74Kd5C5G5TogjzfAPZgoOEdz44FxARAYXRBWzw7aBkEJYNjvXQhBbiBivune7OXeo5bNezuS1/SztiasIAx8XbGoNbhoeVnMRMIKv0pWaJpB6+6YDOSWn6A8zTe3Y6SmjQC3/WiGTSuLx/lfpCfxQwsdAMBlkB3X23w9QOD6JMZ5XM5zJ63n8z76pCS4oTQ44ze5lD3u2Fpz30MYxopGCjIx6qtI/r7eaQE9TyMvmyHkeA8Jrq3jHbtHHwUcSZOaZkTEcUZKxjZ2trCe++9h6dPn+Lp06djjRc52+wvKKur6bFxneBTpETpWq5WDctOesLVEYIJwH6avrnXh5FXA5qTJlBx0kQWpN4dN53A/xcMplSia3lPRXOX00jtdyNTdUbdzrPlpokpf+7TUjco3TlwGhZDBiWO3Godwpe2Zqd2UDQ14LL/hkkRO0PUB0vOX2RPaGIx9fyExZ3HqHvLiV47z3GZE9Hza6xgBE5Acv36dVy/fv1UBSIPH+u733OX00gdHWLc52Oy3OoSslDTWJ4lKV3rlUPE9z0MO3YjqL2xO1K+ta4HaTj+VK+w85xIowtrKo0reTuNIiqYHGs7xyaFad+DdDsI9rQe4SA23cLRqDiNIDWFIwkn7WRvM9B7MXGhZWAiMxfzZPlE2fX2JB5GIKJ+nsT9LhHrcPQUxjih5/h4qPdF/z0r4XkMvbec4LVzhsuciF5sYwcjp5XbWC7JvQX5MpbmUyPniQfZ72MvzR/E/y5IvoyFuejek/ZHB8D52UCDIhE3XWteSR3Kl1FVA4biVWSn+ui9H7nHMdzB5cMMsrYbz4NUCTtVQT+GBfZ8tbdHKUc7DUUNijSf0xK4twekC1eRjgkmE23HOkQ/weubR2OnGcm9UbnVJSUFw1lGSdnLrVa9c2SuR6XzqWN6wgSXC+7LpNjjAIxFf4+PuV6IeDnB8Wt/dAAo6VGiq0lv1F2fI0h2v7PvV6OkV0bTPNxo3UfvKIVs0d97Gl3/dIJ1LUk9H40z+Fx+/XixGkhFSnYew+4tweM5tmvnTJY5EdFpDEbUAeyRjdUoAhV54LMQEM4bUEZ/IqXmzNqvcAxLs/ANyE2y7TGfbNnpWupUYCaQ3ww0A+lF6rHpXh6gcAZHql9+4S5hemrIp9OBcRpKObZqWJYG59t/CzjUveRAo/1+D5gz7PfjqzNlSbbj5Irb5ThsAyCeWLPT69zrYwlbgR+vFGsmmvv+vPHSha50ruV5wVeQDsaURF93Ys1/bS1hV1v3hqEOYB+1DNsby86PjA7WVUBTM/7sBDXu2amTQrqOGhWYO5ZyX5hG91hSaBLc75yxC8HxNONyf0PIvjbsRnobtRv2D53K9/OFx/G/oaTS1cn4ej4aL+XVXW+ma78ZTZbwPIbdW07i2rGdzTInIhrrd0bouIW9o/45of4GChE9O8Wq/RY85vgTEdEpcvp6Rl5oo/xK+VmRQzmf7Nfliej45V6ZiUwTJSIimgT2jJxC5rqwf5juWaaVnLDn8ZiIiIiIaDwMRoiIiIiIaCKYpkVERERERBPBYISIiIiIiCaCwQgREREREU3E/x8LWPLi1eLMngAAAABJRU5ErkJggg==;" vertex="1" parent="1">
          <mxGeometry x="1351" y="34" width="804.05" height="760" as="geometry" />
        </mxCell>
        <mxCell id="Z7KDKAvKKjHut_IFP0Tw-49" value="RegisterServlet" style="swimlane;fontStyle=1;align=center;verticalAlign=top;childLayout=stackLayout;horizontal=1;startSize=26;horizontalStack=0;resizeParent=1;resizeParentMax=0;resizeLast=0;collapsible=1;marginBottom=0;whiteSpace=wrap;html=1;" vertex="1" parent="1">
          <mxGeometry x="390" y="480" width="270" height="86" as="geometry" />
        </mxCell>
        <mxCell id="Z7KDKAvKKjHut_IFP0Tw-51" value="" style="line;strokeWidth=1;fillColor=none;align=left;verticalAlign=middle;spacingTop=-1;spacingLeft=3;spacingRight=3;rotatable=0;labelPosition=right;points=[];portConstraint=eastwest;strokeColor=inherit;" vertex="1" parent="Z7KDKAvKKjHut_IFP0Tw-49">
          <mxGeometry y="26" width="270" height="8" as="geometry" />
        </mxCell>
        <mxCell id="Z7KDKAvKKjHut_IFP0Tw-77" value="doPost(req, res) void" style="text;strokeColor=none;fillColor=none;align=left;verticalAlign=top;spacingLeft=4;spacingRight=4;overflow=hidden;rotatable=0;points=[[0,0.5],[1,0.5]];portConstraint=eastwest;whiteSpace=wrap;html=1;" vertex="1" parent="Z7KDKAvKKjHut_IFP0Tw-49">
          <mxGeometry y="34" width="270" height="26" as="geometry" />
        </mxCell>
        <mxCell id="Z7KDKAvKKjHut_IFP0Tw-78" value="&lt;u&gt;&lt;b&gt;buildDTO(req, res): UserRegistrationDTO&lt;/b&gt;&lt;/u&gt;" style="text;strokeColor=none;fillColor=none;align=left;verticalAlign=top;spacingLeft=4;spacingRight=4;overflow=hidden;rotatable=0;points=[[0,0.5],[1,0.5]];portConstraint=eastwest;whiteSpace=wrap;html=1;" vertex="1" parent="Z7KDKAvKKjHut_IFP0Tw-49">
          <mxGeometry y="60" width="270" height="26" as="geometry" />
        </mxCell>
        <mxCell id="Z7KDKAvKKjHut_IFP0Tw-87" style="edgeStyle=orthogonalEdgeStyle;rounded=0;orthogonalLoop=1;jettySize=auto;html=1;" edge="1" parent="1" source="Z7KDKAvKKjHut_IFP0Tw-53" target="Z7KDKAvKKjHut_IFP0Tw-57">
          <mxGeometry relative="1" as="geometry" />
        </mxCell>
        <mxCell id="Z7KDKAvKKjHut_IFP0Tw-53" value="UserController" style="swimlane;fontStyle=1;align=center;verticalAlign=top;childLayout=stackLayout;horizontal=1;startSize=26;horizontalStack=0;resizeParent=1;resizeParentMax=0;resizeLast=0;collapsible=1;marginBottom=0;whiteSpace=wrap;html=1;" vertex="1" parent="1">
          <mxGeometry x="800" y="480" width="310" height="60" as="geometry" />
        </mxCell>
        <mxCell id="Z7KDKAvKKjHut_IFP0Tw-55" value="" style="line;strokeWidth=1;fillColor=none;align=left;verticalAlign=middle;spacingTop=-1;spacingLeft=3;spacingRight=3;rotatable=0;labelPosition=right;points=[];portConstraint=eastwest;strokeColor=inherit;" vertex="1" parent="Z7KDKAvKKjHut_IFP0Tw-53">
          <mxGeometry y="26" width="310" height="8" as="geometry" />
        </mxCell>
        <mxCell id="Z7KDKAvKKjHut_IFP0Tw-56" value="&amp;nbsp;registerUser(atributes): User" style="text;strokeColor=none;fillColor=none;align=left;verticalAlign=top;spacingLeft=4;spacingRight=4;overflow=hidden;rotatable=0;points=[[0,0.5],[1,0.5]];portConstraint=eastwest;whiteSpace=wrap;html=1;" vertex="1" parent="Z7KDKAvKKjHut_IFP0Tw-53">
          <mxGeometry y="34" width="310" height="26" as="geometry" />
        </mxCell>
        <mxCell id="Z7KDKAvKKjHut_IFP0Tw-57" value="UserDAO&amp;nbsp;&lt;span style=&quot;font-weight: normal;&quot;&gt;&lt;i&gt;&amp;lt;&amp;lt;interface&amp;gt;&amp;gt;&lt;/i&gt;&lt;/span&gt;" style="swimlane;fontStyle=1;align=center;verticalAlign=top;childLayout=stackLayout;horizontal=1;startSize=26;horizontalStack=0;resizeParent=1;resizeParentMax=0;resizeLast=0;collapsible=1;marginBottom=0;whiteSpace=wrap;html=1;" vertex="1" parent="1">
          <mxGeometry x="760" y="680" width="360" height="86" as="geometry" />
        </mxCell>
        <mxCell id="Z7KDKAvKKjHut_IFP0Tw-59" value="" style="line;strokeWidth=1;fillColor=none;align=left;verticalAlign=middle;spacingTop=-1;spacingLeft=3;spacingRight=3;rotatable=0;labelPosition=right;points=[];portConstraint=eastwest;strokeColor=inherit;" vertex="1" parent="Z7KDKAvKKjHut_IFP0Tw-57">
          <mxGeometry y="26" width="360" height="8" as="geometry" />
        </mxCell>
        <mxCell id="Z7KDKAvKKjHut_IFP0Tw-84" value="existsByEmail(email): boolean" style="text;strokeColor=none;fillColor=none;align=left;verticalAlign=top;spacingLeft=4;spacingRight=4;overflow=hidden;rotatable=0;points=[[0,0.5],[1,0.5]];portConstraint=eastwest;whiteSpace=wrap;html=1;" vertex="1" parent="Z7KDKAvKKjHut_IFP0Tw-57">
          <mxGeometry y="34" width="360" height="26" as="geometry" />
        </mxCell>
        <mxCell id="Z7KDKAvKKjHut_IFP0Tw-60" value="create(User): User" style="text;strokeColor=none;fillColor=none;align=left;verticalAlign=top;spacingLeft=4;spacingRight=4;overflow=hidden;rotatable=0;points=[[0,0.5],[1,0.5]];portConstraint=eastwest;whiteSpace=wrap;html=1;" vertex="1" parent="Z7KDKAvKKjHut_IFP0Tw-57">
          <mxGeometry y="60" width="360" height="26" as="geometry" />
        </mxCell>
        <mxCell id="Z7KDKAvKKjHut_IFP0Tw-86" style="edgeStyle=orthogonalEdgeStyle;rounded=0;orthogonalLoop=1;jettySize=auto;html=1;" edge="1" parent="1" source="Z7KDKAvKKjHut_IFP0Tw-69" target="Z7KDKAvKKjHut_IFP0Tw-53">
          <mxGeometry relative="1" as="geometry">
            <Array as="points">
              <mxPoint x="340" y="630" />
              <mxPoint x="840" y="630" />
            </Array>
          </mxGeometry>
        </mxCell>
        <mxCell id="Z7KDKAvKKjHut_IFP0Tw-89" style="edgeStyle=orthogonalEdgeStyle;rounded=0;orthogonalLoop=1;jettySize=auto;html=1;dashed=1;fillColor=#1ba1e2;strokeColor=#006EAF;" edge="1" parent="1" source="Z7KDKAvKKjHut_IFP0Tw-69" target="Z7KDKAvKKjHut_IFP0Tw-57">
          <mxGeometry relative="1" as="geometry">
            <Array as="points">
              <mxPoint x="670" y="736" />
              <mxPoint x="670" y="736" />
            </Array>
          </mxGeometry>
        </mxCell>
        <mxCell id="Z7KDKAvKKjHut_IFP0Tw-69" value="User" style="swimlane;fontStyle=1;align=center;verticalAlign=top;childLayout=stackLayout;horizontal=1;startSize=26;horizontalStack=0;resizeParent=1;resizeParentMax=0;resizeLast=0;collapsible=1;marginBottom=0;whiteSpace=wrap;html=1;" vertex="1" parent="1">
          <mxGeometry x="260" y="680" width="160" height="112" as="geometry" />
        </mxCell>
        <mxCell id="Z7KDKAvKKjHut_IFP0Tw-70" value="User atributes" style="text;strokeColor=none;fillColor=none;align=left;verticalAlign=top;spacingLeft=4;spacingRight=4;overflow=hidden;rotatable=0;points=[[0,0.5],[1,0.5]];portConstraint=eastwest;whiteSpace=wrap;html=1;" vertex="1" parent="Z7KDKAvKKjHut_IFP0Tw-69">
          <mxGeometry y="26" width="160" height="26" as="geometry" />
        </mxCell>
        <mxCell id="Z7KDKAvKKjHut_IFP0Tw-71" value="" style="line;strokeWidth=1;fillColor=none;align=left;verticalAlign=middle;spacingTop=-1;spacingLeft=3;spacingRight=3;rotatable=0;labelPosition=right;points=[];portConstraint=eastwest;strokeColor=inherit;" vertex="1" parent="Z7KDKAvKKjHut_IFP0Tw-69">
          <mxGeometry y="52" width="160" height="8" as="geometry" />
        </mxCell>
        <mxCell id="Z7KDKAvKKjHut_IFP0Tw-72" value="getters" style="text;strokeColor=none;fillColor=none;align=left;verticalAlign=top;spacingLeft=4;spacingRight=4;overflow=hidden;rotatable=0;points=[[0,0.5],[1,0.5]];portConstraint=eastwest;whiteSpace=wrap;html=1;" vertex="1" parent="Z7KDKAvKKjHut_IFP0Tw-69">
          <mxGeometry y="60" width="160" height="26" as="geometry" />
        </mxCell>
        <mxCell id="Z7KDKAvKKjHut_IFP0Tw-91" value="setters" style="text;strokeColor=none;fillColor=none;align=left;verticalAlign=top;spacingLeft=4;spacingRight=4;overflow=hidden;rotatable=0;points=[[0,0.5],[1,0.5]];portConstraint=eastwest;whiteSpace=wrap;html=1;" vertex="1" parent="Z7KDKAvKKjHut_IFP0Tw-69">
          <mxGeometry y="86" width="160" height="26" as="geometry" />
        </mxCell>
        <mxCell id="Z7KDKAvKKjHut_IFP0Tw-73" value="register.html" style="swimlane;fontStyle=1;align=center;verticalAlign=top;childLayout=stackLayout;horizontal=1;startSize=26;horizontalStack=0;resizeParent=1;resizeParentMax=0;resizeLast=0;collapsible=1;marginBottom=0;whiteSpace=wrap;html=1;" vertex="1" parent="1">
          <mxGeometry x="40" y="480" width="160" height="60" as="geometry" />
        </mxCell>
        <mxCell id="Z7KDKAvKKjHut_IFP0Tw-74" value="+ datos Register" style="text;strokeColor=none;fillColor=none;align=left;verticalAlign=top;spacingLeft=4;spacingRight=4;overflow=hidden;rotatable=0;points=[[0,0.5],[1,0.5]];portConstraint=eastwest;whiteSpace=wrap;html=1;" vertex="1" parent="Z7KDKAvKKjHut_IFP0Tw-73">
          <mxGeometry y="26" width="160" height="26" as="geometry" />
        </mxCell>
        <mxCell id="Z7KDKAvKKjHut_IFP0Tw-75" value="" style="line;strokeWidth=1;fillColor=none;align=left;verticalAlign=middle;spacingTop=-1;spacingLeft=3;spacingRight=3;rotatable=0;labelPosition=right;points=[];portConstraint=eastwest;strokeColor=inherit;" vertex="1" parent="Z7KDKAvKKjHut_IFP0Tw-73">
          <mxGeometry y="52" width="160" height="8" as="geometry" />
        </mxCell>
        <mxCell id="Z7KDKAvKKjHut_IFP0Tw-79" style="edgeStyle=orthogonalEdgeStyle;rounded=0;orthogonalLoop=1;jettySize=auto;html=1;" edge="1" parent="1" source="Z7KDKAvKKjHut_IFP0Tw-73" target="Z7KDKAvKKjHut_IFP0Tw-49">
          <mxGeometry relative="1" as="geometry" />
        </mxCell>
        <mxCell id="Z7KDKAvKKjHut_IFP0Tw-83" style="edgeStyle=orthogonalEdgeStyle;rounded=0;orthogonalLoop=1;jettySize=auto;html=1;" edge="1" parent="1" source="Z7KDKAvKKjHut_IFP0Tw-49" target="Z7KDKAvKKjHut_IFP0Tw-53">
          <mxGeometry relative="1" as="geometry" />
        </mxCell>
      </root>
    </mxGraphModel>
  </diagram>
</mxfile>
